<mxfile modified="2023-10-24T08:44:23.154Z" host="app.diagrams.net" agent="Mozilla/5.0 (X11; Linux x86_64; rv:109.0) Gecko/20100101 Firefox/115.0" etag="xC_hzyozgRDnWeen9AWv" version="22.0.6" type="github">
  <diagram id="l2aKFoh6-Bn0gOPZ2l0T" name="Page-1">
    <mxGraphModel dx="1061" dy="723" grid="1" gridSize="10" guides="1" tooltips="1" connect="1" arrows="1" fold="1" page="1" pageScale="1" pageWidth="1169" pageHeight="827" math="0" shadow="0">
      <root>
        <mxCell id="0" />
        <mxCell id="1" parent="0" />
        <mxCell id="mpq5AgpwV83IM184FDqD-40" value="Arista rack equipment layout" style="text;html=1;resizable=1;points=[];autosize=0;align=left;verticalAlign=top;spacingTop=-4;fontSize=20;fontStyle=1" parent="1" vertex="1">
          <mxGeometry x="40" y="40" width="580" height="30" as="geometry" />
        </mxCell>
        <mxCell id="mpq5AgpwV83IM184FDqD-41" value="Location:" style="text;html=1;resizable=1;points=[];autosize=0;align=left;verticalAlign=middle;spacingTop=-4;fontSize=14;fontStyle=0" parent="1" vertex="1">
          <mxGeometry x="40" y="80" width="580" height="30" as="geometry" />
        </mxCell>
        <mxCell id="mpq5AgpwV83IM184FDqD-42" value="Investor:" style="text;html=1;resizable=1;points=[];autosize=0;align=left;verticalAlign=middle;spacingTop=-4;fontSize=14;fontStyle=0" parent="1" vertex="1">
          <mxGeometry x="40" y="110" width="580" height="30" as="geometry" />
        </mxCell>
        <mxCell id="QUz8MOJk-RTbm33aGLKT-2" value="" style="strokeColor=#666666;html=1;verticalLabelPosition=bottom;labelBackgroundColor=#ffffff;verticalAlign=top;outlineConnect=0;shadow=0;dashed=0;shape=mxgraph.rackGeneral.rackCabinet3;fillColor2=#f4f4f4;container=1;collapsible=0;childLayout=rack;allowGaps=1;marginLeft=33;marginRight=9;marginTop=21;marginBottom=22;textColor=#666666;numDisp=ascend;" vertex="1" parent="1">
          <mxGeometry x="380" y="90" width="204" height="660" as="geometry" />
        </mxCell>
        <mxCell id="QUz8MOJk-RTbm33aGLKT-10" value="" style="shape=image;verticalLabelPosition=bottom;labelBackgroundColor=default;verticalAlign=top;aspect=fixed;imageAspect=0;image=data:image/png,iVBORw0KGgoAAAANSUhEUgAAAsgAAAA3CAIAAACekivEAAAACXBIWXMAAA7EAAAOxAGVKw4bAAAgAElEQVR4nGy9WZdkx3EmaIv7XSIiIzMra18AFIogQAGEsBEUSVDq1sLpeZk+p/t0/z716Uc9zpluahlpRpSa4iISBEAABFEAaq/cM9a7uLvZPNi9N6OgiVMnKzMy8oZfd3Ozzz77zAM/+ui3f/u3f9e2bZ7nMUaReHZ2tl6vQwgxRiICAABQBURVRQAiwhjjcrny3u3u7o7H4zzPRQQRt7a2vPdN0xJhXdeHh4dPnjydz2eIOJlMRqOR40xEAdQeAKCqiIiIROScc84RESImiapizyPi8Pp+PIqIRIwIACCSEBGAEMEupioiCYEQGbB7mghTCoCAiADPfA0hqGpRFHt7eyKiqiKCCERIRKoEqKBISIiECDZqQCBAAUUQBUBRuzeA7sp28eEeVQFYgLQfJqICAqaUnHNlWY5GoyzLCAlVmzYeHx8/efJkPp+LSJZlZVmWo5HzrNoNm5mHyWHmtm2Hd2RmABARESXqZpiI+qkjm1hEVRUb7MZQgQhTAhFFRBExexCRr82bvYUqMDkFsZUVkeGViOhc914pJbu+DdhellISkTwvmdmetGcA0HtmJhG18aiiKgLo5sSqKiipikAC7cY//MoW0abL3rd/dxu/bo6HiBBBpDMzu/HhUsNdD9cfXmZfVUEkge0QBAC0VRj+dpjejWlEVRVJIkLMhGi2h53FgpnTsGr25imJSDIz63eHqIq9LMYYY7S/IiK74DBym5PhYs6xc962uXNs3yCS3TQASL9T7TrnwwBRRSJwziMhKKqm4QWOHTHZ/XrvQwi2u21xiUgVVYGoMzAbXtM0KSVEZOYs84gkIoiESknbzVf2FjvcV7fx2WXdaDUqCCkSUVmW5p2YmZhtJYg9IqCCdhdU825mQv2sAims61UTWsesqkmEeo+0aQlJksQkqkAwHo8mk2lRFPYyEYkxAtgguyUAVRIEICFVkKSiIKCa2igxggCy4yxDJgFAVUYFwM6tnHs/Gna67SSiYcsnER2W3m4fNh7DPZ7bW//YNFf72yIvszxDFCLo3hcZkRW9ApIqgZAGJgkii+UKie0aG1frhjxYiIhcvnxxe3vbQoZ5hjzPU0pmA5sBol/04a7NeIiZVAeXRYQEJKIJVEFRVQGBlBHRe48ICubZVTWpSttEVQSmbqyoBMBIjpkAkFmRASGBFnke6hZQvfd///f/8Jd/+ZeHh4fT6bSqaqJntnZ/g51vGPyE/cp2wbln7qwOARVBVRQQhnXploYIEEQEEAkQVM3DmF2Zn1QQUARFRUWwqKLDVA/xCGDTY2hK6fr1q9euXbl69ToA7O8f7j/dPzubO+dGoxEzr1ar09Ozqlo75wAgpQQoCjq4WZEkkvI8994xOwCIsUWkxWLt/vmff/pXf/VXk8lka2urruu6Xs9m85Sicw4RnXPe+8GCATAltVWoqiqEUBSF91mRl+y4qRvvXVGUtpAi8vjx44PDAxUtiiLLMnMrsLGT7fsY4xDbzDkOvzLnaPsd4RlrGyKBwjOu0/a7KkqCzSDUv2kCm/vh5YTrVR1DnE6nzz///Msvf9O7LEmsm1okESECqUJKFvDsjRjBQAEhEKKIpo3NaFsJkqTh3QnNfCEvs2H8KpIkqahNdVEUZVkWWW52Q0SLxeLo6Ojp06ePHj06Pj4mpLzMkRnBwgZ7751jZl/kpaqs15UFlRgjMxNRVVVZlk0mE4vWZVmKRlUxc9cBCIFuOgKDd95nBtEsrrRtu16vRNQ5p3brqiISYiCkIh8BgBmtqKaUYowpJWYuyzLPvaq0bTDHYXfXOz5EBBH4mmEAYJaxxVFEImIRiTEYJjCvgUqqZhy6GdhszkWkrutNAxhc5/AY4qVtV/sr2//D9rMpNY+waWl2L/arYe9tvsC8w6abVgVEkAQAYJtLREJsVSMgA0CM0UbinMu8H7aM2R4z2bL2S9ZFF3tfi3cAOMRvZoox2RiGe7dbJiJmzrLMNvgwb4Pf2ZwoGRzyM88DIjI7wwcqSUFt9rz3jh0iiEgI0fBulmV2gyJi0zvsFpsWg0R2hSzLnWNQMJ8TYitJyIF33nsfY6zrekDGiGBBy2bYRgoIjETMWeZFQAGZiagD4ilGs8/NOaQeXg8Q3Ny3/Wiv34RiNviUUpKUYgCAvCwRYXBiQ+ywd2FmZgZQTapBAREdKnVQSVFSHSQlQhYL6szIDiWBJkISNR8oiGho2wIGM8UYQwjOOURKqbu1zdDyrBE+s7jYJ3XM3Mf1Dl73bpYBGUAIBcjsxKWoIQgAqChqJEioIakGAXOvQ66CiAA0XG3ACk3TIGJZlltbEyKuqmq9Xvdr2u0U8wQiSVVsXZh9D3837RlBe9vXAAqioKpgzsGglfk4UJGYUpSUICkCCfeQD4iIJSYSJSQgVEIFVUQVIVVkHtyFiDRNE0Igwo2Ed3Cq58Oz751zugHgRDSlaLjdBqbQzYz33vzMkMiFEFA1y3zmPZLlzBBjElViAgUBg8QIoAzomWPvZs3kiGgwdZu9EELTNMx08+b169dvqerR4clqtSKi6XTqXFZVq5OTkxBCWZY+M5+jZmO2eWOMZVlsb2+t19VisWjb9uzsLMuy3d1dZu/ef//XZ2dnzrnVajWfz8qymE63dnZ2bt++PZlMzEfYRVNKzM7iq/e+qqoHDx589OGHDx883N3ZG2+Nmbhp2rpuzFsdHh4+ffp0NptZFt62bV3XdnvDvPdmd57/Dcs2bO+veTrzkv2WAMMbxhU8iyEQ+kvau2mX4QGcY4rOibRtG0MMITJzUZRlWdrEiUYRAUUiTklCiCKWSBowYaNMVEU0GP9gz1jQNbNDHHIVRETL5Lp7FQVQERmPx0RMhuSYjR2KMe7t7V2+fPmFF1744IMP1uv17GyWVNg7QnTOe48iRtacm/swwzZR5s5Uta7rpmnats1yn1Js2zaEYMbXx6RzZqW3HgZAZsqyzDlntjq4S9Q+7oaIgAgtgDKz84TQkRzr9do5b9EKoKM9bGxfc3yqoGqunwbWyhgmCwGWvzZNY0umqoiEQP01ZLCBczDap2U9aOiQ+6bft2wPOt5FzbHa/RpWGIK9jWowzgFYWCBkdsw0wKnBga7X602f3vkOVwAoAPROxClgXpSq2rRtirHbF4iIyETSBYbzTWGpvIXDAd9sIgN7o5SEaOAhcMBPZhX9HUnbRhFZr9cDBOnXBWzsnY+m4VdE5CzCGTIVEVQ1bIeASDigNOMCN99aVafT6eYbDYs1+NO2bYkIEDTBkHw7T4Gj98FMq19HMSSBiEMK2wch9t6nVHTO11JYRFFlohBCCOF8ZUEdst0Rd+ahIQSRxM6xqm0Z772ly5seyaZaQSm0mz6NmVVhvV6n1A0SAEWSJpUgzOScw8wzo6KayaIqAkUREYmgSkyqqDIs3zCZw+wRUdM0TdN4722fDi/72iR/DVgM3w8mUVWV/XmfMRtyAABzbkhs3AupkAoQWDocURNoEsTU5cznPh6RoNun5w8AMLhJREVReI/OufF4PDAomxaralSoAW4/0LTDXkvROJqkICKhx5fdP0Qoy9JwDhKokqoD1YIdKSdLEslSRNKUULrXCqmoKmEMIYVoQboPhbwJjjcndjNaDZM8RDFDz31BwDgNAEKjG6RjNdhYQ7vTtqlZ1ZMjpizPkKkNMQYjLQWAFNF4Dws1DGjvYradZZl5uSEGpZTquq7rWiSORuPRaNTHIHLO7ezstm1bVavLly/fvn37xRdfHI0L7zNECCFkWVYUxRDAECHGlFJcLBaffvrp06dPY0xE7M7Ozrz3RVGEELe3d15//bX33nvv9ddfv3nzpk2c8TbQuQ81729x9/HjR//4j//4d3/397//7PMYYj7OsywzzIWIWZaNx2NVHY/Hu7u7zjmzg01MN8z7JnM+GB/2qfPwMvvxa38LAMT247CuiIragVg1vAwAiEZWn4d5c0B1XYuknZ0L165dv379xmQyKYrcOR9jqKpKRJzzqhjamNI5jWz7cXAjiAqo5u4RFUCcc4oAqAgwMCQiHWMyXERVyrJU1dC2XYJr1Zm2NvwIAKPRKKb05d27ISWXuTwri7wsitymmplHoxGAubA0ZNtmWKpqvIX9ytBrXdUVVSHUKQkCGqMiEhGBiM0cY0wimuf51tbWaDSyP1RVYiLFIejGGFSR2HUFnaJkxyE2VV0dHx0z89bWZGtrCoAh1BbLNxHksNpmA5ZGm38kghjDclnVdRNjsEw3pqiqCOYPuhtFBGIw1+O9t2mxyD2UMzbNZnD9iGhzblvRioCTyeTChQvPUOh9mMQetPUWhefeLSUFbZu2ruuhJpVlGfbU/blVc7cWk8nEXkBE5WikCG1TxRglqaXbviMhYKB/7O6GOWzbtmkaC8b2pA14GPPwynNytZ8Z771doa5rC/8pJRDDMcZoEZAgKgAys3NMxFEg8340GlkukAZyEURTROjRP6ASqGpd11YqXa1WzFwUhfd+Z2dnM3gM62KQwjyviBCTRBXp+JUuw5HQNI3BPnPdxmwDwFDog54QyrJsb++yqMgAvwAUkRBTSjGlGCMTZVlWlAUjqViJh83/Nk2DAHmROeeaumnaZgC+A2mhogqKAEmlaeueADfEgwBYlqOmadbVOrZJRAlRScRGweyY2bGR4UWWkZkZMTCLFZwUeKN6+DVjNidSVdVAeQ5u04gHUSGiPsuCr/3hYBg24V/D2YOLFUUiBUIgYgIG9OxLn4EoonQAglQA2qSDewMAItdX1nqAKmj/I3XYOs9zm8+yLAekPgQdVbXkrS+fddA5xljXlSRomxBiSCmJimqSGAAQQYFYgZAIkbLMGWFBBI7ZeyYEB8DoBFEIFYiYERlVUJBQRVFRpQM1okkGeYAVnW3//tsyk2zUTwf/ZpsXAJqmqaqqbduUkqZo6yGggKpKgtQjeSHCyaicTrc8uVCt69VKASaTrWI0qts2hCTEQPRMIdsCXkqW4QAAM3nvzcr6V0KMqWnqum5WqyURhhCIuMgLc0Sr1bKq6u3t7bfffvu9H37vzp1vjEYjK1eFEPM8M6eKHdFFTdPUdb1er99///2f/exnH3/88WpVuRiTFSmKIn/nnbf/y3/5z6+++mpRFNpzA4OJ9Pu/q5SPRsVLL33j+o3rL33jm//tv/33Tz75xOCMcy7Pc1XN83wymeR5PhqNtrameZ4NKQL1JSLsK0+bu2XDnnDwJsPi4UZOtgEswPazWbgV4exi/4bJOFcJ9Bck57yqbG9vl2Vp1DGAVfJQBGJUUEXCoTjTURDdjwwokgRBVBDIgFw379oNqaNJAME7BugKcwMMYuKeaejhBmKrUFWVYYvLly/fuHFjdna2Wq/Zucxn5WhUFqWxss6xOZShnj04vrIsLfYws+GDuq7Pzs7qpo4hAFAngAAENCxv7EUH5gwyD3n81taWYyeSQIGZCTHFVDdNTInYpSSIkOdZnheq46KuJImBntFohIgxZuYmsK95DZEbERF5oA1swHnuVytpmqauKxGLDkLIzKQdVAPLQXobgIHUtVk3n2VIazO5h3/DZxiKt/2f53mWZWbGBruNJR5ofMM9doWU0mq1quua2TVNI8nwd4dCsiwfQOjgryV1tm3MjcX4PM8AlFBjjM6x8w47V0fY+9khszQ8ZEMagIXtJkMVG6wPWwIkkgaOymAN9IWJFFMIIc8LFRGBvkTVVT9FxaRFhExIjsA5V+S595nPMlUNKRIRA0hoEQnU6EI1vrcoitFoNKSn0+nUKMwN+1ebSfPIA6pQ1RhDXbXMvihyAGjbdrlchtgQcVGUFp/6EK5WerIdzUTsnPeZd04l5VnmRyMASCKgAoi2B1OStm2QqCiKIs9VO98LCqogKlmeE0FZFoS0cmuu2Xuf5Rn0wTP1hTNVresK1+CcTyk2TRtjJELDZIhIwNTVEQBESRjAWHoASUSoqKFp89yXRcHM7B37TPoKvdnbgGj/bQxDxKIoRuU4yzOzAUS0yNYTCNSVx626qYK9HzbLN1PcTNi6KwMhsYIoATFLEocp9z4jzhznziECOUaGNimwR+J+gxvbpESgCkbZDKqIql5VVWUurixL22IDDdDT5NK7+Y7vSSm1bRtCapq6bRpRkCgxdWoD08gAiCqAEKKACCCE0CSJAClzXBQZYzEejzPkGJM6BnaKqEApCiMjY+/whQFUxJFT0k1nOB6PjcsfbBj7FMWUItJpa0BVzaTNqu2bruTXSXoUiZBQevZPQVIbvKNRfuHKxb0L2zttVR09fjJfLovMT8tyXI6bkJoQBBEItbMSAIOSMUWMiCRJqKtDoXPeZh+JnFNEsjSsLEdEZFvJnElV1Xmev/TSSz/60Y++8+7bW1tTc6giYDoeK3FCV/i2gq8y097eRQA8Pj75/PO7TiTFGFer1bVr13/wgx+89dabiGSlFNqovGpHVBr7gVnGqhhjGo/K9977/uHh8d27d/f3901gaLNvW6j3p11KZ5VR7z2YGASAiCxbGhzNBghQAx8bT3bFVDTu6nwDoIISAiiJ4nDPX0MkiGgIEvu804y1bVsRsQtWVU3EISQroYUYRNSR7zOkzr1vAgskRVFF24FGXQCgtm0FFrHpnLEg5U2JByEi0Hq51k41hs457zyAqKS2adfr9Xw+n81mTV0zs/eZiDZNS8Sg6Fzy3gFkVVUNmqCBqcsyb/moiAxZ+P7+/tnZ2cHBgXMuzwvnyVDtMMkAyer0WZaZsmGxWFRVZdrSyXji2QECO0ZRRsycs2oFEcXYhhBiTHmWI1DmS3aEiE3bQB9rEc8hY++8BNEVRQmgy+XS7peZy3J0enqyv7+fUiqKHJEcZTbUfhFVFIi40+oiDrVP6DUT5vRNTAe9HGEzpOGGmtJiPBG1bWu4RFXtapbYtW2rqgMn1LZtVVUnJydVVXuXLZfLum4IkR0DgKhYgcwxMzpAAE1tCABq5lTX9XpdZZnP87yNNRNneU6M3jsRUYlR0JEjJuOQBvbORmI7yCak5wK7ZKDDTwiYknMlMYpACKGqq7ZpbU7Mj7RNG2NMkoq8RMciCUBT6hkOEIIkCSRB0ESkAFCnSpOOxyPvXJZljkhUAJSw06CkQcCrUI5G2hePOzzXawY3t+ewBGbGZh5t20wm21uTqUg6OTlZrVanp6dmGCqCpNDJCR2RJbUCql3O1oTQBgSanc0m49GoHGV57r3PnFPApGKl1MxnzOyQ2qaJyao8JCJJrLyORuO3KVT1umladJQhKmgyMARCRD7zdV1Vde19Nh6XTdOu1/V6XdkqeO9jTFZR7dwOapZ7k2Y0UmNUJnKe6qoOtcPJJC9yT8SZOHbknKVzwxQN3rLDhSkNPEoKQgWDoiRlJsNPgwjAmMmUUgxt3VRG48RebqI9RzFAih5YAAhEicDEqKFpwRGG9XK5vHb10nT7YpRkkpYI0Rd5n8N33C2z6YRMfH0uacK+BGPKyhhjCK3PMkIiIoOeRrYTsSqGEGIM5tDWyzrEYASG+S2rOiEqoTfLTaa9AJCUYmpFpK1XzmG2u11ujS5sjQl5Nlsik5IqcUyYUurKOF1S2pmxAHBPkwyZ2xDChjsa8njbmwPitx+tlLYZfRhVNCkSA4NCEhCFFJoYgoTIeQ4xFMy3Ll/a29k9unbtwcMHZ7NFs64oKxhRU1JEAqdKqgkNp3S5AUjUmKTzsoQxdJJYUiVmQhaBpmmMRCAiQgohnJ6e5bm/ffv5H/7wh2+99dbOzk7btim1faEAUrKiPwCoKa0tn2TGGzduvPHGm/fu3X/y5KmzPICZ79y58+abbxCdw8Z/G5W7ERAaSc5MISTn+J133rpz5869e/eapiGiGFNK0rahbWNK0bmORQkh2rzHGPM8n06nIQTc8DKDTffw85xssB8NRQAYEB6ggxX6VAEBTICNIudcBW5QfxZ+BjjSmwWoggh6n+VZAYrLxWq1XsXYhjYBoDEx/Qg3eAVm61dgpN6ngwAgdpURAEAayl+ACKiDWGhgDBGwY4MJKc8yJiRi7zPkar1YHxwcnJ6enp6dIRICtm1jmg8xyVySXrDZKeqtNJBSWiya2WwWY9zbu3j79u0sy/b39/f3909PT5umyfMcEVJMkOXMrhMvncsDO0qzc9gpVVW1Xq2ODo/yLNuaTIo8N97CMYMYGFYitnCFXUaepE0xBMTuHi2Vsusb+gGApmmyjKqqqutqPp8j4oULF9q2PT4+Ojs7CyEwM6FloJnZz4ApsWeqTJ4FCuY6za6Wy6X53IF4GPJjelZ9PRRBBzu01xiwsGzDkpUQguXfBmLm87kV0VfLKsagqsjO5rBHw7bYQ64GhtsAzM+mtpUQm+VSVWW6NZ1sb6HzKbSqIAoRkvlNo2EHHnHQdsEg7SSnPdNmAzCIIwLtqq7qqqkbwxDr9dpksDFGNWE0oGHrIZx0I1dCIjaFmnYK2xTjsp1V1XI2OxuPRsVolHnPoBIFQI1fSSEKiM9yEA2hHcBZ0zSAOCpL2KhJD1tygIPG7V+8ePHq1euE/Pjxo6qqVquV6dUBgL2DvmnLJts8BxOmlKqqqusAKQJiVa3XizN2fms8vrCzy5MtYFaANkRVsBy9aUN302jNNWgxBQAAOEZWVVAiZIlaVTUhOe8dM5sB1y0i7+xsm3HWdbNer6qqshtMUUydNERTESAEZMfKIbUhBZEEitK0s/k8NfWVq1eKzCMCMqSeOzZ6bMjHNmN/F/9E0Z+nWwMWsVEZxMlcZs80bVNXVdM0thMHzPo1hhjA2lHEOZdAm7qRGMK6jeuVNutpwdcuXphuT6q2iYJAbr5aK7DpmXpnwkaF9lXLgWxGFUBEFVAlBEWktg5E5LxLqen8PhI4EUlmAHVl0Vr7dadho/VYNhnUxE7Cq+BcLgwQFu26WS9j7graKzxuT7cd4qyqZ6tlAmQuEMl0WOz4fE5VcQNDDEEqbTQiDCHMHFq/ymIpa4zRCny2Ct3eZAZJRA6JFMBEIkSsgBCTtnXV1sdP9Mr2OHvxhQtb44vb37h4Yfc3H3z02edfNKJFucWZc8g2rwBIiggCimIy/F6PvxFSYTCXGGMMqXN61lMCimiC7uLFF++8/vrrOzs7MUaRFEJriRYAEg2VVrQE3/JYooKZrl279tprr/7mN79xRs5cuHDh5Ze/efPmjV5afF743MztjNGKUQDQ+rbs6/b2zu3bL+7s/Hq1Ws/nC8sOU1fp6fTXpjgedkKe57u7u8Z4m44B+my7adqUArMj4kE20S/hUJEx8H4ONXplXjd7Jq483xvnws9z7VIPSpSIjQE2SIQoIUTzA/Y84rkATUWlF9WzMACQQurexUiVrhRDBIjQt5YasFAENzjTQWlhIxEAAkRVQsTMt7EFlSzLnPOIiECStGezNUZLCxMAEwli17NqMpcYU4zh/v37Z2dn0+n01q3nRqPR6enp559//vjxk6qqiqLY2trKskyS5EXuHAGClfAtMxbTqWLXXysAKUZNUlVV1dQEGOoGiUajERpUZ9aueN2VFUwKEGNM0cTkXRoaQszzjtlW1SzL8jxT1adPn5yennrvn3vuub29vcPDw4cPH5pGL8/zPCus/jhEU7U57tq99NxO5XwXxRiLorBqhVXlhrvTvgY3IIzNHdhXZ9DG2TNwHQi2Qmld1+YmrDasUjt3nm0PbnoDH2/GTlQVQCVGK0bkWVZXzeHhwdnp0e7O7mhcbm1NiV1MGns93TC8Po8aYLEoIPeJqSRlQtPDI/BivpidnVV15b0v8rLIi5SSagohgfUrEVl/je2JzpINQJOY5kdENXWbDBEIVEI8Pj15VFWTra0b16/vbu8QoyS1OSnyvE0xhuCcCyHGmAyYiSoxpywDGBisc2CBPU+5WCzG4/H29tbOzs7pydlyuaqqCgCm02lZljFGa00CAMDUt4yJSPSeJCkRAWJq2xTC7OTYMed5niPoZAwSuqYHRFDoBcXWrQe9DXVN1JISgBIxdDODklQkiqiPAgqIWNc1KOxd3Lt85RIRPnr0eLFYLhbL83rThk7ZUmEkBGAmUlTkHBPE0IKk2fysrdYO1APtbE0E0tHpWR0E89I7Z/jAGr5sugyuGYAYoqCFKJvV1PcCWBQ0ZsK+ShLpe442KX3pa2qD61QVFXAZMzuISp6qtmmrlZN2eXbarubXLl/cmoxPVqvV2eL45GQ8npqSpk/WtcjL3lDP6ywI2Kd2gIpq+mBiQoohqaZO0xPDclWnFLUrzjpVcK7z9cM+1U64bY3/gEjouk5sUmWG1WIFKWaicbWM1aJ0l7fH4/l8uVzM9g8OE9Jka6ccTTImYBqwmvaFe3i2QmTRFM9z1G7eUjLU3rXmWUKyKeg+d/5EMXYZl6goABMpSFlkJVODqV3Nwwqa09MHn3/WzOcXr11t2riu1ovlct2GHaRJtmtUvfXAAHdeZqMb+jyCD8BIRHpDCtA5JSR0QwXAyg5ZlgFKDCHGsF6vY0x5nqmKEXiWF9l9SC9edo7yPB+NJpPJxFmtoa/JkZXZhno/PPOwLYfUE/spaYwpy3g2Wx4dHRklaxDS0PrwGC7RAxQyBYaVw03jCX1Cs1gsLRFPqZfHb3xFxJQGDV23V3WjxDUY2bMPULXxp41Bqar1pQuSqGhoU4yJ2RltGwJFFpGQksUDA2xKqohK3NX1MSmKEPYSUZOykRqOoI0mFOtcgq4YCPLMEQVk3egRY0zJJZM7mPSGoO9n6TenFXHYBOwxJgABIEvmQgir1Wq5XD569Kiu6yzLVqvV3bt3Hz58+Nlnn63XVVHk0+lWWZZG+xueICJ26L3zvg+9Br0RHTufeUJyzHVVn52crlbLk9NTFdnd3d3e3vZZ7otR3dS9+ULbtibsVzUpfm/1fVDsFQCWbeDx8ekXX3xxcnJy7do124qr1WqxWDZtMyrG3hU+8wYa+rJ65/Sg69QJeT8AACAASURBVMwG6rjWbodb3B2Px3Vdz2azpmm2t7dN3TbQvyKyWZHZjNzGc5hHsO2Q57lVT6uqms/nRiNtbW1dvXq1KIpqXaUklsQOCg/YOGhk+OqdVzS5iKoyqDIpKDGiI2yqenG2jG1z5eqVvZ1t8o4YcWMYw3UGeGTcBypID5SZO4W1hZn5fPb4yeO6ri9c2C3LUVGWMUVEBUhEEQCsodouhWj1Vzz3/6BGMgMBgTICI7cxLuZnp8fHIqn0rq3WbZGX4wkwNW1b1bX3ngBiiuCIUNlCsyZmV5S5Ic5NMCEixn6vVquDg4PFYrG3t3d6euZdub9/cHR0BIDj8WQ0Gud5FvsjdlRVwSMYO4jMICLKkZhRYZ1SbJsyz5uqiqo4naBIs1pWbWgVt3Z2s7y0vg/nMssGdKNHSVSCCMREFA1dERGgWhxHhKqSpmmOjo5UtSiK7OYNBVmvV7PZbGjF116z0mMLACAEUwkhEjrHrFhraqtaJYamiU09KYvd6eTo+Gj/4cNlkPHOhen29mg06puzOif2Na53IyPtOPkhFlqYb5pmuVxa9qiQzA8P23Cw0q+5a+e9pi6PIaLMOc199DyiYmuUswbUliBbzc4ePdk/ma1jNCNkZlZB0LQ5TvvfuDHslYqACmCnJDEAaFTToqaU1qvm6f6TNrbTyXZRFEXhAYGJrXSCaBi9U+4TsXaE5dBAGzGG3PmjxSI2q91JcXlv58rWVqEwOz56/Ojh/Qf3D45PXTF2Pt/a2ra8Gvu2cwCQjex6iEHD7QyZg/bNycfHxyKS57kRpYhoFRDq1VGdV1R13oNqUmFil3kmSjF4oqauWeXa3sXrF3YvTyero8OPnjyCz8brurn34OH+8awOcV5X19lt7+ypJGVUBTF9CSpu9OBQL2UbJv/cSrrvadBlI6JzLsZwfHx8cnoEcMf7LMaQ59lk4r13NhOblgww3B0iYghpdjZbr9cupei9r+v6yy+/fPp0//LlvQ0k8UwE7ktP9gyGkGKMFoA//fTTTz75RESm0+mmJx2WgTZBVD+zVoIakBT2BzGF0DZNk5IMDSlfA1/DMz3g0K/9CgAtuNiTgzawZzgGRqvTY6aUVASs3cjKF+RUg/Eiw0blriWFzM/a9U0UxTioJhDIcjqT6XZHWHRiC0RnDQv/f51gBOc1yL5FczACGQIedsVLJGIiBlTjMKwxpK7r+Xx+cnIym80sui+Xyy+++CKEMJ/Pm6bJ82w63RqPxzaAobWSiJ1Hx0zMANA1W3ZTpiLCjohoMh5DkhBaIgoxqmqe56PJVlLg2EULIuq1ycnqnNQpXjtBaOrPw8mybL1ez+ezx4/3T09PQwjWxvzkyZPZbJZSzLPcZ5l33qSObWy1r3uZTXW8Illg7ZDBZr1gNpvVdb2zs3Pt2rXxeNw0TTeTxrb1JMTwdXDKxBx6rsIkyc65tm1Xq9XZ2dnJycl8Pmfmuq5TilXVGBQf3MfmY9hOXS0GxYqDSSJIzwOArNfLar0cj0Yv3Lo13d6OoZ3PFsDZoB4d7Jw2WqUABBERUCQNb207ziCmjdZwXlGUgB2dzkwADJ2ZdgG1lzHZKXDad/pZSkQqCVVjE05ODhfz+dZWefv529s727Ozs3tf3s2K0eWr14q8SIgxRtPvi539BWpkHxH6zDF1Ql3sRRVminVdHx8fP3z40PiJr766d3a6WK+rqqoM2GWZN7QtXSXf2ApQECJwjtu2UQDvHOZZaFy9VhApcn/t8uVv3HnRO35w7/5X9x82wJdu3Lx85ZpB6p6iIzJe2Tgb6WvWkoxdpD6NsXler9enp6cHBwcpplE5yotcNB4cHLRtm2VZUeRMWYypr7/pcMsKRKBiBwCyCe7aar1q6mpve/r2G2++8/Ybi/niq7t3Hz+4XwPlVa0Alkda9Oq9ROdD+pIA9RG284TEbHVic63z+fz4+NhovMnWyKx6I1ScGyr2jh5USFMCUAUllCjzs/ni6ACa1c0b17710ot7u7uxbfaP97/46v7D/eNZFas6SIre+8lk4r1DjKax2whnMOQH/S1AX+zWIQanlBaLxf7+/vHxCZIiMADmeW5dtf0WwI0rdxmauWUyGCgaU1quV8165VFuXb3y3rtvX7t68cn+wYe///KrL+8+fHK4CuCbmJUj74vd7b2s13nYUTkpRlSlvmNzM1oNu9sW1xRXi8XC3Mgg8JT+4JZhqo1cYujYoC6BJCLUxenp0eMnlybF62/+4RvfenmcZ+v52W8+v/vh5589OTqeL0NUaBWE56PF3BUj751jZxOa1OhMO3dA+iNPznvIN2deTZbbn+pgN+J9VlXVxx9//Itf/OL2i7dv3bzh/XT4U4NxRnLoeeGsU2lUVf357+9+9NvfHh0fuaG48Nlnn/3TP/3Tn/3Zv9/Z2RlK0fDsow+opKres/esqp9++vv/8T/+r9lstpFCiffeOvifDZ8dlZ1lWQjh5ORk04jp2cMZza/1QKF7/81dPTxExPSAG49zZQ0AhGCpXveyHjQbrFAABSXYuFlVNY50UEGKBmtbYnYbHeyqmgDRETnlXlw6nKOmXW9xEiVEJEAg1Dx7Rr9i38S2JQMgCgiCmqwz2dJI6s6YUztKC8koGSImZoxRACDLMvPLJycnZ2dns9nMfLGxoAcHBzbDdkxqnheZz7lrnkCD9szsHAFAEkEAZjZAYTMcQ5tSSjE5ZgOjN6/fKMrCORfa9unTpyFpOSo788Uu84iWvCAAACGo2mR0J9Cp6mw2Oz4+Ojk5PT09sypMjPHg4CCECCCjcozIzjG7rqWiIyf7YE39aa3dXEISUdtR9nozy9u3b7/66qtbW1tffPHFJ598gohGtJg20woNnXVaJNFOv2MbnpgM2bRtODk5PT4+WiwWbRvKokTEs7OzzGc+y/I8d95513W6GiOzCYIHexaNSASQNEBKCioECqIS45VLl77zzjuvfPPl+/fv/+pX//rFwyfl1vbNmzd3d3ftYCjsy8mDLwAQo/FVYOgbMBy2Xq8PDg5Wq5W9b4xxuVymFHzm2U6P6kh1O3pEu++fpVjMExIBiIbYpDYslotqtXzh1q3v/+B7b3z79cOjg7/9m7+5d+8rRb+um+eee24ymZiYg5mTHQ2pInbuEGJso8s9IiCR6xtYAKBt25OTk+Pj47Zti6JAxKOjo8ViVRYjQ3XW9tblu2InU9joVECINKkkSQDgCcG7zHvHLsuyb37j9g/f+/7t5577/Hef/v6Tj/efHlYAi7qNbbx+42YxKlNMCtB3tCAQggIBkETzF2S+S1X76LJerw1chhAA4eDwoA1tlrsQgkF862uxW+4hOoqIsW4AgIIKGpMRzjE0zXQ8+eMffP+//qf/fOHChb/58Y+P9p8u5usGYVYHS7QuXrw49CaY0gg2yoGdc0Pt2gSsTIwgkuq6NhZzIIosPDMz9BBycICDudrejU1lvyQiEF3MF3VV3bq4993vvP1Hb7/pmD76+NP3P/ro/v37Z2tpFGI6AlV2DhGLvLS0ZCOMnNcEhx2BVnDph+CcE5Hlcmn9a6PR2DmX+WwI4aYGdf1eO8dtAEDIziuoirRtSG3QEJ4+eqhtc+f2rfe+++6P/vSPJ0X2y/ff/9mvP5idzpoAANC24fDwcLWqw/V04cLeqLQutqRgMg0cio9IXdNQL+1SYwdNBdK2zXg8NujWH5rXqVs2h6odQx8BGFOSvqSJqqkN00n5B9/65rtvv/XOa38wdvTw/v1PHz48mp8czQMhAEFKsKxWTw7265j2LuztbO+wY5UOMhAMh4wp9Odu9c90+MDGwNxFQxGr/muWeSI4Ojr6l5/+y9WrV7/3ve/u7u6qJnOz2hMVVhNISWLsKlYnx2e/+93vfv7zn7//61/PZ/NOHO6cOzw4/MlPfjKdbr322mtXrly1GPM1U7MvKUnbRmZcr6tf/OIX/88//OPPf/5zQz3p2UMU9NmHdT9R33dnfKb2aSL1rerYH9IHXRGuU4yaQxky1L5QrRZFYKNSiH1i0ZdUjMbrLVgUlKzFRrtGDEoinaocEnaneXbHBiMhStcIToje0i9JooIijISYCIUVOSkpQAJQASIlVCZ0rF2/KoKKT4qYQNF4a0EEAtE+nQfLuyGJABEgJ4H+dsDOHWJiBWU20CikQJ6n06ltxadPnyyXK5vSsiz6o5GT91meZwAoJncHKHzOrkttDVYgsVkZkg6EhGMGINCUojBoVa8ODw6SxCvPv3DlyuXDw/2PPvnwwYOHFy5evHnr+d3dnU6FgyTa0f3duhitKCoqZqOLxeLg4ODo6Lhtm7aNZVl654fjyxzneVESMgIwMCkxMAJZIbZTbDCbc7RTj5ISkxICQEoiqiHP3PUrl1597bVvvfLy0fHhL4+ePPjicwCBW8/tTcdFNmnbRsgOQEtApECCHUzVIe1DE6BBta7ns8VivmqbmPm8KMssy1KK4LkoRozI1J3eY4dEdaaI2B0efV7vFFBFdqAQkqaoqBDq6uLOzvfeffc//G8/8o4/+/jXd3//u/vH893J6d50cmE6JWICtDCQAFS6xlER5a5h2Cg3sXpNCGGxWMxmM0Tc2tpSVV9k7Fx/rEuXqfQbyE6XUiI3EOMKAJrsCAFEBISY2tC2WtfXdvf+9z/5k//0H//jtatX/u9/+Ju0OmvbyBRPD59OyqJ0nrwXVGAmSUCIYscqESGKITlFspNfzOhBF4vF6elp27bb29vT6dTUQiklX2SjciQq5K37AxG7ngOLqWoFe9AUozoMoRVEYiHEkedbL93+4ff+6D/82Z9vTUb79++FamUJx/zs5DD32ztbWZmpIpJTUJWu4YsQFJD7Bi7zpHDuyjCmFEJg5y5duczsVKVNMTWQZbkjNIUvk7qMU4zWT2imIDiQN2xxEoPkilOfv/rKnR/96R9/541Xjw72M6j3Rm6W01EjoW1Oj45yz87hZLJNdoZeL4Tp4LbtLo3ScWAoRrgiAmjV1HXTItJoPHGOiqJw3gGgpHQu/dD+QLRNnw9I5AFEY0yxkqYae3ruuZvf+fYrf/7v3nv7299erpaPnz6OTdOuhRBKz3XbHB/sS4yQ9OKlS3kxIjIn3AEDBfuIBEESQBxYWuO3EAmQQgyruo6i093djJ3JBrvT8k1K3OXaCNYqL91BMtDzeW3dxBg0Rla5/fzNi9Pyve++8+c//O43b986OzlyGjC1BGHsETIKSddVlaIcZYfMzvXH7PYBqys1gABadgeEYEe1dC2jSSGKRNFROUpJjGWMKSISO1Y5P6dcz/0AKVpbaKsiAMII1y5fuH39W99/641vf+vFKxfHLO0XzVlbzxzCdknT3W1B3j8+W9VxdnIS2ujQFVkxGpfYnV9sLp06dp24387DkoJuSGht8VMS6+xlZu95va6+uvfVj3/843v3vrp588bW1sSidF94MtCKiF0dGRQfP378299+/NVXXz1+/Eg0ORGxhhNF/fjjTw4PD19//Y1vvfLK5StXvaNOum4wByjGWFX1er1aLlfr9erRo0cffvjh/fv3nfOWUiCiFRfH4/FiMY8xpJQQS7OnQThp0MHqJnboskEN7g/zsbM3mqZdLdcAOh5PylEBAKqJyI4olw4PSiIiSTJgGpMy2bkrJse1GRQRZtdWzWq1jikRkKgkFWUQFYWIBM5TljvnKEnKPLdNaiSoKqpDRFRgBZ+AIGEKmCKmhABKElFYKWvF10KNqQcxOecmI56MwbFgUkFAEFkjAmknVFEkJRIBYEigSRWYBDABIlCMCkg+L4i9AsWUAKHIvQI4ZtTESr7IslEBKg8f3n/06PG9e/ec49Fo3OsZwTmX5+Ms81Y6CW0iBYeIIqOsHI1GVYjoHZBLigpi9h+6ogYCkIpKApUY1m3T1ghwaXf3ws5kNT/+7Qe//PTjDwHx6oWRk3UGYxBJgsouRWmahjx7INNmISRGRfYhhKdPn1rja123WZZnmVfQshxPJpNzwgyZkD07j5Qk1VWtsUEGl3X1S+YOewOiIkuKzmHuPYhW1TI21fbW+N23//DVV1+t1ovf/PKnH/3qZ5zi3u7k2u7k8nQsTmOTPHFSRXKKyboakL1hrA5yUaaiZ/P5gwcPDg+PQghFke9emLLnsijJOVR13ucuIyRVNR7VaHrt6Horilk8VUdMKkxF7rGC1bpdSgiXdnb/8NXXvv/u25e2yp/97Ke/+uk/Lk7nt6bF5WsXd0Ze20pUs7wUxYQJJK2rVdM0oOSdI/QGua3B1ZiJ1WplDTVZlvkiz7xHJibnmIqsAOnOp0+axHThbB/SUTjnsKtCqoRapW1CDCLIFFJsm/r5qzf+5Dvv/B9/8RcvXb365Vd3P/vXn6+Pnl7OGYp8uj2RuprPZpPdC4gMyIoSJVq1opUmiz6lBMlE64Cqzbpar6vVaplUUHR3ujPdmRZFljTFpKPxVl6W5LjICrKDEREAFVA1KQE575kdAoY2qjqHvAq187lgLPPs5VuvvPfmW29+65WLefb44YNHd3+PGi/tlJj7Zd2sV7N79+6KynhrN8sJgBUJFUgNAIsnm1LQlLCXQFZ1nSQlkXI8yqEDbUFiXpQxgaQQQpsUnc+YmZwjJlt/AFBCRocIVnRySO165Z1sX5rc+c7b//4H33nhuRsPPv/wd5/8VtaH3/7mrVfu3Prwq6eP5u2yqo8P9wH14uWr5XhUjEaceRVB1dBYEcepqB1WSs5J1+tDoto2IUT1WTbZmhrP5b2LMQgIAtF5Kbb7bJqBrOpSNJ+HNiJIqtacmrdf/sZ333jtrddefvXlO7nTh6eHy9ksY7h9cyq+mAU4OZ2vlvX87NQTZy67eCnPfVHFKqYWEVVT0kRMURsgRSSBJCKOvc98EpUodR2qqooCvhhlWeaJySp0AGKHoSEDqykHAZI5LccoimLHe9t/KiCBSN966w//9L3vvvPaK9uFW85PPvv4g88+/SCl6s6dm+OtnUXV3nvw+MnRMsa4WJ5lWVEUxWQyRXSISZIS9jVhAYpIgI7t/DEU1KppmhQEgfIiZ18WhSJqkiiigIAE2LFhiNKVGJOCCiALWLu8q+tlgnT14t6r37z9vTe//epLz++Nsnpx+vDL331x9/3l2f6Fsrhz6+pzt19ctfKb33762VcPk0Co6tOT49xnTHaIUVKVLDP/aaiCDWT05BANvzIpFSJblwP2H5vgnBuPqW7WH3zwwRdffLGzs721NQHAvgLQnaBAXZsBELGdjbRcLlNKeV5kObshzGdZ1jbh8cOnTx7/9V//+K+Hw7YAYABlulFcXK1WFra9z3Z2JtJr1AeNxcAd6Xn1DjePRLRDUWT4cAFnwU67pIR4Oa/qqiGi6fZ0Ot0SMbWdnV9bO+eYiRiIXIpda40dBoWIeZ6bJrEoCqvlGwd4djIPSeJ6lax4DCrWlNVzckTMjhioqVFRyQ6pQFFEUABJyY7uTwlSohQIBFGdqE+aBS1acFExYVJt6hoFKClmmTpGYmSMKoJAoAikRAKaWAghqULfl9ofawlI54mvacdERFKyrs7oYpZlzjMBHBwcPHjw8Pj4eDh6SBWsGmKVVDvYlYidl9A2xFiUPiu8y9xWka/bkFSQHSiiIHSfxyQpqWIiICaXJNShqVfV3oWda9cvn56efvLxRx999MHu9vSH73335ZdeOpsvjo5nTVNhVhBAoCGrIFAQSYRASGVZnp6eHh0dWTXa+yzLMmbyzpsdbggIUFRFpU1RkoomZgRGx8RM5IipO8vAmF9iZ3X9lCKk6Ahv3ri2Pd06OXz6q1/98uc//WeN8vqrd/7dD3+4vb177+Hjrx48BJf7vED2jA61BVUGckwImFJ07PO8UMXVcnV8fHx4eDSbzcuyzHwBSp6ddx4IPXOeF4TIxMbvmre2wrGqdSDIufA2dce/iogkZSQhvHb1xsvf/GZZFP/rn//X//yf/+dsPnvrjdtvvvWd3b1rX3x5//OvHhSj7ck2oHPkWCUZn06qaDGKUTYk34vFoqrWzvmyKHyW5XZIa9cmhoiKjkgwpe6jaog5qfWeJBFkQ70qnj0gRtGAab1aV1U93Z68/uqr7777TpbRz//lJ//805/cv//5Ky+/8O6lS5BtPXp6sn9wfHp22oju7F3y7FJsiMhO4ZQo0UcRiEmISAGS6tl8vloum7Z13md5XpRFnueAQsqFJ+fIEZqGFUEUQUWwd2+d5ktEAYm4yDgCT2DUNPV8dnJtd/rG66//4I/evbw9/fj9D378t3/9+e8+uf38c6+9tXtWh/uPnj588rRarfYP9i8I3by5HcXINkyidi4eoVWoEvcf39A0jZWWRpPJdHcrxGR6dacOFOzTwpiYHdnniqlInnVOTzpOFADAFwUpaFR1bvfChZdffO4Hf/TWD95549GDz3/+i59+/NEHufdvv/3G1vbepbsP/+Wju//6wYfmvsHx9fwGM0dRIgTt9PKKggTEnOUegEIUREyqMYS6aUiV2GXOkxFeoj7zokJqVABYSzn2RTQa2llRRYHYawgxxOtXr37/e9/7iz95784LNyiuf/Ob9//fn/zkk08+zYvirTsvbV++fv/g9Je/er9ePwHV1Wp1cnpWlqPRZNtKt5K6g5UsqIAqEXrv8yI3lOB9XsV6tVo1TcueM+8BkRAyx+QyAo0SjaVTg+uICHYOYZeRIqCkxEzO+XVahND6Mrt187mXX37l1nPPh2px78vPf/3+h5/87vPJdPdbL7186/nbv//y3mLVHp2tmyaJaBvqxWqJzGVeErGkmCRhJ7hUIAQkIARiRJUURSSmaCeDOs9FXmgSYTtqfuiEsnbzrp8R+gIAITORoMY2gCZmuHrlyvMvPH/79gs5psf1om7bZV2JwqXLV//g9Te/8dLLT45O9o/nB8ez+boShbZtl6tFVvjJeOI8E+Z9SnmuMNXzmsg5cARQIyr67n0TAEHTtMxUlmUI4ezs9OTkOMscItvHhHXXVBDpjpIyzQARj0ajnZ3/j6w3f7Ysu8rE1rD3Pufc6Q2ZWVmlKlSSkBASAiQ6TCOwDHRjwEC33RHuiPZ/558cxg3dDjCNbUxDdzNooiipSqWh5jErxzfce8+w915r+Yd17s0n9YuoisyX77533j1n773Wt77hdLFocxnD8eBvUsMUJswO4m23W7vhQ3y4ODjaBzkycXp66sqio/ffsao4vurmh5vtA8A0TRcXF3RDYH1UqPuwjShM0zhNUwhc61RKUoVpGmot0zT6FLZpmtQEp3rggfvptK+j2oUOqge/AAV1cxswcwDN4VZ/T+mQoQAAxIQEMNtuzlJSUUVTEAVVrEKqYMpqQaQRYDHKhlVZkYCsFnREsqmQIscATBBA5+qbgAgwmMF8EJGBU60QjXA+k2YToAOnQ0RqJVIASykpWC2lH4aLy8sQwtnZmYg8fvzY/bLM7OiFemRpKShHim1olrFbdm3TqEGuaioqddawAJnJHIwzI2agZv2+J4Llcnl9ff3Wm68/vnjyhS9+8Z/95q//we/9zmrV/sNL//i3f/eNsh1YfLKMqgIWiChwAHJvOej73l0KTk9P9vs+51JrSWnRpCbGdJBUmKoRE4HVXKUWq2qgMQUMHCOFGJKbSxowoJoiqCESuPhSEIyJap4+eO8dRnz08OHZ5uSffOXLf/B7/+JX/ptfvv/xg8dP/u/rqy3yeHIeF+2yqpN+7eAQra5uVgWpdRwnj1FomrZpWw7UNCHF6I5LzCGk2THQ1BCAw2yOORsGAuhM2jYw1JluDACATBQDkYnqm++8/fqPvv/xxx9ySr/5z3/rN3/zNz79mc99/PDJex98fP/+Aw7Xp8N0+9lnu5TKUMA8nmMGJYlIzExmkZvNW3ZYLJdOXokhELOBUxGNGA1NaxUrACSqTHxkcXmrquDmn9ggEljOmQK2XUuRL3eX26v73/7G37z55o9++vOf/rVf/9XnPvXZt99/8id/+uc/eOOtbZ9PDdvNCaUIQC7FAgMydB0TMDEHqzXnMuYpS5lK5hSX69VqtQKzqYyMgIBNTMvUOBFvNiaAOVYKAN3O0d02wKxpw63N6ZMre/+DJ+N+L+uulAkJn1xevvzad1/9/itt2/78L3xpeev2R4+v+qwfP3wyjMMwjJeXT1LTnKzPQwhqKFpFBME8xOG4oQXm4sTznNumjRSIoaoGQiauoiCiUq0U89kuESPNtBsDNVE4AM5NAhVghMLEGJt4+5lb1IRutdzcuh0WSzHrNifr81vrJz3Q27UIczCwcei3u11omti0hAxkN3ZpCinE1JiiWjFAy2UaRskZAAJhROBA7rQjqsfdmYnwYCUHh9risOegqO+PJIAAZBRit0iLVdnXqrbdDsNU1yfnn/v8z935xIsjfG+xXDYpAcVS6+XFRZPSHaKQIiHbHNwIYkrIogKEIYSQEqgVkH7fj+NoJjFSDBwDgRmqQFZQA6ZAwEwW0Fk7TipBEgMABUQghdn9jICJC4Wq9sM33vzMp35qtWjv3jo9uf3c8ux2XJw0m/NmsVptzs5uDaFpq8HJ6QlzO43ZB4iRY5OSoIemzA3CPDcioABmOI553/e1FoohJg7MMvQ+AJ55CcyiIiLm1gNGpgoEakbIKmKmKablcjWN/W4/vPX2u598/rkXX/jEC8+cnT/7wsmDB+tbH3J7ZZIwxN04XW33VYRjalssYq6lTykFDgtuOAY39sUbBlE0xxb+2ATEZ7JHsxMfKYiomzSGOBsQT9NYazbzGKzjSeSnEiCiAwTeHxKRa6aCnz3zPMmMiNq2TSkuFgv4cbnpzfrgaCCNSPw0VQuOQ40bZdGPvRYOo11vquBAjHBv1+Vy6Q5lIYSYWlFpmmgIfd/nXERqKVlEPDbCvzJOxBxNj1Z92e2MPB3DSUB93x/XzH4/5pxpbsh+zBbpgPzBodhyhoUaKYJ3P5t2xQAAIABJREFUoAYevasGVUiUFMggFlmINoBQVKZqVZA4YQiGVooH45Cpy0ujkiEpmrGJGjKYIUT0eniOw/GrmovIwwjyUAA5b4sO6WJPLq92/X61Wn3us59Fotdff91NsTx/pGma5XLp3uoiMuXRaiHSWsfdVgJBk1gUmiZAwWmaFMBTg51zZEQGJiY112macp4Q8P7DB0N//fjJxa3zW3/wL37/X/2r//FTn3uxf/LRy6/+47a/Hqd+mVoOqIqr1bKKllIQMFHkgKp6cXVBRJ/85CdV7cMPP3z//Q/MxWkHJtkR1hqnYcxjGacyZQJKMbZtxyl4wkJwpy01NHNnLwE1qSrVpCIqE3zw7ntvv/7Drm1feP7ZX/nX//qrX/2nX/nyV+okL7/0nXsffZzHCYMQUqQgUtAUAU2k5qlOuWlTlTpeX03D1Pd7M1guli5CIMS2aYkwEC2aFsBqmcaa1QxUQ4gtdiFEQvUgFpcxAtghptpUFRQBjGMAUxT86ON777z9Zhn3n/70J3/rd37nq7/6K5/9mc9eX+/+7lsvf+eVV6+ut+uTWGudxmygRws/H6iamYco52maxklEVqsVwFJEmpToSEsyE1XTWkpBJ3uCJQ5IpGIhRA7BWyinmAZDq1JVgIkImrZVKVPNb73zZumvMA8P73/w4s986nf/p9/7ha/8/PWgL//wvfc++uj+o8fAKQ1D3/dN1zZNKjW7exsy80HTNEqptXCgF198sR+GDz/8sN7wS22oRYBhGHTKQNFgdkExMBeSIaCCHbOQDSwwIuh+d0UAm9Xi6pF+fP/eK698p1V9/s4tEX3u+Re4ie1iAWC7fb/v+zJlf/04jpcXl22zXIRACAKm5ucu+LJGwKZJm9PTRSk5F6mVzMo4cgjRELIUybUWIAxmhFABGCzFwDE2TQRDNVBzdhSHQBio5hJS1DZur65ff/P1v/tGt9ksPv+FL6xOV9SEDz788LIfH2/fffOdD+4/eBRTWm/W1DQKdnV1ZYB3n30WAhMx4ZyNYAohRARGMiY2taGUod/HECOFxBxMrQiollpD2wQOhqgmKqpurIGoB7HcvOeoIXMIoCoUmgePL/7uG99adW0bvvbip1746Z/9hS989Ojxbrzup6ttn+/de/zkEpGWbsFSVBS3u11smvVm3bQtMwOaKpgIeWr0QYelCGI61aloMVAEYFA2JWKrk+uzDCA2KTUNN4kQqjND1GaCJc1x4QhWawGz1LaIWHP/0j9+p4yDSPntf/YbL3z2Z37xV/7bDy6uv/OD1x/neu/R9b0Hj3bDdH7rDnAwpVxlHMfdbtc1XQzsfClFMDo8aggKRm5aPfQ5T8QckYIRV625qFRDpibFtkFCQ6xelRjZnOZ3ME0UE6kp8vpkgyCPn1x9/dsvSSnLRbv+2ldPn/upuxdXi9ffs/DexdX21dd+8OqP3rra7i+ut8ShaWM0860g52mchhiZWVzqZQdWxeEUPjaJ9vSIQz1+BhE9RpFDcI/BGEPXdSHwfq8hpK5bHE5JJ4GiiqpC08zukZ4xICKljv53F78YAehBm+l7C9ywnbpZOhwPOZ3teuxmDXHTCOtYT/hrHTkQka7r3CWp1uoBFj5YcYcyb7DatDjZrIuWafB+0TdTOkgY5vDWWtV0lkU4fOLlhX+BGxn5hRH5VIkOfF0ReaqxPhZDbvgBNyZ1LiB9SuNSIbVgwGJBLRZoqiZix75AhYgDAyuIKEG1YKbkBwwIKIIgiSkyGIIxmQmoM4FmdpIiuO3JDFrduEIvRelgMXu9va61fvbLX/7CF76w3W7feecdf7c9g67ruvbwkXPOZTStksd+GGqerterTzz/QtMtm24VGAqiigIpmIGqB0+BYi55nKZpHBFRity7f3/q92Z2fuuZn/u5n//0Z36631/+w3de/uY/fOvNd98EbJeb2xxjmSTGUCWbgQc3TMO422+HYTw/P3n++eeJeBynBw8eegHUNA1HJj7Eapjsd9e77YXUaqXG0CRaBmoCASAEQq8rCM3UiMjIQEzMTMVUGUHNPr5/f+x3MfJPffL5r33ta1/96q/sttu//qv/9Ed/9O++9/0fhNSuT89SSrlmFXPDRRCppUqp1LVVdbfbX15cTGMOIcYYXRcQmCMHIg2EAa3kvN9dbvdbnxmmprX1ZrlYcIhm6hw6NPBNFA4aOVVFRgoBwEjo0f37+8uLiLg5Pf/qr33tl371n148+Piv/8vf/ul/+LMfvfHG6entxXKFHPI0FcnEDoIj2awNkUPFOQwDM202Z0TU9/1BjeDTPINSreTLq8eGSoghptVq06YGkBgZMBgA2tMNx0OCRa2qxBjjerO7ePz6u2+9/86bzz1z+nOf/+nf/b3//ld//VfvP77/F//5P/3J//XXb7z7tgIuF8sidbvfbk5PYhvJ3MJt1r74/jCOIyDdffbOF7/ws9eXV3nK9+59ZKpg4Lv5NOVx1+8fXVxTiKlZrzfLzSqmBgj8TT2MQRRFkMGQyjTuhn2FggSr9fLy4YN/ePnl117+7m//+n/3T37xy5/6/Ofeef/d7/3g+x88fPju/cePr3tgbhcJiaRoKbUf+hBiahqc6R+uMiCRamCLuLx161YtZdzt2WDZdQy0iI1W2e/3++vrcRqaznPdU4rMHDhGD1kXh6JtfrwJEdCqiIeMjTm/+e6D/bgLEe88d+fZL/zcb6TmW9/6h6///de/+8prHz7cX+2ntm1i2yBFA5tK6fu+5hrDrJWdOXRoBqAqftNrqWWaQCQ2bZdCJDIV8eTKoW8Wy7Rcdl0XOCq6N+iMfh30Dur8a+cCxqZZbTZXjx9+86Xv7Hd7IvyXq9+5+8KLP/PFn//Gy6+++f0337//uFme9NNUa42pAWAmqwpFZLvdcuAQY0px7jzV2JAM1aPgVMRN/wgMVU0b5i4lUBmut5oHKbkfx6radd3ydLMKG4rRrAKQEsBxeKwGpoSYS5nxdUZVefTk4q/+5m8pxmef+8Qvffnn0/rWxb6+/s4HQ6ntcgXIFNNitd5uBw4cE9dSpmkahr5rmxgPq/jArxcwQphy6Xc7KSXGuGwSA86tl0ktRQ21JjMJTUMENFsXEPqc2QCBwSTGgBV8lIAcBfDi0ZOXXvneYrXsutVnPvX8W+989N3X37t3cX257e9fbEXMiENskTkQuhCEkERrKVlq1VqJn47Pb3T4MxsB5oGIbxt4EEZ4+AAyUy1FhVPjJG5KKaV07mKxn4AJiAId+Js+1SViIquCTms45HIhur/iIQKUfgJyoING/9hA33StuHnmHcGW4x/8g44JmUReWDjS4BOdvu/HcQwh+Is4YAyRhKSUnA8OaLNIhBx48WtzV3KPaweY3ZmOzb2HZfjFtO0SCfXQ7cHBtO54G+AwbTIzQAUTnEch/hVABqRGYkExKLJYUMFqFbKgGhsyY2D0J0gUrIACWFVFVY5O5AYAoHkeMxczisZzzAjiTKQ/eGrdrM/s8FCUnEutqnpycnLnzh1VvX///tXVlRMb/V09Jgd6DTcNY95e53HvxtSPd1udyvr07Pbd54CTT1gRjJgjdxrIjPKUPQas1qKE3MRoaYB9rbUf9j98443mr5tHjz76y7/685de+nbf5/VJm3NJ7Sxyk6IhphQiM495enJxYSBE5znXadqVUvzWewEUOBhAlVxK2e12u4vHOo0eXGHVlLmGQAixaw8CY+BABGxmAmJmMhfToIoCsFit26ZRK7v9eO/+g1e+99prr/3g3//bf/+Nb7/Uj8Nzz7/QLBYGmKdMFMSgmiiYIiqaAojIOOb9fhzHsWtbJkohBsIYGE2bmLqmqTnvr6/77dW4uyamKjLRzqbM52fL5QoJCcgM1aSaiLonitPvzQzIEXOiJjXSdcRogbf98N5773/7m9/8P/7o37366vdXy9WtW3cwtO4axxzNPC0Z8eAON7cC5DIarLUG5rmkQEBSNFKRPIzDsN89egKgRhBDYrGGOMWGYwRyxQIeNZGEBKiujCSiJnVSlg8+lieXj9cny5Nnn93cee7eo4u//fq3/uzP/+Jvv/myYVydna5WJ+NU+3642m2NjMiOhl1uEJfzhIinm82zd55ZLVdjP6zXy/1+vWy6hoOJlHHo9/vxejvt9ttxMuLNycndZz9xdvtWbFuwOlk1QlAwcO0D1FLrmMXkcnuFDJvTMy3lnddfv3pwsdmcfvrzn//Fz3/u4W73+rvv/+Mrr45KabFZr9ccUxHr97nf730DiZFxTipGM42Bjazmkqep1krEm80GEANSAEiE+3HM+30dx7Lf1144pW6xXC4XYZkCIM2qDTMEnyuJ6VQLFK06P9hNt9jvrt9+7/0/+bP/Z7Fa/v6//P3zW89is3z33uNXX3+nHyWtTpu2yyJoNYQQOZnadr9NMSZi5wcSkSkUUSsSmXOpnnXcNm0TKDJBlWno6zTkcazjeLXdNt3q9ORkdbKJbRNjVLBcPUwWTfWA/lupVQFTjB2z6dlHu8uXXvlu28b1ev2Lv/ClJ9f7y93w1nsfjbks1yer9UbAzEBEHH9V0TFP/TC0Xfu0sLCD24YdcAuRqeZSspm1Ka3bpmEedlN/eWkyMYLlSarsSyayRdOEwAymaGSgRzELIiIoqJurqhkgNV23Pjm7f++Dl17+7sn52fv37j959PjtD+73GR5e7FYVb925CxT2uz0yuTMDHbz8cyltk8Bolp66KBlMiZxwk5i7mFqOUgqME5QMUGVyB+/o+jtOyWfDZjNp11s3j3JxWL1WRaTlck2I+6n843e/bxCeuXP20fvvfu/V1x5d76aKCsAhGZMgevKtGSCBoVShaZqmNKaUiG2mRoO5D82NUx5gtvr226uur3Qo3N8/YvAUezMrZQKAEMIxh8F+Etr3AF3/BxMpIBACB7uR8egvOxoSH1XFx57+yMekwzDWDnyxmz/s5vn3E9fh0o9jApN/q4uLC0/lLqU49XIcBxGJsUkpAZiIECGAEyZm6dfxGo5uqXqwjtGDK7McQniPoXk+XPSrOtrdHH/Vp5QlOxJV3CEWXGBECmhCakE1qEV1goVBqVWLMFAMPk0EQDYwVJWqClatVlHjGJYIhiRGKGxCKsjq2jAlJKfbAutcTc7nj3n2Oh5luqq67/tSa4hxuVw+fPjwo48+euWVVx48eOA1lpm5tyYeVO9TzkO/2z2+sDKslovlYnF5cfHo3ofDvg/ctKuT0LTIhEgcQtumKjoMk7u+jOPg9xSQFt0yMD+5ePjeh/f+7R//8X/8y79UK6+/8f3ddvfc8z+Vmk0/lJCyVESkWnOtEphTimYaQphy2e/7y8s3Hz586FHa6/X6mMbpv2+tddzvcSqNKAIaEInZOI1mRJia5JxZYiQKaASmpVSdjZnZKChVQD45O5+msZb80ceP/vj//NO2a95+693333kPQji5datdriiEcRqNKIYoMPOXODAyK9g4juMwep0amEPbdW2TYtBazSQFbmPYjvuh39dhhGHkFGuZ+lxkmiJR5NAuFoKmAKomKlVUxZiBAjOQuksSEZid3LrVLTrQOk75b77+jW++/NKrr7z6ve//gDicnd/2FDIBKLVgII58GPsaHBefmZkys4pst1vnn8du4QYqqFam0u/3u6urqIYGpdQ8loHDIrVhRSklr4TBRGclI4jVKpViYKRi1QxjbM5v310uOuXmoweXf/ONl6qV77768ms/fHuq9fzsVrdYpbYDqv00Xl5eEEHXprYJhyASYOZhGBfL5Xq9JqQP3nn3/sMHtci6W7WpYcBhzPvr3TQMwTCmdihydbXNw8QYQowrZCRkRDX0N9ZAQdFEtvt9rjmLLlPLKbWrk9Pbd63aBw8fffM7r2biN99+5+HFltvFJrWUWgpRHJNBzWXq+36xHJZdh4g8Z01ACMEUpnG8urqKHLqu4xSb1EguTJTHaXd1VYYhIinzNE1TKVoyEzZtm9oWAlcAdLJKCGAotdSqZjUQA6AhrE9Oa63vv3v98OLqL//z3+3H8tOf+9zL3/n+vYfXodtELN1iGVOSfW8Hf0IV7ft+vVhFDuaOSKqGUKt41lnJeZzGALhou0CGCtMw9NsrqJUQUwzb/djXPQNy4BgDpxgApbrq5jiMRzduIGQRFYDlyent8sKTBx+99qM3/tf/7X9/8b88X2t994N7lFrCWACnWshDusEpEDMaP/uIqwKgqi9qAADGuZ+vqlWl1ho5NE1EtDz0ue8Tg7OQAuBW+2EctleWmmbDxCkBwgwGuT3G3B4qM6NCrUKEsWmXp5vnm8/sr6//w//7H//m77/FiP1+j6k7vRPXqxMgLkWJAiCqiiOshFhrFanoCX6iiGTefc9GrxCYG46JCEq1caQqbh6PZlWr5DLSngI3CJxaBPfHhDk1BpCAVKsqhBCQSGoNHFLTXV0+ee/e/f2QieDiyaNhv+emw9C0XZuahZh6VpeZyQHOllpLmXJOpebYNDOb/QZz81gJHM4T9+KYJ/7z4Q8zZctziY/eFUd0/1i8HWsGVXEDjBv0RFOV4F8tIiI1xhQ4eq//E5UBHJJsVNUFF97luzWyszTcxN5NZ4/jFf3xnN/jQ4aIbduO4zgMg39yHEdP73VWBNHIvoyZPSknpcj81F3KP3yGEkLwiJqb7+bRVvwYDANmVQWRjPzNM3X19A1w5ekFH7iTpqDkgmUDNVRjgETcAkQxUoliIJXAmCOnBpnc94yYIpIaqIoWNath0ZGpACghBLOAQlDRgFGrIJJVZCBQRTMRPSZZzXfeC0tVIFIzqdWFteM0vfHGG++9997Dhw8BYLPZrNyCNXhMkteeeRjHq4tLHKZliiepQ8R9tV2/A4tPHj68FZrQtIiQUiLGXDPY7DOGiE3bwqG4FLQQ42q9uby4ePOtd78//VC1tm1z9+6Li8VpCG2MTc6kquO488uotYjUaZrURKS+9957h6hx9vQHv9F+v5wioyJYdcVh1XVmtt3315eXmBqk0HbLdrHw6t88Es/MAKuoCDDHJqQQmpwnAIvNQkW226tv/MN33eB8szlrUopdGzhmlToNHFL1oROTqBgqEGx3u33fg0nbJDBj5tREtyZv2hZB3Rlw7Ic8DDqOtxdLQBjBZMx5v5v6lZ2eLbpFQZvGLOMooq7xiSFSYAAQs2oCombQdm0IDFqvdvu///q3n1w9ud5uVyfnTeyapiVOaogAVQQnDx8GM+DACDCOoxnMWUGiCEhEMXETE8Nsvaci11fX1xcXIOX582cC4n7sH11c7J5ctrFdrzdtbDJAlToHAJLjyhYSGZgaoMGUp0Dp7Nbtuto0Kbx77+KdD78+jPv9MCxWtz71qROOTS2Wp4whLsNSVVANzaQIGhKgiGi1tm211McPHl09ebLfbacpr5fL9XLJgGRgue4uLrfX265pT5bLaDr2++vd7sGDB+1y0W02bdPVAoQQQkCmUkvNpYpA4iZ1wZpScz+UtFh/4sVPL5eriydP/urr33rljbeQiLrVrbtxtT4ZprzfD6VkU0xNo2oqOg3DPu26bkHEVepc2AOEEAlpv98TUtd23aK1yNNu/+jBo/3VZSRetO3idGO6fPT40X63N7P1ZpmaKGBVhDkQBwAUMzSMxKpgaqBAFGqB5fLk8z/7pYvLh2++e+/jx3+x+dtvgWG22C3Pl5ugAFPJTdPmWhCRPLe6yjhMbdMRkQuCkMhUyRsJrW3TJOLIIRCUYer7/TRNi6bp2lZU+0kutvtSMwZqui55LNzRTUc9GQyBSBXMpJqBkXI4OTs3k+snD//xu9/77vdea5uOYuwWq0VoU9cgaM61ViEOBFBFqhTU2SNAZjM6IgSpZRxzt1wiQp0yxXDw+YIUYst0fb27urwEkVunpwGhauEAOmrf9+1+361WoW2cMyu1HiB2JV+eh/TRXKSIpKYD43HKjx89+vD+wyal9XJ1++6zCpZzLpNUVc9UQEAFhSoY2GMyVsslopmKU3EVQcSmYQDT89PTLiTph/3VRe2HFLhNIaY45ai73bbvY8khpphS8mBbA3B03COyVdmMAqgpVAkx+QHULTe5yEcPHuc8MWNKi2axoqY1MzEgTgw1qJVSEHxYxz4Kq7XmaWrahR4SE5921E/5FqgqpRRzT+oZxgBE8un/sdk+HtY0R9iLN/N8w4S01jlg2VMHum7RNLHWEm627CXnaSp6CFOBQ/l3LGD9sXB5CRzEpQfixtOpvzNAbx7/xw//Gsfq3Z7WDpIQJ13mnH3cfggdVsTgEOVi0R3xCZfb+vfxWng4fDgogoieb3s03UI3s3TDbQMX1rtnoc3pWQgHzace2faIiIpmCOaQWyJuCBvTRjSpkRopEDKEQBQQSL0QVAUwNAiApooCiBaqEqsGRCQDUxQlMEA7uK7M2LW5ncJMQMaZpo+HudgcOOIYj/sKX15e+nvibE33fXO1rZMtpFYpRYssm2YZYxsaIGtSCkOotQYOnhgeUopNqiWP41SKTGM+Rm15Y40eQ1xKk9rz8ztt111vr0X09PR0vVrHZonMRPHo0+y32O9I1dL3+2EYp2nMU0bEruvW67XHoeEh/8Jpuf3Qr0w7bhNyNdFcyzgFDok5pcQchdyxxnzcwMYcDXk2OFLEAECIVWqtEpvaLgtwEwhPn7mTQgBid4dUAJ4zQU3RFKyaZpWqJZfJVIkwpRRjcChb0QAhcCCikks/DLvdDsbpdtulwKBqRYZpHJd9mbKqiopr4QkJgHymQESHVYVq1UT3/dDE0DRd3w8PHjzYDrt20S3aJVMEYFWY4XRf5LVgnMNWzJUetZacvZyfjdSYKXAgBjVELGWsNYcQVssuEiXADIRiNec8jFM/LldKPtj0Z+wA5wHqbAcELu2D1Cy7djWN0/Wun6YRAFJ7slidTnWcxrwvWbTYvPqgylQKmFKt1VQ9GgrNcs7jMLgcqokxBRfSgPmamh0wKoEuum6xWFxtd/uhH6dp6AcMIaakCMQMCKqadSqlmqOEYACsENRQgNrNeRjLk4uL7XT/7OxktdosT0IplRPGqkW1aDFFIjYT19SkVJmDy+x1diFTZm7btu0aRFCbrWk9doYjpZQS05PLx9M05WmKbSPmMAUVnVRVoDJHJobgtQqo6tPBN0cxe+buC9f99fWTy8vt/cAxcDo5u11Vh2EfLMgh1Nc3hlrEY2P5RlrywTQFCUhRgQkImULGEQCImTgAgFZxOFyqmpqPXgWeunbiIWqE0ARMDdnMUTdmWm3OiOnq0f2rx0+Gsdy+++zp2WkWqCJgOM/OZknljy3qnPNMzUYkJGJ+Kqc3ZCMmCkimKqCGFGIUs32/J4Ap52nMUynEQQEUwFwodLA4ng+yQ7c+/8+JUwDI2Lbdyfmt5WoTAseUDFlFVEihOgfBCymT+ckXkZJz3/ddagLSwfPfDCAyE4U2pQiITCkGTBwMVGS/H3IuRaTUaoVKFT3gAgjAxOrI74EzOSudvH80CyE2rS0WazVMVYiAA1GIqmhgogr41Nr/oLmeiwa1Y8qcHm3Ub7bNMCf/AcAcB+4YuVPA/QCc9ehm3s97i04Hk/VD722qRuRumRMRp5QWi0UpeRh6AHUvZGBmABzGQcWaprm4uJim7ETL48jjeE6M42Smi8XimLNy0zrCF+E0Tcff5GZVcTM9yL8SEb2pBQCPRfV0tZyzZx+kFAHMNQN2SKT07+YViQdWOevTq5PjNAd+PLjPyZCAQAo+Sgc9WDcdizq/ZgNQdGtuMBfMGIIxhhiws9ootijBDMVQKwHEkIDZb6eKWVUkIGI0ZAFUo6KslagwQwDOh5xUYEA4LA48Ujx+UqmrR3mY6pEN72EQfd97QeatvwNIfCNpxd+Etm275VKe5L5OzkfrhwGJmqZFZAAk4hhSYC6T1lr7fZ/zXGj6OMlJYeYxdMQYhFNsuiUSrZbryGnueJhMSVXMyCE7RDKQPE37XX99dQ2AHHi56NabVdd1/s3poIkiciQCTS1PxcSmUvr9MOWa1hSbGGPAgyrSEInJjfwCRFF2eC0gE5KoMGJIqW2b1fpERTmwaUU0t+gQQ3LPVZqRdTMR0yollzLlCUSZkFIIKXIgZFI1QY2BAAmZkDDEZKUO/Sgp5iyqxiGGtg1tzJJL1Xoo9hHIFPgo/EFEoBpAtKQmuX9oaprbd589kRJSg4a1lFI8Z+7gL6lSKxHPLlZ2MDmupahrlxmQ5/0mxMgAoJhxFK25lsE0Qh3M9n0/9GMBrWpZdLYvOdTXBgCmSA7futDQ7ySJqALG1K5DbPLSwLqm5QiX14+nMSNC4OB7OgNJqRqCuv8EzVQvKbXmknMOTN2ia5K7Nc90eQ4c3eyulOvra0KcchZQZopNahZdDIm54cTiLuMivvI5NQaAyEzqtkRqPJWxW22MAiCsz85PNicAsN1eR6SalHM5ulyLllzGPLXO38I5alGtKgLEGNuuS22jUsZ+sirA2C1byZ2Uerm9JIPry8vdblfBWgNREwVkC6ERFUFAQkJSEVAlI4dOzR11TQNiNSEKy81JiCnFDgDBaBj3uY7AAAhYspo67q9iZSrTMN6wrrlJuyFmQiBArKBiUM1K1cHGcbBhGLfD2I9DSOkwcrfZv9Pxac+m91EbVxVAtVFyEUEKqWnMVnUzLZbrJqZ2uTJANjEEq4DITie4eao5rXj2ySUyACTkwM4NMiNQI8DIITKbWSnKzLHrAGC/39VSSq3X+12ucnK2XKxW865lswbZCwl0+pIHceHsb2yHTj00zUmMcFAeqSPQxPDU9xjQgADBbVdEcynDMATmwMFMTecADp7tOQOqIiPHIDXWkuuU+zyKWVUlDjG1sWlDm2z+/l5uAav3s+YRDjBrcQCRwAiBY2o6tSoVEYhQ/FoBZe6MPczo4LoI5t1FqbXUUmp1NqwXQYdmGY6lns6JBQioxEhcJ33JAAAgAElEQVSMpACHaC2n5ZVSjgMEOWTk3sQInMilWkMgAOv7XSnTYrHwIiH4zXBTCma+ePLYzLzlPTTMx/oPDoG8MI7jNE05ZyLcbDbL5dIDfP1QPw4v/mvQ4kjXcFvAY3qkR0M5FuKPoI8kXCriKEXf90d8xiETF5T6z52myUuN4/jnWM3MRYM/XOTez+bPkIJ5nT4XHwAwJxEggKEbbvsprwqGFLAhioQRNahGUazVDJA5hoDERdwazgCQY0ohhhBqqbVkLRAYISuyGhuxoZljIWp6rLOPBZAe1CB6KCz8DfV3+Gj55fxnt/Q+llC+eLxQ8796WmC3WEx93w/77fU+1yyqy/XJ2Z07q5PNolum1ABByXWappqzG9H4E3UMdPDhETNXETMIIS2XqxTTXInNNDWrteYymT1NG6+1lixVFY5JXbNJLzl8ZWYilQibplksl6hW68V1P+pOpmkqtYamXZ2cdMu1EYuBgEUkQtIqLuFi9Jm1Q1BAxDEEVXEaNnEQFQTMo/rKQ+SUZqcTNENDMrfFRlAAUZ9ehxAMgeYsF4hx5sYSE2PqupVstBKO47DbbsdcLMb1arU+PeXUjFVqrdXAfcERSMGQCAzE61kEJoIY6zTmKoyYYlqs1mZQVE3EFEuZfCZraN6HqIgpGs7DoxvkXvOt9ViMVhMkTpEWq2UtZ2aWd8OD/daqTtMwSG1Xm3a9abrOreyNwNRMxQsLd0eaXWnmWax6+x7bFEJcmEoVBjasKTUpttqSCpYy09TzZDGwLy4kUtU85QroRiwhxaZtOHCRahQoBEaKbbNYLvt93+92F5e7UvMkNbXt7bu3T87PF8sVhWCEHKOWUkudxlGreGIDKAQmJIRZzgWGuFivT87OfP5NiKXk2DRqNoyTW60dYkBMRErNIhWgebplqbmTb4wRAdWgaFWtgSl2HQ/DkMdp29cpT+NYzRar1erkpG1bIMwitSowEjIDGswHgzesetia/KwSsRjbGFMIkTCaMQLVmpkjIVsAIrZqNtMIwSfRhxAHRIcBEO3QUBEgIKkqUghNhzkPOZcpD0Pfj5MZrlar9WadmgaYxbIdDl0A83IDAQi0WhUzJBTVItXNBRfLZQoxMBWxKeeqgOhmdU+3ev/9HLRwQNo3JUAUACQyNAVjBBUBtUjMxKAgihRSt1iCYc7ZqhQAZV4uFufP3L1155l2ucxVtM5tGCgg+SHLaOa6Tt+LnIlqVtEsBE/pNFWTakAAAQBMpNQqx7U0Ex7NRGdDLuIDXgxzBgIBqJT5tE5Mwlmsr2XbDxSYYlp1q9XJenN21naLLK5YQydDz1UFOrjmPM6ZjV4lqyoztW0jElVUTBGF0eTgMQ8AxMRKigRoh24Uqv8aKgo6izHQZiYyzD466HDk/E9z2WeHVtY/cxwduMrS4WQ4cCsPQwAnwxU/na+vr66vr4ehJ6K27QIAxhiZue/7aZqWy9WLL37yl37pl1588UXm4GjN8RExM6dZTFN+8uTJ+++/+73vvXZxccEc/OjKOavqISvox6qK40lvZk7j8FhqRDxyIxAxhDBNk+tN/AchQi3V9d+Ht8CO4ORBKgLHkYeTbI8/7iYDGYkOtvRAbo+FcFTszKvd/D4BGpARASEIiiuljU1ZAUWxFMgCJQcVI8Y2xa6NIfBIwzia63bbJnULVNCp5L4vMrEiZkFGDR5yQcheRXj3re6eD3qIb1YzH06qAoDn7B2ltv5EEFOACOCapTls3SsPj8PxgsM/k7pWT9bCkFFBeNk0Z7du37pzd3Vy3q1WFEKpVfJUi8B8kj5N8DveI19vRBTamcZhcw6IACK72ZMV1WpmiLOydxqnXCogeiw7M6OhGTCHxaJr27aUIlIADm5pAGMVARx3uxGhO9lszs7O795dn55i0wgjiDIHAhSd3ccRlY4WEaaIgIZMLp/AwMHcpcj9o5iRgZm8EKlVwIwRA86+RgRIgEZeMs1CeQSLKXbdQnLxENy2a82kME6Bt+XJQLbanJw9c7s9WQshiOaqAIQMYOT/kZskwGzthICBSImRkZEMsRQxRGCGWatK3oWC+j6sYOTJW3ow7wHESFx1FhvN57+oiKIaJ+i6NoXbMYTrcHlVtECu0LRpffbM7dO7z7Qn6wKm1RWGAmCg3gbOMz0w9b1ITUIITWoMrGoh8BGZIOJysSy5SoWi1YlBalZLVVUwATRAEDOZcgqcmhQ4cApGWMGqKYCwUQypwXa12Uw5i0q1LGYpNud37n7ik5/cnJ4ImqggYalF1H1tKhPFwMWqn7nkSwqAibquI19uxFKlmiBijE2pQsRIIUYrpT4NeHOP8xv7FQE2Kfn2KqoiwoEBVcUgUOyaprZuMGcZl8uT2888c373zurkhANPpYrpPCrhIKKGFBwEsIOjwNxsQ0zcUAgBzUgquKkSReaUrFaqQhjEVKQiEsWbTPMDXOEPgx3qA0JVI4DYxA42hjD1e0Nq5664vfuJZ89v3YqpEZFSKhzMDRAITN3QksAAxEwJLDCDQa4lIHfdqtZcajWgGFOMrKrjMBBSvQG44qHZ9d73uBu7gNMVXEBmImDm02QwBSQMHNGtgix1i1TyQk+Xq9X57dvNYqGIOnM4ZAZRDZFQQWAmK6uj+4hgh4cYUT0FBtCAAcC9p6GAquhMiZzXHM3sNpxfCQceB+Is9oF5jAQcg1oDWqxmbBpX1nar5Wqz6roFILtQxgXc5FC4zna0AF4ekJo5e9Qtz5ECkRWsWoQQFIjRsQqAGWKiWmb1BzjJxlhVTRSPTuJogOpDfIcIFMxhSA+EgmO442HT2O120zS1bfvpT3/6i1/84tnZWZoBxXl8caB0zCeygwIff/zRa6+99vrrP7q6ukak4AeGFxbnZ2e/9Vu/8+u//hsvvvjCer1inqFph1NUIUZwPB7ASin37j3867/+q7/4i//vrbfeUtX1ek038rKPtcjNj+MR5WMLZ5f4n2/QSsHdOarMoeq1FCQKFA+6FnNwxhtHRz4OUrFZBAE3vGlnxIKOt8CBCfCawW2R8DBYwvme+ATKvNqzeRIEqrUohKmUaUpTwSrBwBLDsuWu7ZouptjXnCcjoiZFWrSBow1ZxOooUIVIAlkNHBIFZVYQF03BsdgxgENeuxka8PHtAwAzUdWcASCXPJXi25//yt5XHZOFj4+C1yUppfX6xMCoS+lkGZhW3WK92axWJ8BNESnbXSkFTbUKozuPevcLR0DseCNjSjE2REFqUc3IYihAhN5GQ52RSTMRBdBcas4iZSYBhRAXy8Vquera1ukyAOCu7WYWQ4C2oxPTtsFl10z15OT01u1bi80aQxBCA1DVkjOai7ARtHp3BWZqQGZAx/SDm9ImC27FNR/ICu5WYEA2z1nZw3bU2PsdUzAOjMRulupHiqkZIXJIiwVKakIKOUALuDk9PTk75RgraC0OPAkpqVb0+CXfG1x3oLPEPMZkJFJVDQIFjKxgc36lN4IKaKiAMw3+6fKa3YbZXYZwLkMUzAgADZBEtJKEEFarFQDE1JSqxSQ1zfrstFsuhHEqGUQdmfQYAAMEYpt/6nElIYCJZi/AGBHcU9vQkz9NTaoiYGCuogBGM3aIxIRGCgBMCqCEjFDNUIWJgFkQKmhMYbFeKUKI3O6Tae2Wq9PzZ05v3abUTKUUEUM2EWLSWh3+DoRSTU1oxpWB0Iwx1wIK4Db6oB7QhMypxhhjYNKKB1m3z8LmhtbACIKvu9mM1Ex9CyRiDGo1dalL56vlcnt13TftanWyXG1u3bm93KxDSmqoAhQCBSYip9kYHi6QgI3M3J4KDjGoUoon7DpQ2HTYqtZxHAEzHJvOY/jIAcvEwwS91grHUxBZQKtpIAopLpbrNjXLVam1SqlN257dOm+6Ntc65ZJr8X7W88IJD82wGZqS2TGMi5BUoZQaAgNiFVVxqw4jJjFFITA0eXpheJAQ6uzpiWpmgcxMzNjMxAg5zCsY3DxDECK2IQVV8/D6pm05xTEXURO1ccpmxo4sHypBQX9/3LxYzcRDVYjAAWtEN4KZra7cooicFXs4HWbs2JkciAIGYG47AAhVFEDF1B2SgRGbwNC0hKFdptBw5NS2sWsUuaqUWrw95MODgITz7MnIvb5nI1kHSl3togoqfpPNbcTRWZZ6g1ox40vHU6LUwocA8Jk75o+w+5zYU/Kgb89mrgSyWss05Zzz2dnZl770pV/7tV/7yle+cufOHR8s+AscL3dSs38mhGCm77337p07z8QYfvCDH15f7wMzb7fbaZrOz89/93f/h3/zb/6XzWZDCMQwPwHgwl1AM1EsUw2RiFgVPv2ZF27f/p9PTk7/8A//8O233+77frVaIfKB/TvfmOP+d2x5j/DLcXjjBcFR7cmzDWom8kRvMjOV2cHiqHu5SQX1uuT4+WMdc6yX58twW2m/K4CIKIA33uhjXIdfMSqiMwRVAYiwihXFMeOYIVc0IyKNQSJjE5tl5yOzXIQiQ5uwazk1ygGnSfZoaqECElDVUCBECABud4zzMTxf56ypdTDzIPn2xgbMppxnkzMTf4Ebgrl5uYNXXmbyIWTZa7jYpLsnL4gUEAmMTWqamCiEadJcyvV2W3MOHEwEVDyhyHerY6vhtVrTtBxYRYuMTCFwKJoNlGeAVxWqgRIFr4aJTHV2m44x4bzgLcTQtm3XdQDIzG3b1VpyrkTWtqy1YgirrtOi57fOT89OOaSr6+vdOFDgaZpQEYlSjF1q/J0yIzAxM8J5sSECOSHNM/3QQpgn/SVPuQoJUGA1Q0A2Z9l6Yj0cJHOGiMQUA8/jXJuH0KJKYMAcU2xOlun8lCimLhFxEbFa5zrcvfA894sZVCEwMpFZVVVTBjA1Zo6hEVM1UBFvUQARnJUELjSfQ319USOiHbk3CDNGTjPzBAFLKbElpCBiHCC17ZI5rdbeklMIMUUFHfNYc/XtmGYPQ3Cwx0cwc/czu/soIDmkoyamggBmZIApNCHkyoII7gZNTGIwHz1zrKIBulWGGgX0qR9hIDTEokYMzbJdx8CRu/WiXTQnJ6ep6QQoVx3GMdcqYtM4dN0iRfad0wB4vuM+KJiHDqAWAxOhzbsNghpHF/AmpgDmjsWOfc4FxDz7PERaOPzjHGYEiCEQxT7vGKjpmq5dhJRWyzVzTE2z2mw4cpHqOW/7/Z4HTiku2kWKiZlFGa365EDm/ca3/VnqxMzAAZVqzTFy27XTNDmTFBHpsD/917WFd2i+bwcKMx7O6P8c25a7xl9AzETYdp0hVq0eNy9VzFz55EA5mBkTEjKaGFiVAoZMxIEJyGZqduAARaDWSsxsKkyox2Lsaaj14RSAw1pFr+ldikkzfqFOPHFoDggXy3UgFlFkRGappVaQWqaS81SYKKSA5A2QIRKDwSGax583FUEkJCabw8QIWQ3QFFRNBRR8M4fZyerHemIvp6tamL/GlVYChlUqmCIj8xxCtoCYUkIit/FwZ6LDQB9D4Bgj48Eeey7V5/uPBxhgRhFUEcHDBVUrYcBwoNA41QbJ6yhFMzAiNLBSi1cA84F2oHbSUXXzFI07OC8QIIKzFZn5s5/97G//9m//8i//8ic+8Vz6/9l6tyZbsuM8LC9rrarauy+nzzkDzIwIgMJlBNj0hTRJUUFSVkjhFz/IftGftILhUPiRDhFBUiRNwSIxBECQxBhBAzOYmXPr3pe6rLUyUw+5qnqfIfcD0Kene3ftqlx5+fLLL1Oc56yqXRehcSOaS/SwklJEhJub69vbWzM7Hs+vXv0g+EDBe++99+u//uv/2//+b58+u825ILG6QurjHl3jgCIaEiOCmqbEOdfrm+F3/+XvfPTRTz7//LNSyvF4uLq66vtdKdlBgEvu5KUi55bsXOZOdlFhiwgAIzACBw6+DMI/2Nb12BILaLsD1hmKNb2Ai5fXcA0cdKUxADSLBNLeoI1Sq1XneBbUBepCFcl1sTQVG8aazkufJaohk4akMVggY8BIw/X+yd1dVpmt5lohMvZJRHA/DABwmsvDoSxlIi0BqAMSMFAMHVEwMQTQJafAVIUCl8CC606I9dMFZvNtJtC4fNuH9exqfbWlbs42MAOpGigScIyRE4XQJnpq1dPpPE3TOI6lZM/zupga06xKLb6ldrVIgJIzWED0np+YClnk5pGNgCIjsLibA7BacymLaQ2MojXEaAjI1A99Sn2Kg6pWq2ZAYJF9wlv3VzfIpCKBw5Pbu93Vbp5LBRSxcTyP4wirwGgMseOgptKWMasagIAfNocPXaIJmRapolVFq/mqdKugAlBEBZA4InIuIgpqwci7lUwYQHGlcTWamxEBmBoSAgN1/dWaslRH12uttVSthuS/ywI67Hbk3WX12QsBBGIyACVFQG4T+WSCZqZSq2RvckLb4AMiEAIjEHrjx5eUUHCwghBB0MAosCoakREqIhMzs+tK+ehTLSWXknOWUlXVQCOFPiWMRBBEm2NCAEKmSMyDkZkaAloFMEJjR+GZjIKFGLHkuhQxQ2JkFkWzCK7laEqBXTlVCYtoQOfBEcXIBgBaQcwsdPF6985OS4gh9b0UPZ7H0+k8TblqLbkShTeH+6dP7kQtxjDl4hzouibiCoZM19fXak6mJmJ2ZdaIhMCBElNQRbDgEyk+bG4AtVbmgGRiFQyZMIUQOJhYwAgMYNp3fSlVgGJKV6kr+xJC2g1DTElEdFlOh8PheBjPYwhh2A0EXEQa5IuEQMDks+8NfkfnjQcXYrK1qxUoBGLfP+J0f1ihlVrrxponpBRS02Bq6dAqYIBKAJEDB2IEBSAOAJxFlnkax8lp2mYQQqAUyb0jgAGJkQAooGlB38dh5uvWFACQPTqGgIghzwu4JaLrsunm9t19ubSBuw41CUxEplqd36SoRtYyWjDfNghIPh+ICqa1FFmWnJdlyRkRqprqEr0Zw8EJXlUBXONOUQTBfKqNGZGAtR1eNTPw28Fg0lo+trWWXCbNDEQxaAQDAJPiUKi04YhqAGzs7WyKYTfsva6pUuc5ux/Q6v01lAoEiAYUGAGo9QNMsS27h1YSobdKAZseNiEjEDi2YQDkXVNCtFrVCexoGIhTTI+l8Zog4QUrYAslMfaInHNV1XnO4zgS0TvvvPMrv/Irv/mbv/m1r31FRO/vDznnvh8Cp1Zekjfqm0PKOSNCjOGrX/vKb/zGr/3kJ3/34Yc/CKUURHz33Xd/93f/5XvvvaeqPva19v38yhr5wMnstRoiEAerIqLPnt399m//zp//+Z//zd/8je8Q2ZCD7QNswX4DLezy+V3817d/7FHBk4CQHwlBuCIQsIJssEIgG13xIkG27W3bQiQHiVvfCWElTT4WAWANjAIxNEQjRTaLAqlIypKqBWbkUAIaA5hVlSo1UeyH/urqKlhNu8ECF5VJsqFhZNh1vAxSi2mVnOvCiEjMpkoIAj4OiwEw+MggETyu+jTzjtT68Vc8o/kXR33WfeIBAIhY1ZCaFJgPIjpCAoyIwRRLLS6MP47jNI2OfLiqBBPJSi7WdVEtESERq6gQB6+03V4bWQHcThCJGsKE6DmlMiMziWvYITBzTGkVumj7DnzZCwAgUYwdM1NHIYRuGAB5Xo6udzJNU855g6aqCikhopFJMW3S6G4kjTeDZqiKBFJzfSSueDEOQOSOEhFFTU1qrWCuNvQIY7k16rr+EQAEvTUAWtTZGLZCviqm1aQ2TTNEJKdQY2vYqLoSlTP54LEkdRlNVGYKgUtB8on17QNtC+vMQz62SsLbZtp4iND0nUhEneGhbAaoWotUv0ZQq7VKbTxyMxMWESVixYrMTAze6PCGCxEhKqov4UVnH6nnuU1NrtV7YOAseyBta+MN1gmjCyDRPxZEJGJyYEYRKpqhhS5x4Kw253mc5/M0jePs0BdTENH9fs9EClZEA4IR20q+I3BUyC+0VSzYYAwEfaxSiMjJyBv8Y+71QAGRmhxMiCGIamAW1Vo0hA4xmJk/3cCh6zojyioGkE1zzuN5PB6PPmYSY4prlsYct74AMwOQqjrVyrOBdg1MAMCIXdd1qZvGyayRc1V1a3k0P0nIxEBAtI5fghEBqDo/3VDNQJq+vKiZ1lqqaDMYayJmjs6uk6BVaxUQNRVDA0Lk1ps399Ce4hA628Yc3t6OzOaK/eWfOoTABFZ9BSw4nc2NqRXjKq0kQCyl6srVIMAmhrUS3T1AmbU1ryptKLeIiIqJAlJK0et3P7aIoAZEpKb+9AEeNaRawGo4hf8VQfBJQ1XZbBsAjB7n6tHACLEK+IQFICNWL5LVBTxwPapm/h3ARt5fow/6FTRiR9N/A0SGdk24IjEezXAFLYjIkdlHRstl4Liwatyip7UWScOkVQ0R7+7u3n///efPnyPiw8PhcDjknLs0xdgBGCFxIibCtnpI3M/uroa+H25ub+7u7u7u7pqkdwjhvffedatyFoV3H7yqd/Ogx2s1gG1bGiDC8+fP9/t9zvnq6srHOrYP9lYbYtXL2j7b5qw9E/fv+13DBtQ8OnFsp277Z7MDXUUdtu9sxObmrx8TC6czG0Ob2FkvDLbL8GzG1MggAAYjU2PyxehA4ni2KSN2AVPUhEJoUnPBaZo0ADLvrvYp4HB7SyHkXEspKBJ8AmzX1wwooks1XgCRewK1gmpERiQBldC43SJ6u5Wjb3eUENuMqk9t0LpSDxFVlJIfTPZbDxtFHAGJfCo25zyOo3M8HdryqkJFDU1UHMbZEgsk772iETpxCR0HMvJb7vtRmR9F0t5K7DzVcISdKMYYYgzsHROdl2VeB5WtVmbemMmefCzL4kt+/bVhV6qq1g6lhynvBNtKqVkJKwoGVUXE+9qwQoXkI0AIYKoilYhqrYBKFLY20IaBXYJhtt6ZLxzjzTi9TFddRYeYa80KDtuuKfV24Jucit9NCBxCkAsRETODbSa+0Rsu7rJhY5r7WVtNxC7/aQDLshQVLfXR36xqDZ4qVVMGC564ggKgRyZCZNyCSkNym6wy4Orrfcrv8YxfftFCNBJg25ZIgKSGqN71NCegmZmCmnIMiJgX17QspuqTYtp6K4hgxD4HAY0D4Ed+1eEX/+DcblYjtAOucWn1A2tKt50qn8D0S0ZuFDD07UileKizNqAswG2U31RLreM4nk6n0zQutXCKFAMwGT4S4UNsQDQRh8AAoE23xzXCPN0E/xUEV1KJm5+8dAJ20QrxMeOtJnORHKDWfhC1bbbe7dyPPK3LFqDtFxCnD3mWo7LuN3XJeOaYkqmq1jaBBa35j2u1ZhcP/dIGLiO3ebqpZorM7Jv5yLve7TERemT2kVI0ABDRnPMyL6UWj8Rqaoqs66tFXWsyUGYBKQ4JteWbupo8EZGSYnvuhCgALmrQ4pf37GA9+16C4ErWA/D6zO9SW7cBWGtpKVCTrmq3xZ87rWsxfFoN0Sev2piPx3lClwFBa2i1/yqu/AiClWSDiKqwLfZ6fJ8LF3RpLds/15/RdUJka45Y67Fbqw7cJzQXBgYEVlTXydOuS77shSmsWROmlAIiDsPgu0ZF2kYxj9wrjPYYm80e47e7IWIW0c8+++z169fbx/Ao9Vbwexs22L6+dMeXTThovIdWbm7vtt0dulhHcvnOl8/PLxgAV6loxx+MLn7GVn0ItNX6cb1CM1ZjMzSMBr1CEqOi4IoCgbBL2CdMSGwKZlXnJYNgcxa+zaXWZSl1ycEAgZDQUkAIOBNKCVkg1IhBPTdFFUDHVMQUbdW9uZTicMf99vexzUQ0u2mIBYJqqxJ17WlhU0NHRKi1idY4/SKl5AHV37ZKJSAFq+JUevUp/JV5RMTUKhd3bbWl3XjBlflCzrfdbUBDhMBtNMZAASGXPI7nUmsIITCXUobdsNvtfBBa1p2uwzB45rRpcK2ScOg7bhwV9LFMdMe1BXsTE11hqcuY/ujvLkz0MidZDzdut/yRLrf9yqU1XrrUrfjzqCuqCormLWNfK/Noh9ZgZFer8Tbq4wVcXobfT1k96mP9io+8oeaKmn2giJrpNE2e2TQcpfV0wJOL9ukAObADZrruKAIAB4rWO9BACWvRZDtE7bjZWqHaKrbh+iMEQAA+isXIgQgQ3BxMTZ0SQBRjVNN5HJcl+wR7iCnGoqKCFYERUESQ0RXOxbQxID0NcJYugIqoT0s5YKy6PVVP+6wx2tz1rHmRTxageaG2lbabSTupze95iCGmRMxGiCKbDIDzqf131ZmVAETkt3Hjh/njwwZ0o/m8+0rz8ea4Nzg3G7t0CNtVNRsAePwuEiIDqDfnxTXyDYFsLSQAmUgejR/WjieYqZZasqj6gSXvpREZgjyu6HCEdxWrxoZwXzqrf/hyw3CNLCIS0cuP4zfn4gEhgImo70bnwIDmturjWuuSbQMEU/EsIgY2AwJAppZJNvEKJ7PQ5kIvHcJ2hf41Ia1DvC1DQGwk7AY2GqxzJJGIzTZ6h5kBInMITCsTAFa0A8Fc+9kBHr9zK18WVzV0xTa9SGiNVoF2eb2Ijsa2SAf2llW87YXeApBUdZ3BQTQMHIi4lHw8nj7++ONPPvnFt771jadP77quy4sTGzb6gTPNjBk9aphZjGkcz3//93//ySefHA6H4EXh4XD43ve+941vfPPdd7/sII1HosvrcM8pAtYWt4svT3r14uVf/uVffP75597q6/vez9tmVZvP3Z7WVmJtvvLyB5rDWku+Wt1f+5HxEPnW69ImNhdGhIi83dnmvgHQFF2e5SIwmKjx4zVAA6XN1LhaUEtoQ7GUlYuQKCFSjNRF7KNFQIQOlBWk6phHU62GFghyVkJVRLW1Z4lCCIFj4K6oFMNZDCtjRWBjNzStprVWpvWat5h0Ea23/wStchVbl3KHEFLfm9kyl9aeaGI/ZAZd9ENoOc+tCjQjwhiDWe9b3DYTFAMxFR8F9A0NZMiGbOiTLE6HqlW0WnpSejEAACAASURBVPWRa1xTcvXGyuVHEBGXEUHQJo0DKiBqgmQKeh5PZrbb7/phuL65vr6+IcZa6rIsy7K4uboj9hrLvzZTRRETpNaPFJRSxUfIdBXrMTFQDUxEYVu6AxcStm/f1c0aHyG37URs5+IL/v3yHfxZIKI3HNcEq2UxjUax5WGiW5XqU/h+D0XF1/yAql20Y6wp/DScydSAV/wW2+PGtkcQiRgBTMFlNRxTdHBryxIsBJFW5JmZmIpZcGhpzebx7U6t/39TDnFn+ZaHBlgrEI+pPrAQSoVABBiJiQlp3TZcxGkxiMgUYohd1z2c7o+ns1SpVZhiCDQMg6mV7MWDSa0IgL40HUwNmMglK/zTlVKyKohA04qQkmvg4vettaxMtwdnRugjZGjmquaXz91AVMwMAdzL9X3v6W8Ioaq4xo8R9LsBAHLOy7IYgN/bBtiEAIAhhq7riclUnY0kRTzuNFtyMqeZmpWV58TM/ow2G7u01UdSxRp1zLxAYVUDwC3oOpUPEb2sVrXosJ8HEIP2wcX5gy7qxiuqrd7ZbPj1Fo9X1c4vOPxLd72VLq6eCYhA5D3qy1iwpWItaW4VLxJR5Ji65Pdz7RF69tyaFO5kInMIjEiqaio+uqQmjlswGhpvy0W2y9sAoe1qN9kGtw0DH2UmU6NG2PNPTa3csmieUaAiaoyJOYBKzrmKY4QCvu7UE4iWiSD42BK87YvW/qKhT1CjWdvEuf4MmfGWbSD+IzHXzWYz4y3+EjEit+G2kALFYvL61f33//KvvvJLX9vvrt5//8u7YRc41XV9BBGRa7UBIgIzesiY5+mHP/zhn/ynP/vRj/465xyIaL/fj+P4x3/8x7/0S1/5N//mXz9//jTntlbEq6D1UG0uCBCRKara/evDn/zJn/7+7/++qj579syNXi860Jvpw/oWcDG1seUBmy++cFtv4RybI3s05Me0q6mXXzwPB4js8hpaFfg48IFqhg70XTRoqNH+DVSkFKvrhvQsOAtmCYoBMTDjSjFGdLUXkFrrvIhIUcAY9unWFNgAgR1XFRElM6IUIlStapBFsBIJkEDwFcDuy76Yb12e0i9YvxkGDn7t6kmJN4xXAddATmsiNUEGMJuXZZ6nnItbtZ/YruseLU9NTLDZLAiYVjUxNGAiNJCWKpH/AgCKOZmALxGFyyPqzwsJnQS+bYNj4mKFiAGxVqlaB9rf3N3u9nsAy3MZp3EcRw/Pbj8bYa29OZNWAQBQKJJNRKrUtkzUEAiZkQkQ9KLvpo5BriCktc7lP+IKwat5EXLiw9uI9HZiN3ujRnxGH9XZwBUHeE3FSFGhaK0ZAJEUQmDn2G5LhQ2gFqm5SBH1iYa33fTjXwcwhDYsAADW2C3bI/AWmkqTrAYAj3De+29eZsV+tqkrMxMVChTA9YwFiPuuB4SVlvt4Eu0fdHP94Xocdb/W0B2f3QBkphBdN4QQsZRSoCARE0NAkCqzLUvRugoeMjFT4EiAOUb/E6ExPzlEJMFSSy41QTQNCLGhvI2E5/pXNdei57GUVv/oF8OhJ4vorTMFbVxa5w15MuKSHwCp63auoM+spvM8H49HTyBSSl5ME7uGCW74ECLudr3TqwFBQNFFtddepN8lXBM1D65y4am22+4HzX+glBJTAHRQ0YdHYHWbgOhiuE3BqrnxDQJJDedA9OOpKgAAxMgYfFrBK/wqPu7SDk6rbBpUhs0YLwx1M5LNbu2ij972p6FgG1x8zM5FXDRE4AKBFl1FbLGFNHO5H1MRIFLAtkthVaNTNPDMouEDK9nHcFX7fvt1eQ3tTzV8vNnt+nn9drm2lQGgCphoCMFnj7wYZiYmk2oxRHRBTzXPOczBihXXs1brtNySGFWsoZzUKH/+hy6vWX1bMpAZuI3GGB/1Qv7BJ/rCCd0+CACEGHY0TNP00Ucf/eEf/mEI4Vd/9dd2uwFWXLa5C5ANpo2REfF8Pn/yycd/9mf/z/e+9/9++ulnfT80/QAi+uSTT/7Df/g/zfR3fue333vvfURQrVurDgBVvafa3Ncyl1evXv3BH3z33//7/+Pzzz93Ye/dbrcsiyvJbK724gNgCAyAl0nAZnl4wXpzu98+9ttmidCGLmHNZB/TAnfi7ilcKcsuUnu/IKRHWzczqbL9DKzVHjUVM5FcyOmbRXEpVI0QPVYgOM3KA7jFkJSqEqlKZAbmutR1WpAbvTnxYpUAQDgigYiaCSuruSAoBCM/8PgooHp5RC+zjcu0yVRCJECxVh0WAARmU9f+Io4RkYIR6DLnZRzP87xgi7Li/VRb9wUjou+mAAUCC0SkoUoppZKacaiuMRsEkAER1KRKXrLUGmIMIYZwYf3eB117tE23xZeoiYBBjMnJEwIWutin3e2TJ9dX113XaZFpnlyyfXvQWxnR0NQmA6eMJCZlnqZxKksGgJiSqRkipxSxa1wz3Vrd5jU9IkJLFHDrnHhav+VDogqlONaxiSldGvmKgraw5Lma/1d2PeBGfV31ewmkqN+BUrW7viZEb+AAgCvpmKqUqq5YBY/h5C2vjYi+YcH/+zoxfelWxMTEGrghsgV7d+64Ou5wkbZi6ysrGlIgmZdpGhEpXFNK0afJvQninLW3/upWTiFyaDV6c0aOaxMaoRFgIMYmfNd1nQcr5kBIVWpdllIWVSfACiD2XR85hOtrEXGb6foUY1QVZoyR62Epy2JSfa2LK56CGagJqJmVWkVkmfIWNmgV2VufqccPcqUmHxBDQmRGQkUwtCqSayGm2CUOXFWWvIjIPM/+Vi5MjIgcgiM6uCZQgThyQMBSspTqf0mBVM2NnJpQwFoVNs8ZHlPzjbwJ4BPmm4SxWAJVDBGdB9Oa/eb0GAMEc21xVKvbaXKL0mQBCJ1iVYuKEFOf+nEaS1mw6xhYvfHfRBYee4rNk9hjfrZ5p0uvtVmvOkWACABqraCu+xfXz2WOJvnBWzG+ZpPbF9Z0oQxMPJlBNFWnh5CWmmtWU2SOu0GlutQyqAFtE2xbWGj/i2s+sZpqs+uGNjqrB9pgt7XNGkyIolZL9TUVMcam5atmaA6lIAGjM4u1LYrxg+5kV3Ngpkk1AvjSYxSxtcXkF9kO/Xbx6xnHtZghz7cuP84/Go4BQFe5B//z3nBAxGmaPvzww/P5/NOf/vTZs2fObzMzTyxEig8nq2rf90T4i1988vOf//xnP/vZ69evu64jCsGt//r62sz+7u9+8nu/93sfffTRt7/97d2ud/TDhU4BHEVUM02xU9XPPvv8xz/+8YcffvjixYt33nnHU6RtKMPMmNn9r5uC15c51xDC9fXNzc01cyil5Ly0Ms6asXq0mKbJDJmJOQxD76G8VvEdqtyEeQwRSykPDw8i0vf91dX1pg3i13M+z9M0ApgjOFWz18poBsSPjXSAyCGFiC1FRCBqjC3RoMZqrOga1OiF9TRbRSFgRAJbqLrkSqCkBAawTLNX5wRQDRkJEAspmLHj3gYohlWn01gQuU+RmRBRjA3KUuZl3uAfv8ObF/DHvBXxXtK47CIxDkNvBjmXoqIMKfV9n2qp5/OUp5OKqNpmf5eH/9HyEANSiAEgnM/H6XTMOWuRGUHmq6vra2YipSxZFZCpVjXAqibLogApRdM2qmgEYOhNb+bgQ9fo8/GMu13Xd0G0f/X65TyNIfDdk9svPX8eQnj56tV8Gl2n1eXbZZ1coPW1Yg+KZkyW5/zw8s2bN6+01hDSMHRENOxvIpCJsg84AzGRqNZa17SSOJCL7hgYkrUVr0tuZIVtuMAMAJiolOJn3POGEFisSdkAALnGWqvK3OVRI1aBmUitxUTzNB+Op7qUmKKWfH1z2+92WcXJ6jnnkkttXCpojP3Va2/hHxEDkayd6VqriFJs2x19cYyouCNclgWRvP/x2JhBxFVFjZhDjJvvDoRgUvJyOty/ePHKzJ7cna92+2F/PewGURVTNc3ONjDQKiXneRxrrZ6gu9oBqDFSYEZAAlQDjpy6BEhVlYliSk5kaKL7Whcp53GUsjCR418EpFU1tgaTqjITKJRlTikN/a4sk9ZSlul8KEc+7IddPwx96ilwjDGXvJX+Hj6dCeF0hxhji+srMOs76pCQDH2xXuCgLFpqyaXMy/X19dWwSyktOZ8Ox3Eau65zsTBVXwoAyHQ9XHsSBqqmlmLc9cPheH84H8bTWGphCqnr+t3gaZhIrSKp62hd0ekrC3yTsx9/zyc825BVD7CULCIpdbVWNEgpMTqSZ4YkWlSFkIBClhwCBh/PAaymBJAwMlIpRUWQKDITkqmBWV7ydB7VLA5913f+Rz0U0ZrgEjZpyM2mLuvmDav2X3H2yXkcibCLXcu/iUopUgv5jkbXoCSCtYZEopjSChIgAJTifs9cXsy3jZRax+NxPJ2dD1tNbp8/QyZFQ+YUEqjPfj727rZ86DIMhxCZGVYdiMYCaV1Mh8ldismQoqm5VKMXOSEwgAH64lLnFhioqVZvZAQ/WrUu8zxNU/MnRO7oGuLRwq5Ym6YyM1iLZzVVbxHQKqDpDF9mzjlvykaXaaiqAyorbG9QSvFxws2pegfj4eHhBz/4wccff7zf7x9LxPasPSPQFQWAcZxyXmqVEDilPmw1PRFdX18j4scff/zixYs/+qM/SimYac4l51KrA5FuHAbGiOgziltScsmC2d7zMqVag736A9vtrlKK8zxfYra24vClFGY3e+da7xHBrGkDhBBCiC0NRPTiQFX3+/2TJ3fu5UMIpZRSKuKhVt8zBBsJaIuiW0Bdy5eNldZIO0BEXrIYIqEqVLBsWmtBBatmpoJY0dwpc0iBgo9yuTSFmVXVaq7igyUYmsWqaGo++4dASARY1RiIkAISmLkEwmXVcnEbH9uQfjBEBAlVNOdlmsbU9cxsqjFyv9td7fYGOC7zeDpN5wN4R5I2rG/dDnCxzKWduCqlzuPD6XQ4SKmoVkop41RLHna7/uoKiAwJmnAEIgbA6iw9r563QpYDcwhI4DpFLpzjHtPMlrKYydV+1w/DzfU1AJyOh/tXD/O0+CTtNhZ46Qi2KMsEUOH8cDzcvzkdHuo8y1IyTHWOHGKKHfUDETGxNugP0QceXHazOUVz/hASphSJUKpIFf+jGylHarW1Z+lRyic81GQzpLZzyNSrMk8sWh/VjBFyrdPpPJ7Op8M5z0tglqkgckwphqC+GW3VGL4ops098sYZMm/btTKm7R8OTcLEz1ows7xkr73NTLVibTbPZuBv5bnFOobdHhkhmB7fvHn16tXpdB5Po6qd7h+6Yfjyl99/+uxpSBG4+X1V1SKlFKmNFuIld2AO1JBRFnZehprmXAIvXT/4BnlD8G2shpDnaZmXcZ7G0xnB+r53yhbHYNqqF1EhRA4svn8Gwepyerh//eLF6XjMuQDQeRi6vnvy5Fm/23EM4sNOqmZWcvEyyXO9Wqv7ot1u5553q5EIGBGlSi01xRQ4ZMymmlLqu56IfAvgPM+1VAcIXaAxhCgEtroQcAIDoYkt83S4f3M4HM6n0zzPYtgP/c3NzfXNbRoGH2F1b+RGLutq0K3359/cJsM9+QbAWms/7MDQmbmwzruxi0WIigmgAJgCagD3iK1Twqyl8e4Txy4mFZnnaTmfy3me8ryUzOc07He7YaDAbnu4jWWpmNrGU+ZVms+D2UYuoZVnbmDmc08xeFNZqzAAhYAApRY0JUCfTvdUBhG7GD2+IjrHRZ0Ig9S0H6QsZZyW4zmPE5iKylwKBY5Dj5G6ridHIcAMUdeGu62bEPxrz5m2Af4QQvspH4ZCtLajGENAl/6rUrwmyXlhrqJhPVjeazNTE3W2LyIakbO4VXysolY182UffdfFGDngqjnQoCA/5O4JRUTNeN1gbmZq6rLLm81sNfYlJPNYRoLZRZetzQcReYLS9/2yLJ9++qmZuYrENo5HSEgI2PafQ6MVh22ZqJkFL4y8Iry6unJH//r1a0Tf2l63hquqxpiYQs4NRXTNxJRSKdXPwBfartsZ2F7+HV/yjAi+jHTLZ7efd1gicEJEBPYBmFrFTKAtMq7W5M8e82J3ENAGz0IIySVUmUL1xUqtHfVWlebpzuPkgKek3t+ATdDClEAjlVIB1BCCD3aJuUKloJkzGoMKqig6lw5gtapV37qKIAASUETjUAk1hNQNNYSqCqIBKRCTwePg3NuDFVukaZer7c4CoKnmnE+nUwhhN+y6bnAhzjxPh9PpcH8/judSsoEiIgKGEFKXAkZCslUbezNBMiilnI7H08OhzgsThUAqWPL8cG/jON6o9rsdhsTIhFylIrrWzJb/OpoDHNj1NYhJBJEYqW0WeHh4aMCjWORAgOPpdHh4mKapZq1FS1l8We5ut/P62w+DNY4OIJpIPR2Ob15+dnx4ILMuRB641DqeRwpp2c9XN5BiRA5Z6iUCZGv3jThuh9CZjzEm5qIrWR03xHj11FsSlmu2YltThZkBkBE3H7SdZSIiQFGr0zQdTmXJvqmzlno6PhABx3BzewuBqqi5/ioAbztuVqDCd7YhoDrFfVO0BBcRATA1cEFbKLmYaS5ZPViC5SwOKIb15S0B9E+3rrlX0zKeX3z26We/+AyAUkoIOh+n4/1BSgG0u6dP09BrE6ykWueNY7jdTGaOKfryIE8JDazWBqcah5QgUCDCFAMA5JxrWZZpXOazipjq2dn0gIyMEVGx1gpiSGCAKUREE5Xjw/nh1av7Vy+nOTMgIr4ZJ1VLHJkReQ8Aoirqa+yrk4jFijvWeZ6vrq66rvNa06mCSKRSpVb3vmbmEZoQU9+nFEsp92/enM9nVfX7mboucgqRDSCYEaJ6bqpGSJG45PLm/v7w6vUyT3lelmma5nk6pWVeEPFpirHrXHVja3ltmSUAbIHEQ7Vj1+M4ep4RQxeQldFApVZGjMzauOjVJfORCJlKbeMwFFyh2UeTxEyYKQZmhjwthzdvTscTSAVQXZb5fMrTWe5u91dXHBIi4aqCsDabG2UA2tJs2C7eTcLrSCLMZQox9n0fY3Chv5oXUwvRVxuomQEBuN6GFytEuq6IMlPHb1rUcE6J1HmexsMxTzMbmELNYiLTaQSmyL1nWj6euU6JvIWpXN5e/0MxpRCiagFoVAACVPDTbsyRyESKiCuMaRtpN59ddXIViIj/AKzDU6a25FyXrFUCMcSYS1GR6XyWWne7XU9E5HpGDGZI4FWAt1yr1FIKmLUtFtXIlDkytY10lzXYVmZchmNcBXwdfFgjLGy0MCIOIa7HuZUouBa0Dbohc+EA/w1mNoNxHAOsjAxvfHi2vq6alA1kc96YVC2lCb25fweADY3fkonL/GhzMWs4bH1xd0Cu9hjW/SC08geXJYtACsaBci7jpLVWRAqBVGVDR9yJb0rmy7JsHN0YY4xdrfV0Ok3T5II/COxqJBvlvvlEe3T/fo5dhMVNQAmVsDJmwhCimhCzDzVGATYjhIKNT20hqM9kAa7lpnf5EZDANDSYHBRADCphZrIuAQcgBDVQY0QkihAz17qC/5dmAWtT06FjMjcjNGiL1D31jjGowsP96fDwZhynnHMtBahpsgCAI72t1/4FWqjj6rLM07wsmRGHPg2pn8I8LVNVzTnneYld13UUY7TiLVEvgL39uQ70mpJRjMGROpMKYKZScnGpK1y57tM01VprLlWdBxB9T6auGgO0LljXVT3CS6KyTG/uX55Op7wsQ4pDn3apE5Hj8VhFpvG85DkNg0s7bfbZ6mxTUABIG2sHVsw2hCC1jQ7g2tRLMRKRAy2wbmdQU2dmXaTIsPnWLTsEREKazlM+T3XJkfhmvzPFw/F0mObpPJ4eDiGlbtc7pRa2QSdpyhsO2jvW6BQ6r4kBQFViDLnUknNg7rqemarUcRpdhyyrbDfNZ3cvk3I/VLbJzxCZ2HQax8MJi+z2gxcxFnWep+PDoX4pExIzZ5Vcq5lVlbxkh2G9p7Cpy4cQ/I75Qyy1AlNeyowTg6UhIFhelmWZ5/Gcy1KLaFms1CpkqL70rovJ9cpMFQEDBUJNiZloHMfz8Xh4/ZrE7vZXKaZxmg4Px7nk8Xzud0Pa7dzFu4oZMftlOGTV911K6fr6OqWESMwBAEWEmEupy7LsfLdRrYEDE/VdH1Ostc7TNJ7POWepdVmWxxqXIjpwZeAphYEyYBdjnueHN/fTaUSpCdk4LjpN46iiV8NwfXWVul6bcRqHcBkeNgMbhmG32/GjOlNDp7quQyKooqpkIAYQfLpEQRsVpqqoFG82AEAkVGg7nlQqIARmZjTRWkvOi+Q5GITAHYdaSl3yMk0pdkzRSNVoK3ZhpYM4xOJfbzX0Zg9+fk2VAAgxcghEkss0TaUsywSAQIEaBzzFMc+1iKp5X4CIAMTPXQsFjioDIEItNS+zivQhAapidaE/RAwxUGRjVFHyFThv09e8yvcesX/tumRM7Kr0688TA9Yqy1IMZq9DmD2GltYHgGqALuwoqrVmERFRZowxABiYrsxV8fkYZ1a7RTa+MzoYgASEhGufzkS0lqq1bsPMLkzDxN6juQiRj4XiFkFaQGkltjcZGoVZRLuOPaz3fe8q3dM0m+kqbbUJcBliq6YaA8zMXNDXrIF+3qfZjr2ZbTdXm8w7qhhFCCG2Xiw1+szWV96e0GWSsTUXLj/qY+q6uW95hJHdHS/LwhT76OR/raYcqOs6WJec+Yptf4f9fo8rnaesr64zqVKyg0Zq1lhcl9mP+a4H2EaWXD+gDSAi+oivVQT0faKBkFMlYuIEQIJJV4YpowJUFWOOw65LKS9VVcwXBmBjAwUwJFPSglDAMlhW0ETqzTBCAROzSBhjClqda7bV6NsRxZWpysy+WREQPIUXETTN07hM5xDi+XR6ePMGAPphCETmvDlfB+1TEwBI6CLN9KgmYlatqlSftiAyRGUfejJibBLrALHrYkq5TE2vkwlAG5lMCyKotu5HjLHrUllmkSxqnKmWRaWEwON5nKZpGsd5muZ5UbBnd8+Q4wZK+cK9rctG68SpyyXlnFVUTSlQ6rrUdQAgUgA0FxmXeZrmtCtdikC45OLP3tOU1Uq3u9tYaUQQQihUtsxVRJhpnudlnkutu2Ho+r6x1hFFBdfNCBu00PjCq72RN2JE2CAhxMABeC7zcj5KqYWWeZykVkfPvVuPG4dGhNbOOti6H9VsE4/wHnAtCwLE1KnV+4ejtyxvb2+f3t11KYpqLhnFGZ2PJLsv1AMtXCGCKIkFwhQoIM0iy3Se5zGmCCuCom1gQUTUly35BW+n22udrSuPm3qHaC2FcGdaX715tUxzqYvWGkNwNHgqUk0UcH1PJySqQaNksjNkiUxFcs7zkpivhwGApnpmk0Q4TdMyL32uvk/bHY8KGAARpRS7Pt3ePIkhqeqyLADo6UuTmogBqsync+IwpA6CTufxcDjAymiZz6NXDmgwjSNQy1oYAPhiGUTjkKlWkXnRJRNYDIwcRuJlnhdtdFRQg1Vl2MnY1lYcQN/3KSWXcvHszWtrp1uZmYExEcSIBrLk4+mU52W3G/r90Hd9CDTO1Tfjoa9s8MetVq0WKSCWQkDEWsVKlpIJoONAqlIrmkZkIR+8UASxJvO2VbGtqJML1Zmu6/xmIqLPAJuZo2ig0nJEREBgxCx2PNzPy3zz5ObJ3R0hFah+D3Cd7Kn18YgRhTXsKAAqgJoWrabFlEzV1z0RIzICg5G5ID0A6Wq9esHx9+6Se5Wu63a7HblAJzJRda6D0/+RoNTlfD6LyG646ocUYwCsalVNUVEUWAMQ+PZ1TyAQG6FBAUKgutgs1UOw1AygMVJIhNQWVfkcKbXdh2pmRZdSRFU5xt1+33eDGYJNZpZS15acXQjnwEWvZ6vH7LKQXvmqnqc69OXqQfM8exz0SvXyd9s4IWxCmo6qIKKCQfgHP21bKrAFezMxI1s33fkFOQrt//pCI8O/uAyE2/dhbeq7Mszmg7YPuX0n54zAPpQFKJg3V4W2TnX7iFwIYbfbrfkMOkcaAFLqxfcuZ3d2aL6o1x4ry6ZPcvkCg0bmRWy2jEIGhEAEXcTECEZAQY0rBAECMAJgNgBVsEDYxzAMYYdaaq3F2lJKMxNSM7TKWgIYWlEVtWImaIrkKxgFVRF8/5qtMKBn6CJiFyW1VwDNryGpGrP5MT6dzofjYT/sYuCuC/M0T+dTCByHHVEg5rXV0x4/IjpXaDtmIhWYQ+pSP5tqlTrNUnJWMwpExMBYTMZl7gxS6u/unviZXJZ5msZpGosoAbpwvzdl+r5b5mhZainV2XPTRMSn0zGEeL2/6kIq+eXp/r7jCEBAHvjfYpls1rJ2iEzBgFnRJxM1l3yep3EcEZF964/jHEhGqqDsZQ7SVoX4dDg25Kbl87y6Sz8LtdZlYSf0vPPOO9fXNyJ15QlhzRUA1xx1hX8vr9vNCSyFJDFaiKY6nk7TNNVcaikcWwdaVLLIPC+gysRCj4taYkrumtuZNVhLD0TEUrKZptQB2MPD4f7+HtclwL7oh5G7rqtzNWeErRSYy3wC26STgVkMYej6Mk1aRKE4r5IRhq6LMYpqWXeilJzLMptZ33cxxnmesWm1tV775hnMrE+dilapaCZLHsfpeP/w5uULDphCFGYstUuRwWhj/G9EOzMkco01b7q5VFOKcd/3zh6tc57PZwK+3e+vd1c+DlpAxUykgerLNDnG8M4773z5S++GEH/+85/DKmK7uQgCFNV5BS3GcXz58uWrV69zzsPQD8PODyYiiioYSKl5Wdb8D8Eax5aRfAgnEO+H3Xz/UPIsGaua1YpqyBiIEscQgiAgQK5VSsmljNM0zzMz39zcXF9f930/juOrV6/89jaVLRfVBUwhFSgVagWQUs6nYymzmhABMoMqgqXIJo/TCG0bLmBKIXJAg1qK5JxrraWQGlapOaspIASKXYiRAyGBE3JXLkUpdVlm/8F9tQAAIABJREFU91rd+kJEH5ZxD+Cog4/StsUsplLFRLsUGQ10TwSmsswjhZAlazXHkABBVme4VaoedA20DYYEQMRS6pgFzaqpMcSYMLIPv9naXdIqtYqjpG6r+/3eqyPPijbr9aSQ1u6n1+dM1HUp5yXnPE5H0a7rOmZaltlarapgQsxgoM7pbmlQ65HP07zMc56XItU5Fl3XsW89iTGEgGv5bmAi6rmj9xa8Ndn3PRHXUqGttk4+WXMx8+JXsnlO3ByHtSmFx7yQVg7BNh++FUhbS+4SNdiC++rxwB+qgTWW0NYM21pZnmaTL3VXBARqUI+uuOujHMVl7rO5p8u/ahcQsV+tl4C1lqa6GoJ3YUupOS85VwQw02WpANkB2sBUSpnnUqvknM30EgkUESIMIRJR16WVbNduh4itevBvUX9tK/ighQHPEX2kClddAzNTIAlUI2EiVFvUCHz0lBhACYGogioRp6SBhbAWqVpFKhgasqGqSlADhkwogSpZNcxFi/qcoTH4Zg8SU+/Lbc3dNautxOz3M2ycqLU95AVuTFzn5fXLzyTnb3/nO//8N/6n2+urH/zVX/3whz84Hpa7L73LAM7mdr2Oloav89n+VkRUqyBRt+vUdss85TxbllILAMQQYpdClwzhdD6XIu9/6cnz589iTG/evC655Jxd2tZzW7fOEGJKXYixlEUBaq3jNEmt4+HY9/23vvXN//6//e9S133/+x/+6Z/+p09/8Yv3Qnf75K61sdbW1dupcEvnmbkb+r3ezOfzXPLysNQ851xUjGIY9sNwNVBkFSm1aFVq5MetWN/Ojo+bNtVzXbMNNSvLgmbjPDLxN7/+9W9/5zsA8Ld/+7cPb14jUhq6EIIzCi9zie3orgEbwGy/G3SeZprm8zSdz9O8EAdmHvp+v98TUc3FGbDRM2l4lK2MITiG1ygVmwNpo2swDL3W+uLFy8PDQ63yjW98/YNvfUtVf/rTn376i89DCH23a9px6uM5DfoAM1rdqEEjp3ntUroh13JcDqVUFR263fN3nt/e3ATiIgIApdTT+VTmuev6q/0VIp1OR6/4NzeEaxnlJQ6CpRBQ5NXnL2otAfGffvWr11e7mvOrVy/Oh4caGIgUEkZsXNjG1Fu1SsEYwVrHEYdhuL66efn559M4Sam5LH2/2+/3V1e7oe9DDFUq+cpN5ul0HI9HIPryu+9+45vf3A/7jz/+xevXb7oudX2nol63GZhWUTUkW5b54eHBQJ8+vfsn/+S94/H46uVLUZ/aqX5JCFhKoWXx/C+wd8fRDNowARgF3u33xxSn8Twvk5rlnJFw6IehH4b9sNvtsooPLNUlj+PYyuLd7tmzZ1dXV+fzeZqmLQfy8tp7YloVCGopUuX25ubZ3ZMyTa/v3yx5ebh/nfqOU2TAWheCgMhqYtUAgQJ3IcYQI7OpAijQDg1zP0/nKY+jqmIKMTJFjqENpBCHmBIheh9zWZZ5Xlz2++bm5vb2VlWPx6PT8rwIxpV5g9RmhEAll8poKcV/+rWv3j65mZfpJx999PEvPlYzikEdQ0IEsVqrXYydb/m6y6RyDE+ePs3jUsYpzyUgcgzUhTh0MSVgWlWWgYhQLOfpdDqVUoZhuLq6urm5GYbBUw0PSetZJtW6ljFOEoWY4vXN/ubm+ng8Pjw85LwwU9d1IryWyiZSVMXMFIS8v9j2qYCpxhglxlCqrNyXYbczX3gYIhHRmgeIWhEppdZaahVETNG7NKlmdUWitecY1coalN1DboJO1g6ST82unmkLzRukAW0JH3+hn2CPUw7eCkFm8g6yfyaAlhIEZvKSw7ds+685GoHbeJ05GUxCcM4iiyiAeL7PLv9C5FmeEyZWPUe6LFPWnIPMcH2HMk1zSinGRNQS2xCdJEIi9XQ6iKSYEqAhYs5F1bkkbVlJraq6+M4tl7T3WR1vyNUqajVG7rpgRjkvgObyXy62AQQONRoZMQKh+pp0AFRAEVQ1dMVsQgCqvm/CVeMJkHJz6bTNPEuR0aY8Z/HdM85gNgQCM51VVbEq1MqFUVBRCVUJoZoZrp2ILVD40/O2lsPXXrEBqFlMqeu6XDICApjWYoxQqCN4frVbTvbLz5/+1q985zsf/LOvPn9y//nP/vP3PuxSur57GtOwlEIhYYhAZMgbfAYAIiK+65UUI1NKIEWFq6oQUwgYE4fEHAKHmvMyT7VOqmWZy+FwP01nqaXW4mkvAoBazYUD9d0QkHZdV3I+nc+1ZpTKKl+++cqv/7Ov/+b/8J2nd0/fveo//9n/95//y1+8efk5Ml9fX+/iYAaOqdrKhfZwyhy7jphDSqEf+qkfH968Pt7fi1hIPQHurq7SsPcNmkVkHqd5HJm467quS1vsB0CXLiBEoqgKWqEbdkWgnEckMMnH+zeI9s2vf/1f/9avffDBt37605/+7X95dfjF/88cbp4+xV0fUkemgRMze41jxOYpOkATswXUGHh/haWUXEoMEAgp7FN38/Ru9+SGAmepVpXAailFzMBCjB71PXFpIJO2zNhdD1Hs+wgqU5nvX76oy/LBB9/6d//2f/3V//FXP/roo9ef/Ozjl5+a4d3z59c3zyxEIuQYA/E6FPKYCdUqqoupYkrXz59biJ+9/PwwjojA+2F3c3vzzjtxtwOmMk/TPC3zWGoR1aqFCFMXlxIBbRiGEIkCaFYiCNFHTQF9La3W8TgeXr/cDd0H3/7gf/lX//NXfun9j3/+8Xe/+90f//iv5/Gc+qFL3axGBDGEwIRghOuUjVkRM2BkBApGIex28eZqvL/PBN3tk/31Vdzv0/W1BF6sacapiuR6PB7ytFxfX13t9l2I5/Pp5YvPTGuKu8hUTFybCAyIGdRU9fXrlyHYd/6b7/yLf/HPf/mXv/rq5cv/+Pv/9/c//LBU2e9uY4ilynkqW3LmzQszi4iuNVcBoRQD6K+vds+ezgjn17osC+6GJ9dX17dPh5tbIM5S3f0v03w+n6ZpmucZALquSylN0/TmzZvz+bwVY94ANbMQaL/f1Vys1sT0/rOnH3zzm19659mPf/zXf/H9v/jZz34OMt+mJ33Hh3NFoiqFkd1jo0KMMfodJuSugwTIBExS82QFzCBwTH3oE3eRCEMIxAGt9elqqTXnUnKtdRiGYRhubm7O57Nf3tXV1dXV1WPRDwAmIXCfOmLKS1lyiTf89Q++8Vu/+Ruq+t0/+I+f/l+ffPrJJ7dPnjx/712MndSal0VraTkNrYCle2MkYiSiwPHu2TNQOz8cEaAfeuxS6DsMEZCYAgNVLedlnE5zXqpLxhGRD14CgA9/7vf7vu9b8awukfkoLSIqgcO7X3737sndi5ef/+hHP/rZz98sy/zk9vbq5nro+/P5PM+L14YhBHKBNHQpFAQD4BBC7JCMI8wBYkEAd1NEiOTiaaSitUKVmstSs4rWvAgApNCBwniaaxVV6/u+6zrHJsuyts6VGwe5tVPR1L8ABPJ9RBcOUB1VMtN5npkJMUGTdTREc7FRj7NeldUqInWdj+VWUoGqQFNIxJXTsQIJlZAJWZu0uqk4nchqFeYgIl3XpdT3fVfrYgbMb3VVLlGBFUtpKKZD0K5p0HW9GabEw9C5Psxul4ZhANDD4Xw6nUquQBAiEwZPkWKMzthHpK6LqlZKJsIYY/HtzyJ+0IZhIKpEdHV91XVdrXI+Hw+HeydoxBhpVcoyNxn+r229+Zckx3EmaGbuHkdedfQNNHERTQgnD5FLgqcOUiIl7eyMZv9Prnb2UaJEzo4ogSCbuAECINAAgQb6qq47KzMjwt3N5gdz90xAyveAV91IREV4uNv52fcRkpKxMSMwB44q/UyISIAYmUDIxxhiBOiNYcBEPG9IAwiFloky0hAiCgHl1QAkXAFrShxCVgMzQsxAiBKFAiXHoXWljMI1Rov5WhoSBS8xu8q13Ho/+Lb1w8DR98vgYnjwwSsP/skTvFpeuXg+nhzRsPj6M08c3v2uXy3vHJ3GboltrY0hFhQkAQWA6hQli/AQIhl0zjJHUzknDRhDIRBR0zRkSKmArbUuxsVicefOLUSoXOWHTmcTDJEkhWdQnl0EtJbGbeu9WQ7DolueLbrayLNf/OIPvv7Vb3zpsbab83F4+Pzs+9/4siV+56Pbe3v36rra3toGIT02pSSGiERgjMttNddwqFzDgH1kP/i6qdumnc5mo9HIucpawxw5Dt1qxcwxjoyhPK0gHAQYOZMMS8RITK6qRm21qk8OTxcnR5WBLz/95A++8+3nnnqSw9Ad3q386nxrQdDEjtJDu8oRGoyMZBwkfqr0/pXUvxeQtqlkqyGysykgcJS2bWazLdfUyq4RQvB+4AgxpOa64v9RS5R5XqzQ/IbASKapqrPF4vToiJifvnbtv/7dT/7bX/8IAT/8/RvUryoOPkT0PYmQs1VVafNFTTKsbXQqAQqzraq2qtm5hbA0jWZFdTuqppNAwBz7YViuVt4PMYTe933okXAqUyKsmsrVliwCSmSvspqSBA7ZOhv72C2XCPzEow//Xz/5q+//4AeTtn5ZwqRx06pxSK6uejI+ChnTVJlQ2ACi5J4RI4AjKyTRmnprsl0Zrqre+8l4Mh6PjTVmNGLm6ENkHobQL1d938fBB+/DEE6Oj999992+70V4Oh07ZzHJdIlwBOXGIkIWHwdnzSMPX/rW819+4PLld999px3DannkbLW7fcWZ+mS+GCI4bQXlAWnM7TEhZAHPgoS2bbcfuILjEbTNcrWqqmpre2s6mZJzYJ0PgZm99ycnxycnJ/0wLJdLY8x8PtecTdsiSiKu38yFtzSHgMYOy2Xo+kcefOB733n+4cuXjvbu3Pzw/cXRMBm5nZ1Lo3FzuuiXXRAWRKMDFYiR0OqEnDabwFI1aibnd6GtQvDMXLmmamrjrCLURWToun4YhmFQVxpiXK06Y8xqtTo+PtZcsWma8XisuetGqslEZCyBASDqgx+8Z+at7e3xaHTpwgUO/uTgcGs8efDCZRo1pycnR8fHwzAQQmVJMomgzoMoVlzBIu14IiJQVQLgnCVjjLPMgoAWDCL6yIuzxWLeURbiWa1W+/v7iGit1eXVGQUt64IIcBa6UwisBBRwxu3sbofYG0Pz02NmGY+aK5evzWazvb29+/f3V6suRq4qZfODdDVIvd3IAtbaBhyCqZkQWXJiLCBAwqKqw0Pn+y5EnVDyAQG7VQ+MgGiMGY1G0+msrmsl4lMJOBEFVKKy1SPkNAR0+O8zrlkSJ6moHp5ywJ6dnUXW4gcKg6qTakyv/lx7oGoTtLahgHEAsMxSeoraCun7frVaCqOWAXImQ4U9wft+GPxyeaZapojsnA1h0Hp1GSTZqFfDxnXWQy8AYK1p20rBJsaA6liOxyPnnIiJkZ0Lin/G3KbVjzFOh12ZpetWANG5qmDEMNMMlK6eMZY5EsnJyZHeS7lUui/IaZskFQbPwUsEAEMIhkQwCgQAFpboh8gqykyCRECcAgu9NJCgRA3yVGRY1xAEo+rhompnQwSMygBBGhSW25HC85qWcQNaW8QGjbF1DdPZDFCOj46Wq058qMxkd2fnqaee7E9P9+58+sbrr1UOv/7Nb/6ff/OT3Uvn/8c//+rTe/snJ6fonK1HkUMCb0p6KUbJx3Dj1zEDQt00iOhcVdcVZx0QdczLxfLg4EgEdnZ22rYlwhDYGBOCagJlmS6QGIGswyjW1kTWEDz28IN/+ed/9vyzT1G3evOVV1d9/+AjDz//p88+ePXKP/zihVf+8OHp6elkPJlOtwrauaiQA2BuhyORjRysTdXLvu+NtaO2nUynTZ0ofYZhkCwy0ve9QsnUfHjvQwycAZhlt07aFre3D+5+2q26L3/52b/5q7/60688t3/33q///Vfvv/fepfPnnn36KWD64M6tg26xHGJVtdYaRkgkThlhKUldKBHKIlHTtsY52WBnT7MeeQ6II4chDN6XkLpMiqtFUIyMUpmS8v+BAEht7XPPPPO3P/yLP/v+d+/cuvWbX7/w2uuv70zH3//ud+dn86OT+Vk/ONtYZ6uqQiKVpmTFYIuUnQx5ievx6MLlSzvxvJ4mrRRpBd4PgzBLlDD4VT9IDGHwEmVra2at5cjeMzAqnhryVAsSKb147/vZdOvZ55771re+Ndme/eH111/49W/u3tvbPbc72ZoNPn68f4gcrLPGKQ7UQNKCKqVcFAFhIWOaZmLr2tZtjKFu6rpqRKAbemb2wfsh9N2wWq66oVeqvcVycfv2bcX/X7lyxblcahJR6xsik7DqdRjCqm0Y4Pj4uO8W13/729dfe2OxWDz0hYsXL16MAc5Ww2RSm6p21mJOza0xKiusqAI0oGojs60tY62xdhgGa23Ttq6qjDXWOR0aXywW87Oz0/m86zpNqYdhOD4+1hBTraKWKzSb0oUlYyzhsOLF8uzw+Ojw8PDk9FRQfAxny4WQOFfPZlvk6i7u9X6psC2DRGAkSsBQumuURoWkmYxMbfzAkVlnEEsPIsbYe991Xdd1So8raBSJcvfuXWVknk6nOzs7Zd9SBp5jwuEhCjlnXOX64D/444fXf/e7cdu++fu39/cPkKgdt6PpuB5PmHm5Wg3DEEI0tjKFJwkyTiyyMBsQNGCaZpqdWgxBDzNHVu6FGELkSJC2pS7j0dFR13Wj0WgymagdU9NnnQVBTqSdnCINwgh8cnZq7947OTmZny1OTs/0yZqmqaq6rhsd41xnlblHKpkiwBhj4POOMsVesAaoxhhC9AxRhDXNMNYoYVpV1bPZtK61YFHHzBoSos+HI1kdBTVoTwIw5XuY0RVaRVKvXUBRfd+zBGutqNybiuQKFCZQIqqqJCNSVZXesNooy8zj8biu62EYlOXeWmudGzVj56pNEGl5dmPIuerevXvHx8dVVW1tbemsIACXvlQZxsM8vIBYpmVQwxfFSWjsw3lyVQFDxtBisfKp0Zwml0pNpQA8k55SGKqqAsBMFRq0VH56elrQN0TIzMOgnBlYODD06Tb9d9b9EbWzjAKIAQEQjVBAIkIRKxRVRSnNpgIgEiAYwdRAFmCOhGZdYU8TJybpewMyEiMIIBujYsmImEVokgMqywjrjbLeiETknEVqRcLp6ZxjGtFZLLv9/YN+fvre++9PRs2jX3zUGHrs2uM4aucd/vz//9d3P/iwGo2m1gJlmsUc/BljkNBiZrQmIiL1wZWemKYJIajYug4wN21rbZXBGYZoTQq59lI5wBQwVTsywwCIuzvnrj127ZFHHlouzz56+623XnmZELd2Jt/81tcffeyx28fLj/dP9+7f7/ruwoVLxhht1kLOqvVcqBsQEaSEwDJEPsOvFNetxlcTAsVnlSSvrGcu0qLGVShoyBggAzhpJ9MHqi8+/vjOzu6nn3z685/97PqLL+xs73zv7//bt5//tgD90//6X7+8/hsfhgbAGAuICGaNa1rDnlUIRoiMc+mw6KrpHeqsZoktur7v+0En9EqUzBucm5thujAH3xmUc+d3nnv6qccefXRxNv/FP//8pz/9ab/q/u///t+/+4PvHx4cvfi7l1545R30Hoh0mjHmgQUpWK9EjIHMHAUQqW7bRmHaIj4ExWyqgCdH9sELc23dKoToVfYrQaA4Ri8SoyLOVKPEWeMGH4bgXVNfvHJxsjW7fW/vpZde+of/9//53fXru7u7X/7yly9evLh/eIKHxyCoAEWtuGo0JbmelwPwxHtQVTVZJ8zWWiLLzEPwipnwPnivhYoheC8iq9VqGIbpdKpGzGYiS96gzVZUvnZ7AeTmzU9+9rN/Oj05evGFX7//hxvXHr/2xBNPzWY7e3fvi2A7GilcRsqIDYAp7D6S/1pSi308HjvnCNE4a5wxZNJ0S9ctl8s+bwbNDvVnDSwUFMn5I3k2BAhXfT+EULUtg7z17juHx0f7+/d+//a7i+Vq+8K58daOrVo01lBRpRJDBoFEkEOmDU31NSQhQyq1yCEotTxkHJ7oemoNWDfM0Gv9YlgsFnVd7+7uKsZQ8lhQ3rcFlagoaVdVFUe+defuL375P0+Ojz/84MZ8uZzt7ACZk9P5hCiRG1mLiLhWCpdyvqIC0WKw1gpiZa3kpjwkW5qoL3wIwBg5hqxPq7fXdd1sNptMJtvb22o09MhqsVmYhTFPaCKzzOenfd8fHR2fnBzHyGRsiGF//37fD/P5QgmiSt6OuC5CS67uF5OrTxE3ZHpKYKFOre87kZRdK94OERVF0LbNZk7yGbR4Js8rkQRkoDfmaU3aGAjVn5WOdnt7+4EHL29tbXk/xCgIptxwuXmNyZT8+vDwUDt0RGj1plWRj4gef/zx55577gtf+IJSWcBaCS2fkwhIaK378MMPPvro4/fff+/s7JRoS7e1bjjMyumIqKGG/ieRzA0iOiWshZw1R3WMcblcHB8fheAVWKbnfLlc6mPoKpenylwa4lyiGizg8xRsZvrS4or0BOqJymOrsQQWZbljjELIhjjGQYENBEImEYNbQwAEVIZIlUIeARLcWSEPMUYNUQnSeVLAiv5oSJAU4w6p8SZC+UIbRR78LG6xhJnp72NExMl06/yFYAiWZ/PI/MebHx/t3YFhqIw88uSfXL36oLUuDJ4Qq6a1rrY2STgkdAUAEWzsLbBYZfhx4nrTqGI0GunoByIuFgv1I1VVnT+3DaCD5knBrhySFLhkgY/xdDoEPxqPz5+/uLM1Wa5WL7/0Ure/t//JRxXy00986YuPXN2ZjQ5Ol3ralJnj5ORE530Ku5yWmTG1D3M8KGKMaUejmhkRFQupFtl7jwBVVakVA4DCZav3WSoiqYQIEjl0Zyu/6nZ3z22NayJ67eVXP/rwvRf+/TeT2nzrx9/8L3/7d1cefvjuzZvOmRBiCDHEKACGDAh6jghK6SEpxNBtBoZjKpEBQmSBGAltFIlB/KAFT9/3A7NoCqXcTZC5N8p2hWJbBSIPaKiu7KhywvG999/du3P7Z//j/7t7++D73/3a3/zkx19//ttvv/H6G2+9HUKwqkgWQ9ItENFhPoXv6uAxEnKMvVrefPNJloJZcwBmDjGEwYcYEbGpqtFosrU1dc6qVfXDoEpSynqruLko7L2PwuPprB6P/vjJzT9+/OGbr7/+8vXfjpr2//jmtx586KHlYrl3f3/V98ZVmpxQEoURziEqSyY0DDFGHrw3yg7G0PcexCc+ZkjprD6cIbPyQXnTx+PxxYsXt7e3Nw1ljBET31lSqyKh1jVN3ezt7b/9+7c+ufnxp7eOHrxy/gd//sPHHr327jvv37q11/tQj2caUWnjGbOuGGiehyCc3lfXdYJojYnW+hgkRsM2StTkauj7fhhKNUsvovH9eDxWBovChJjmLAB6Pxwc3K+cq+t61NTM/NGntz66+fHdu3f3Dw5s3TbjiQ98dDon60JgQrLWOOfqulHfk1dJQlAojCrb6OCzptHCEhkEIzGLzseGEADEGLTOeh+VHB0Rt7a2zp8/r1wApZKdO+9syA5D4Nx5qeqWY+y9P/z01r27dxfz+e6Fi9PJRAD27t8/61ZaJUWyuryIoImiJgMsmRwBTeRU7lfLEKMgsEqzaokihAiZlps2RiGaprl06ZIGQ4W5UZNNQlKUAjAgCYEwc9+HGMX7YTKZXb50uR9Wy+Vqb+/g5ORMf5Ha6RACoiKZOHl1hcQxYxYGxvUIApV4oiSQmtcxM5GJQbwfNCQdjUbb21t1XSmRfxo3iSXg5BLHZOcLuXy8RldsOhQiUjbCS5cuPfPMM88+9/SlS5ebpu66oe96/Zq+RH2bakgPDw/ffPPNV1555dat28PQz+dnKcxRrMpXv/rVH//4x1/96ldns1mJLstvBERDUHotB4eHd27f/sd//Kdf/vKXy+VSaTok19JdlhvALPCoJzb7RXDOVZWxNlH9ZDcfVivWNAIArVWaxaSvA7k9UNw/JmBwyTk/P+la7gGKTt0GqUaJnDbdXvrfs35wTIp2QAhoUKHdRAaSaheWyhahUBotEFZBGAbluNT70DdJnPqCQggEDCiArHxcwsrrJiljlmLsyuOURaasI6C+v3L1uXPnnTX7hGfHh7fv3rm5WlYsf/fXP/rBn//Fnzz5pW7of/vSS6++9daLr76zv38wm23ZpiUyAooNBYI0oM3KHwdgyJQUwWQGBeVm1Tk4JXRBRGudtYYyQH0zpN2MLSCXWLphmE4m27MxRP/Hjz76w2v7w9HhpVnzF9/79nf+7AcPP/roRx99fP3VN65ff/3o6Khp2xDC7du3dSbeZKUcfYEbZybPKOUyHREx82q1UtLlEKIOeddVa7OYu+RYpARV+VY19AyRo7F21Na1pZs3b9755ObNm5/0g//uN7/+w7/660sPPvDBe3/413/919dee2MIoaoaNCZEMcAsISadc00WUilEZ3CYlTQwJSV6M8mpDIMaa70xDeaapil7taxnCTRFRGM/5mDJ1XVzeHT8/rtvv/LyK8vT1XPPPP6Tv/0vX3j40ft3739446OTk9PKOTJGhXB5Axel0QOKIBQV4rXUbh4p9LrjY4xl0JRj1ArxdDrb3T03mbQp/RKgTMZstNjAEGMMMaBBR9aQHM9P7+/t7d25/cnHH7Zt86Of/M2PfvTDo5P5O+//5t0Pb4BpJzvTggNDxFzwy/eMyZLqldU6eR91AYmIQdRTex+0Y83MZMigmc1mOmehMZA+UY7g9VDrNC8KaKuJlsvV/fuHq84/+ugDz3/z+aefem4+X37y6e37h4ejdhJCYBAiMhvjS7kyRnrWBQARfAiAoCB93QA6xtx1XcgE3pKH6fT0tW17/vz52WymWV8xtsV+gkFTVUCIhoAwDrxYLVfLZRfiZPfcGLgZjeaL1cmyc3UVYhQQMjYD4deqe4iQJAJZ6xDMHEXWQS2AboB1tqM70RjTjtoRtjHyZDJiLoz5AAAgAElEQVS5fPmyloJiFrvCDUZIIsORBRCABBiNdcaezedR4OKVK3LxYlU55tj1/arvPCsdEKh8VEnBk54fFO4hgY2mOQCkEf0oxoqIaEUw/WUu8xhj2rZtmkabIEXUzWSlQ8gc4Bp96XFVX940062tbY327t697b0/PT3VkSItMSIi50AH0+SFWnUUYdW5Kw6seK5i2IuT0nPnHCKCsaZt2ul0WiCxIfScSWKYP5MqFwusi5Y7nFC8ieSkvXjMRx555Dvf+e7zz3/roYevTiaTpm1i4KH3ejEkQkDN25um6ge/Wq6uXbt29erVf/mXf379jTeGYbAaO29tbX3ta1/7+7//+6985StV5UII1hoiWx5YLYKPPAxDVTkic+nSuUuXzu3u7tZ188tf/kIn5jf4JNZWWzZgFtkciLWk47p6nr33IXg9/8GrzQWRmN+BWr+yXqlrpZwOm6uzuY55pSAvtwCsh982v6+3sZGwwro3kgthMWF6iXVwBiFoGqr8aqjFQ6SEkyDANMlqtDWiLxJJETeYwCbCKj7OCgONpHYdGIFB/hOezXWGuvEDqrQB4mQ65RCGbjk/Oe4GfuT89uUHH3jg6oPWubd+/+bPfv6PL7325p2j5Xhn98KlyxEJkXT/oyAhWmMAgRN8C5x12uUpVWLmuFyudH5MY3wAMdYqt3GJIyUj1cse2Dw5sR+q2k3GY++75bxfLfs7t/Ydwze+du07f/GXX3rmmcPDo1/867/90//8t/fuzaGaXbp0yXt/cjzXqkk5AKWkI3lPpIGJTEcRQjg9PVmtusVi4b13zlZVTUSz6bb+V85clsU+bq4qAIQYlXzDGQQO+4fHn969O/T9M08+/v0f/fCxJ5749N69n/38n3/5i1/ePTmRyWz33C45q/Y3MhKZIUZCIARBEiTVmddYuRx7DbhLc0FtH2QixToDREoksY6jRYrvWdsJwiHGvcOjT27dO1mFRx9+4Ht/9sOv/OnXD45PfvPr316//tubt++20wnWDRApR1ZaOFwPv1N+WaCVIaRUjx2GGIJkppm+7/u+VxNc1XU7and3d0ejUYIUoddistoyZ52wiCoFMNi6QhYi9CEcnBydLs8m27vPPP3kV/70G2zs23947w8ffNiHOJ3Urkq4zXWaoIdHjQxCxEQXFiMrt69m/ADgrPUcl6tV33X6pRjjMPimaWaz6Wy2NR6PNXQG2HSca7snAkSEBAzgh6HvhnY0G4+nDz/08JUHHv79O+9//PHNw+PTph1TZbu+I2spRhiGEIKO66sj1DlHSFV8whhEJCIAJdpZhSYsFguNRguGKYZorBmPx9vb29PptJTWpZCwbQQZKeYmEgFGAueqdjTd2jbWLPvl4H0XfO99C0KEgqiphfdeK36ocHIxCFB2KaAoDQMARGBCBLaALFLq2cQMSoJX19Zaqx56Op2apKH1H4b888nVu/WBCUUIbVO1libjCUqMzKvVykcIcQCQyELGVK7S5VoD7zVeyVJhgx+UZwIBlCknxigIccPXliOvZr9pmnPnzinvquQEuOwKay2rPjCkyT+F6UcOzD3S9mQytY7IGiDs+34xP9Pyv03CGUmJCQAyd0c2OJhLmBvZQrIen+3HQRb9UXc+G01ns23lSdPalYgog4CixAA+v9opPILkBEt4V8r8GrsMw/DQQw994xvf+NGPfvjkk08YiyLgfbDWNE0lGdcLgIXBIcYwmbZPPf2Eq8ynt25+fPOj46MTqwbi0qVL3/72t7/61S/Xteu6YG1iCC73p7foyChZJ6LKDdAXHnrwL3/4l7duffriiy/2fa8Jlp6KEiVtnFJdX/E+dWc1RWRmpabQAWIB1qGDYt9L5JhbURleROvApdidYmopychuAtFEI5Ucvklxfhs1OkFEY0lWEiMruQiUZo0AkWEAEVSVJYOoRU59VFUFV/IpFiFABiQwSKAwJUtCQEAooHRdSQJRUBAtGqNzMyLAwIhrsrJyEkq4ne4WEBEjxyBSVdV4Nh0tpmfHx07wi9e+VI/Gd+8ffPTJJ//277/67fWXbu8fQDUjdABkUlHRabFYpaQEko0GQiWqrlwFAJE5+IBExtgQ4unJKRmzNZvVTWONoxyx6TLGjbnnzWhPHwQQ2qYhEfYR0Y2ns2YymdRw8eHHZxcfPOnl+pvv/vxX119/54/V7sXd8+em0+l8Pq/rWg/SZnBdxqmV6kp59UUgeA+IhNR3w2KxPJufYQJ/mLZpNMkr1rns8JLElI0BIlGYgICZJFJTT7a3xpPxpatfgKp6+8aNP7z77s9+8S/v/eH9ajrbmu2AsUgWIkddRBTRXB4ICAAFCSDLl5fwlzcwQ8MwLBZL5qi1mdFopN0c2ChXlFUt9ggACNEYS1UNHJd9F3032dp++qnx+XM79Xj2hz/evPnxzRdf/O3B/b3RdMvVtWSBosI+pp0CwTSATURkiABDXGsUlcZvzAwrwXsWcc6NxqPt7Z3xeGyMiSGAiA5UgEERIIwCrBs7iiASx4jCYJx19XRru3Ju1I6uPvzIwcnJm+++8+qrr8/nJ1tbO+1oVCpJkOIfBAKJxVonRAgjchSUGBTQkbrm/eCHuq7bdhRD7LouxtA29WQy2t7ebtu2WBjNCDeNQw7aEUCIAMFEEbJuZ3unqqu2nezt7X3yye2Dg+PZdGtrewdQvESTo38BAAJrbIKpIKBBYQCUyNEYo1AV/WKIcblYnJ2dhRDqprHG9CIhBjJmPBnXdb29vT2ZTPRwbbaDy+5FRAIKHOu6JjTAjIaatrU6joEIHcWzJfZCRhRSZShLhTFDRhchiiBkkWmt7iSXFGJUNWDCKCIxRGOstUoNmDrLbVWNx+OdnZ3JZIKIxRHghixZBmToAqclZmYRapo2xCAAERCNQeeM80wAKMaKtc5ah6RHNen9JvoqSRshdWAxZbEaTQw+aIZZuaqZNt4P8/lZtxoQsaoqPWVKGFoW1m6qgIJAhi6k+CDXCLXJR0jj0fjChYsxxkO3r2X44rmJMoBNULR1LpwqEWFtgvizn7wDSysZNSZoR+10Oh2NWmMNAoQYOBaJUIAk9Iq44bbyeqTiTtnhGq9ba50zItJ1nfLFPfvssw8//BCgLJd9CKHvewBxrhIRIjTG6uiHrjEihOCNocuXLz3zzFPvv3/j1qd3bN/3k8nk6tWrTz75ZFXVIcSmcVp0yk9ViMER8sgAIiXaNJBr1774pS996fr168w8n89LczEvx7pjxMxEmCA/IUBa4vXyMTMiucoRIQfgtObrFni5q02XoLF7Kehh3myYIlNAjIIlC4FyS+U6JTxUHEqKGUOMPoLSY1Hu4DOITpAmI0cK7spGSP8h1lIGKW7RKOpeg8UYUAhRi+AgiupEgwBgwBpDKWdA3ZEpYLIZia1urwQWuv8IjYgwQogRAJt6tHPhggPZOn/eR37j7XduvP/eq6+/dnBy1k5m461LbjyOLHVjCUlhe8IYOHhlNCJCAgBaLZYgosPcwXth2JpOrbUx8OJs6b1HNKN2bK1OAqfFLMXkTau38UewlvzQ9R07V00nE4sSh35nNmU3funtG37wv/3d9bdv3q22z2+dvzSdTrVLlVLhHGvrq2QO5UQxC7AQGY6yWvWI2LZt04wWi5UhR8Y4Wzlbte24NKfLHRYSGF1hheOKCBmKzF3XqTxlMxlfffQxBMGmee2dd156/fUPP7hxZ39/69LFdmvHNM1y1TVVDbpRESJzgvEig8qqcuoslDCrGKDSjCNCa6vJZKIciyWkWNvijYpFeRAhHJiVrSYKMlrbWDtG205ufHLrg5u37t65e/9gv7K1a8eLyEBiMnJC45KguLAkS8KpCybgh6Hre0XVIJHkzM8QaX4cQmibZjKeaFKBiM46732MgmhQhFCsoWHQcS2bYBaREXjwAzPV9aiuKgI8PD69t/fq7du3V6vVdGvb1hULKJ9eOm4cdXMKg5BAwgHo6iALhhhDiMxAZGOUrl8R4oNXrhprjo+P9vfvhwHPXzinnBAaYuqpL5uhpLPF/ooIMxIxI1lXYRRCMz9brlYHXdfXdQ2IAlLVTUWionUhRkto0AAhgRFRySYQFMX7GGsDx6KEvur7k5MTFtmazXZ2dnRvHB0f1W0zGU/G7UgjNv1yju54s4QpIoLirIshMAeDYI0FgBBi7Hu0xtXtGAiNoVRkAlR0rTAja3cWEJhBiEMupyOayCwYRXjwQ7/yWqASkcra7e0tY+wwDFrz74dBaxWj0ajA7IoFs1n3RNccAKwxCMqUryIg2A9BBLwMlEhbjK1r6SWGqOYu+IGMESQFJyFiESYQRbeZNfJMqUIZpV+urDVUV+202dnZGYbBD/6Mltba0Wg0m800qihJqS6pjrz1fR9DTEOcheaRmcg454bBn+FZFWpDNB5NQgh4Duq6Ojw8VLhJBpeo0iyyCCQSAZR8lkqVouDSYA35AgD0fgghOlePx5PZdOpqR4gsEREhok7+CyfWRB8YMVekMjGSXipGUWSJ3kPB42v/uus6zd8uXLgwnY6GgZWGBJFEokjYDGJz5AZV5bqut9aOx+1oNArBV1WltPDh6tWrKjdCRKpN4ZwBSE8laS0oRu0uEbOokgqzENFkMrXWqvZVOY0lzyhGEBETziyt5lpeEnIcCHlAD1S7EEV75/lSXK6gBjbHQAlplUssejlkpVBc53mfYQv9XHZSbqbACAyZxLlhrbGW0JJRAiWLZBBVuQCUon7tRbXpAWUUEEgbGYiIwJp6GSE2nF49IqJ+WZkh0tIB9HHQUnNZSU5wd/pc51LrapEZgGazrfF45EBc1R6cnN3Z2//wo5sHJ6dg6un0nK1HztXWOgFkZsNsjFEKZ0pzsSAAEtgYwzGuupWwVFU13Zoqxm02m124cEHp6nLEs37Fm8EE/IePgHAcCgMdAjbtdOfClemoPer6f3/1rTt3bt+9ey/Y8WS6Ra7JG2xiyGl8XR4cVfl4DbFeg6idc5Gj916Tfp1kUUeCmX5YciW5rK3etpo5gxjVWOkoZoyI4Kp6PJmQwa7v3rpx4/D+wTCsmvG0bVp0FZAx1jJk35JqXSWhYt6oTJbYSIvz+icimk5n2jTVoUKFMZSQIh+ijXhCm3Wk5GkghIRknLPWSmQh7Blv3t1bzc9Wqw7JUDuKZDiyze8oJEFgijFGjpKPQ1K0j1xCn6RGoYusTSL9RSJt24zaxpIxaIQlrDHRHEJMCIOsvuGgAgqJjU0wcWwjAsLB8fFysehDrNrW1Y0gRWaMEckoszoIcGBFG0vMryyXVDhyCIE56YwDwPb21gNXHnjggQdOT09PTo51J2j7o0waQ24mysanuEBYV0OJgEBEkHzgwfcxChprSYBwCJ57IGsUcWnsmstYp8RSUUhEd23gtERKU6FAv8lotLOzs729PQxDO2p9DMaaUdOORiNnLXz2WG1u2gQFULV0IAFhgSiAhGCQRSQGCSwsCqoNISiIJMaIWvEBsAZijMrNx6w9XQAwwjEwIyCCIYoaGCOQMZVzzhirE1jjdjSZTKazWRlcMlmRwGT2gc3gmIwhawExxKgEhNoFLjUMRfKkbNMms85phnOdW6ZzlAAESGhFAoBwFGaJkWPgNIjrai24iuBkMgU0TdvWVaUdEL3P8kPB2yUHIQzr0TlSABoB+hC6EMMQtWtpa8MxIG4BUNelRiEzg1QinFFMQtr4QSRC3XcKV9JgkbLITvZWUFWuaaq6bhPpOJFXBlJFgWKS1dzwjAmETWaze65bRcsECYJWjB4i6sAqIq5Wq2GI1lHbtkrORuTKqytWSHGcAFDXrbV2GPzp6fzk5LTrusS59Mknn+zt7V2+fFFSFai0ITC7T23PYIKfAYhI3w/W2hj9yfGxJj+lUg15cqYgA4qzUYuba1SSsyb19FLiIGZO1S0RxM/UgUVKO1jTAITcrVr7L90MINqKVXtYoqLNqCJ7qXW+ovB7P/gYYmUMJviFITLriERTpfT/6DnMrR/tWStNWw5zSuGPDIFiQG0CfyqFBSKwUmgAa39Kka1K2NLnlLEgcinPCCEAxyjp1AGi1ONRZZwRXvk4nJyuzhanywFt41xl2jE5i8agMYTawYAYYuLdFL31xPKsjxkyMav69dVqFWP8nMLtf/R5/2nopj+zMAEgYPQRgKy148kOIx/Ml6enxwdHpwGrdmuC1jFQVFiPq/Sl6GnPr0zy4UwSxvqLbNaOUZrhtm31zBCRnt5SJygbIF9h3a4mIgEIkXVYUABCiCLCiBXaiIbRmrppm6ZtWh9CHMKoalXRJWWPAALAQaPkzwjfI65lS8tH46G6rjFj9ZV8pazh5npuhm5JLYTQIOXsXZv5LCJ9jIEBqqayBhAC4Gm3JHLlt6ZEDUlQNofL03yjDyVUL1FR8F5pChWsjkg69sY6xh1E5bkllxOYOUb2PgTvjbUmRktruTtmQIQoXFWVEDYNVHWTHCdLiMIYBIDFGmOYBVFnF6JmXYio864cOYbYDwMChhBWq1Vd103TjsdjyBAWvWed1cRcfC7vvVg2yAXU4gWV1g90lB8AySpmom4cGcMxCrBCfXUx0RCWKVMEAPqMdUdk1rHcYbVazedzRJzNZpcvX57NZoSkLCyTycQa2zaNtRY2MOmbu3fzgwIGjCK60tPksnqJkIiMcwAALEFEWOETjICg4Z2klA8RSDIoINnYon+geNKq0p1siCrnTF2jMTYJ06Ts/7Pe7jMQRQZhYQEho04uQprxB62bgggiWaOdGxGAGMIQ16N/OZySKAplYCIiIGbhIJFjLgOwsc4kfIZVx1LXTdOOCpkvZ5m30hMvJzQ9fKmLZadWni6EEHwE6WNgIrHWVlVjrev7XuW7RcQP0ZCBDATRCgVSekNFcKfsvdLZN8bEyOPxVts2iGBtGjgv7WZ1NzotnH0iFtcqn9FbLp/1r9CbUeeigcW9e/fu3bt3drbY3Z01jU6jqLSshTxjsuGLUwUhBL59+87t23eXy2Xf91YTjg8//PDNN996/PHH9e4lDcjhZg1WFbFZ8QUAHKVy1ljz/nufvPHmGzGyTlfrRtaGAmwUeMthUB+AiAoRQ0RjQIRZ1l8QEWsp4ag3ihzFi2iDLUNRMP9bkgcXAcyuEVHZMkS0d44Kcilbp7xI51zTNEp7UFUVs4QQDBpApStFEFCWMeYUD+nDoUmBNiGAGExcFxJjNGQMJb05DXQouR3ENNKYEm8AyPSradRPCeDOnz9fVdXR0ZFmsbqPS90lAQJiBEIyliWCoAgFgRDZAlBkITvbPk91O3jvA1NtAdD7GJiRLUcwoOJ/KAJACEARmAF814VhCEkMwmvZVhUBNPyiYjo3rVs+D5uxhZTUyqCIkEERY7Q1IEDGkoEudLaqti+cD4OggB8iJYhlVGujj6yzIdpkzVRhuqIZbUBrjs7PmYkS7G4GZ/qmKI9RadKgLEAydCJMiFhVhkVAooAPQsbNts5tbZ8PMSyXC79aIXLwjMhECZmUOpCQalFlBfS/Fk+GiNYaNVslh842KyHySjBRDkhpBpePsbaqrayTQgyEHGNkqarKNY2W/EFUugJZxKvCBSEIBI4a6pcIXsuqCBglSuCSxsUYq6oa549zDkQICQgjZ3umRwqBEMk5pXgKIQKlYLmpGy0ZCSlxqAQOXTdYa9vRxDoTvO+HwZLxgX0M2oMvSwHJx6ePqNQmyBC8HjoA1Ep10zTz+Xw+n6siXTtqa+sIUIoe/YacVXHVqcO4Ud3MP6Q0hggFIQqjIQW46QiMMAqIkFCMMataOOc0D9H11Xekcx9dHtmt63o2m21vbyPi/Oxs1Xej0SjRluThmhIMlZJbsdL5E2OMDm3uGqOgBjpCVl8RCIvu7sg2Kigxl5eC91r8j0G3gQ7zSuQQhUU4MktkIkNITdtMJhPdJ9qmsWgCxxCDqiXwxqS6ZJgkbIyzdUPn2aPBdtyycN9FzDVTZ63SUAoZNlY4AggDkg0y+BKjMDNzZseSqC+OQccI1z0jTKqqpm3bpm4EgSKbuiJnTYZFl/S9FFfKMKNOz266ws0fMt7TM4sPXjjWTdU0TqfEmXm16r333aoLmf2FEwEPq06Tzkiq04EN0Cjl3rcxrNFwxqYwIjpXZQFFyuAEUFkSZYTP68Mlt5fceVDeZn0vCoLp+06fNIRw7969N9988+LFi08/8/T29kwpsEII5dFpA8IoIlVlAeDmzU9feOGFl19+6eDggJAsAGhK9+tfv3Dhwvnvfe97bVt/tmRVHEZSbbeGdPbGGHj33Rs//ek/fPDBByJShuJERFuYeZA3ffRY6dIUrEMyhUgmFx2IiEUITZrxXY8UrjOMksIVBMZ/9slxxsYnFeFzMCEiVVUp76x6bsVda53fRxWRYcx069oq0BovQBrCJKOBjSS4hCj6UkII1iS+CMyThQZBAcGIojYdAEIOP0skCABN0+zu7m5tbd29e/fmzZshhMVioea+WPm0qglojgYoingVJWIZVZVEAbRuPJ1W9WoYfAjG2BDZd72XaKxt68ZRUiRDERXrZUyiJJCZP2KM8/m89E03I7NNH1lCjWKRyx+LUwSAqAhVRAIEFiGJzCEOtqrqpgkDx4GxAR984CDMPgwa56lP1Um8fEHMVbT1ru26jhD7YSi3xBlZDXkKo9xqjLG0rnGDExAADBJzFGEGIWMIKQoIEDMyUF3VFpHBoG04hDj0VLg1UpkKGT+ze8uqlIjWGKOksTZr3BSHx8yQ8HS4ueaSZyNxs8SCBKISaErzDQYQjBGQCIjIxhlrjRpbRWGWThDkgtPGTebLGoohIZC08RFCqKtqOp0qPw0AJB1rztzV5cMsmWxG/a4xxlnXuGrctJ5jwm0oQ1cARo4x9sMAWFtnkYxFRAoySFkxwJKWJR5APVlD8Kq8pXmbMWY8HjdNLcJnZ2fDMDBLVTnnrPKTqHQD5LitZG+fWwfamO5Oxw2QhAREpIxighaLkIDAsKK6YtQacnIVkNI1ZkYWINTZH32VWt9WJs3VarVYLkREGbtjjMxCiMrNpHlgeV/lDVprYkRjTJP5lVUF1Meke0kG0YBEjiESJCqRwAwxIR4SypJIWOfRmIVBILKwMEOChFlnnK2sq1J8H4LmGJVzBDSEYNg0o5GhpFip7pmZVS8Rcl4UmZd+FTmyFguYQwjadzOGEMAQ6THQyUbmCGjUO+iuCyEyD3qpYnKy5UmVBrNBU5HyW2HhFOJF7wOABsqliCWZuxk3OAhEpOs6XLP9JR/btm2pg4qwjl+zJFy2RgOGnPehrurFYqG0kMxJVZFUbBJAx3/0snrNVGgSkQzYXywW+ZZIBEsVanOYURhjjD56rcozs/dpar0YYYA8Je79dDrNdiU1XwBgGIaXXnppPp8fHR9du/a4c59hjdt0Uro+em8vv/zyiy++eOPGDQC5eOmijTHOZjNr7Ztvvnl2dnZ6evr888+fO3dOVctws8kEwFFAMDoThrB/sH/jxo1f/epXL/3upWEYFLMJGWJZStZK9VpK0LIumCOsKwpRa0QJea6gOc8xylrOY8M0/2fRQxYBzxULQSmlVkwNIRQBkHVHo7icxWJRVdX+/v7Ozk4IQRldWCSw6KBK2mHF7HLUDNQa44yhyqggAuaKhTq4MLCGFSYoEAEyYXvywQaMIAqIJRIATjEWKKBpPB7v7u4S0enp6f37909OTs7OzlJj21ioAAAK6IxFkJBBokgEgSjA4k1PAAAkogkpIJm+7yPz4IcojNZyjA4NKmqLmQWYEBADc+UMZWiVmmYRNsY6Zzcqq8SZ9kNRGogoAiH4QluS11/bFhDEIyCBMWhIDCCiRc+d56Fpa2dt6AYUAgbfDzHHLgjpghpVZGdAG+lm2iTGmNP5XDtsn4V2l22cZr3074tV9d4jknN2teo08UWJIIEZogAgAZIoVT6RICwWKyISYR8Cx0hAMYoAUNajTzZTgFPVLReok5cUQnSVizFa64xBAGKJMbCCgZjXCCE1QxqwwgaHoG5sxSFBFzTj4+x7y8QHWjSkZdsYvJeIIMTAsG4AgcntWNboI2d7IgKElKdIlC20W62GYVgulxIZdHAeQH91OiOQaMuMJZ2l5BBRJForDlNFk1VGU1hAIhDZyH7ZL7uuq2yFOpQDGxQFACIS1RFxOkdAxJKKyQ6dMWYIHgHrqmaWo6MTfc9VVQUfQt+rndEe+WYkIRufz0VXmIe9ydjNQJYMKnzYGAQQ9oJYAwNj6jFwKaTn3ca5ZiYiXZ+4B5qmVSaxg6PD1arrupV1TjdVjNEQIZBkD4SIhY5T0yFm8X5QANxq2fkhGGO9dlpCx8x14xARBZgjR42qbRAOytYlApxohIxxzBJyYg3p4VMzGQnRGLSGiFh5C5kRcbFYouTAyhgfAuZ5EGutMRZEFD0mIroZfAzzxXzVLU9Ojk5Pj5EImPuu84OvnKtcrSrwzExIUWLcKC0LAIKEKDF+Lo5N30n5Ty7zENFqtULE1WqlIgza1dEClAYWOh+EG7mr1i/1Cl3X9V0nAISonk6/Mxq11lTDMCyWS3XXPgxAqchhjGnb1pLTNtZqtdIYV9Y3hiEq07SyFSZaqTJZWt5CHiRRVMB6h2LipF3Lu5ehm2HoEUzfD+q8stsFY8wweGXZ3t7eho0aknKkMvPBwcErr7xyfHx85YFLo1ELgN4HQ1aj23JYdEJkPp8fHBx89NFHy+UyBqmr1g8en3zy6e3tbTUW3vutra2vfOUrly5dKpDp9MIkE8WwhBBF+Pj4+Pe/f/vmzZvGGIWbJUgDooiokuzp6Skibm9vKwl0CIGFCSmHFHlAFNajd+XMdN0QfNQpCcnIlJKj47rrnE9uCjJKGAJaMtJ/Z2uu31adLa2TWyI6Oztr2/bq1atXrlzZ3d1VkDCR67xfzOfeB63fgjLPCRBKaeBtAGcAAAMwSURBVFsZQ0AwhB4JUmABiKQsV5qwkSFLKXZGAwI6YWqMEoKzcFXXmrDqyLtuqdlseu7c+fn89Pr13/3upd/d39sLITZNrW02a00qwCJYa0H5aki3Hqg4FQk6MoQmcvA6PAoYgvKjgyBo1QMEJOY5bRBGUmlbAmCOwqJ8FZCJeogoRk4by1plVC4QHMW/hJi04GgDA0VEZDAme4EIJs2pIpBhJHHOMHPf+8oYYOmGiMZAasyZYjiYWZN7yW0yonUxExPxCWpLsnhHRNRasRLAcx7y1L9EpBC8tbaqakhceICqMKeQMYAMn1GaUgyD9yE4azV7tgYTlFii2jkQMIZY6c+SmFGC+2x6LN2EIqzrp1U9IlUAllznzMubaeIKkJnIIIqqMStCKap4YE65dIsyS4wBFKA9RBECTBxH+dclGitUKLEGUIaIDGz0bxBRvaYxJpUYkVAkomRjBwiknOiSqdYldwabumrrlkgTC9BKkQCqvHMI7EMfY0wS4yBEVgFoxR+HGJkFM48F6gBviMJsrHPWhehBoKlrZlkuF85apTDxwYfoHRlmFlR6ctC8PJldfTcaErEwCGbyOkMmtXYUeSARyRBBjEEkgxOZiSoQZBSIEoVVX1tBpqDTV6U2aYhjBMCqcsZYIjTGhBiVcFOtTQxRC2iSmhJijEWEGKMfvM+FN0TtGIohqohs1ZAhTsMSURCc1VRKmUojS8JjsQiwaLFTEyZDTqEMHFNRFpTxwpIWWgjRkDHGIhJwUgIa+sGHQEBkkKzRE8EcERMUXUAS2BEUXBIC+yEOStrbrVaWjLGm67oweAVDIBoNbzH1mKEk6HknJnassiFT6kTKk6ZT/JjAESqlqUEDIQlGYUEgpGRCjS05LSEK6BtXwXHR5gqLGKK6royxAmk/V3UVY/R9YI4CEkKI4gFQoRXOOedqZx1k+lR1fACgGAvNt7UOXYZUSxzA6aPxRNQxal5LGUCxyaWyIiKKJYocUcgYo7dd0ipjbNd1Z2cLALh27fGdnd22bfb27i8WZ6qPqnei7A8sYdSO+qH3Q6jrpljg4n+JqO97JQo6d+5cVVV93x8dHf1vSwmfwmz/cWYAAAAASUVORK5CYII=;" vertex="1" parent="QUz8MOJk-RTbm33aGLKT-2">
          <mxGeometry x="33" y="510.00000000000006" width="162" height="13.29" as="geometry" />
        </mxCell>
        <mxCell id="QUz8MOJk-RTbm33aGLKT-9" value="" style="shape=image;verticalLabelPosition=bottom;labelBackgroundColor=default;verticalAlign=top;aspect=fixed;imageAspect=0;image=data:image/png,iVBORw0KGgoAAAANSUhEUgAAAsgAAAA3CAIAAACekivEAAAACXBIWXMAAA7EAAAOxAGVKw4bAAAgAElEQVR4nGy9WZdkx3EmaIv7XSIiIzMra18AFIogQAGEsBEUSVDq1sLpeZk+p/t0/z716Uc9zpluahlpRpSa4iISBEAABFEAaq/cM9a7uLvZPNi9N6OgiVMnKzMy8oZfd3Ozzz77zAM/+ui3f/u3f9e2bZ7nMUaReHZ2tl6vQwgxRiICAABQBURVRQAiwhjjcrny3u3u7o7H4zzPRQQRt7a2vPdN0xJhXdeHh4dPnjydz2eIOJlMRqOR40xEAdQeAKCqiIiIROScc84RESImiapizyPi8Pp+PIqIRIwIACCSEBGAEMEupioiCYEQGbB7mghTCoCAiADPfA0hqGpRFHt7eyKiqiKCCERIRKoEqKBISIiECDZqQCBAAUUQBUBRuzeA7sp28eEeVQFYgLQfJqICAqaUnHNlWY5GoyzLCAlVmzYeHx8/efJkPp+LSJZlZVmWo5HzrNoNm5mHyWHmtm2Hd2RmABARESXqZpiI+qkjm1hEVRUb7MZQgQhTAhFFRBExexCRr82bvYUqMDkFsZUVkeGViOhc914pJbu+DdhellISkTwvmdmetGcA0HtmJhG18aiiKgLo5sSqKiipikAC7cY//MoW0abL3rd/dxu/bo6HiBBBpDMzu/HhUsNdD9cfXmZfVUEkge0QBAC0VRj+dpjejWlEVRVJIkLMhGi2h53FgpnTsGr25imJSDIz63eHqIq9LMYYY7S/IiK74DBym5PhYs6xc962uXNs3yCS3TQASL9T7TrnwwBRRSJwziMhKKqm4QWOHTHZ/XrvQwi2u21xiUgVVYGoMzAbXtM0KSVEZOYs84gkIoiESknbzVf2FjvcV7fx2WXdaDUqCCkSUVmW5p2YmZhtJYg9IqCCdhdU825mQv2sAims61UTWsesqkmEeo+0aQlJksQkqkAwHo8mk2lRFPYyEYkxAtgguyUAVRIEICFVkKSiIKCa2igxggCy4yxDJgFAVUYFwM6tnHs/Gna67SSiYcsnER2W3m4fNh7DPZ7bW//YNFf72yIvszxDFCLo3hcZkRW9ApIqgZAGJgkii+UKie0aG1frhjxYiIhcvnxxe3vbQoZ5hjzPU0pmA5sBol/04a7NeIiZVAeXRYQEJKIJVEFRVQGBlBHRe48ICubZVTWpSttEVQSmbqyoBMBIjpkAkFmRASGBFnke6hZQvfd///f/8Jd/+ZeHh4fT6bSqaqJntnZ/g51vGPyE/cp2wbln7qwOARVBVRQQhnXploYIEEQEEAkQVM3DmF2Zn1QQUARFRUWwqKLDVA/xCGDTY2hK6fr1q9euXbl69ToA7O8f7j/dPzubO+dGoxEzr1ar09Ozqlo75wAgpQQoCjq4WZEkkvI8994xOwCIsUWkxWLt/vmff/pXf/VXk8lka2urruu6Xs9m85Sicw4RnXPe+8GCATAltVWoqiqEUBSF91mRl+y4qRvvXVGUtpAi8vjx44PDAxUtiiLLMnMrsLGT7fsY4xDbzDkOvzLnaPsd4RlrGyKBwjOu0/a7KkqCzSDUv2kCm/vh5YTrVR1DnE6nzz///Msvf9O7LEmsm1okESECqUJKFvDsjRjBQAEhEKKIpo3NaFsJkqTh3QnNfCEvs2H8KpIkqahNdVEUZVkWWW52Q0SLxeLo6Ojp06ePHj06Pj4mpLzMkRnBwgZ7751jZl/kpaqs15UFlRgjMxNRVVVZlk0mE4vWZVmKRlUxc9cBCIFuOgKDd95nBtEsrrRtu16vRNQ5p3brqiISYiCkIh8BgBmtqKaUYowpJWYuyzLPvaq0bTDHYXfXOz5EBBH4mmEAYJaxxVFEImIRiTEYJjCvgUqqZhy6GdhszkWkrutNAxhc5/AY4qVtV/sr2//D9rMpNY+waWl2L/arYe9tvsC8w6abVgVEkAQAYJtLREJsVSMgA0CM0UbinMu8H7aM2R4z2bL2S9ZFF3tfi3cAOMRvZoox2RiGe7dbJiJmzrLMNvgwb4Pf2ZwoGRzyM88DIjI7wwcqSUFt9rz3jh0iiEgI0fBulmV2gyJi0zvsFpsWg0R2hSzLnWNQMJ8TYitJyIF33nsfY6zrekDGiGBBy2bYRgoIjETMWeZFQAGZiagD4ilGs8/NOaQeXg8Q3Ny3/Wiv34RiNviUUpKUYgCAvCwRYXBiQ+ywd2FmZgZQTapBAREdKnVQSVFSHSQlQhYL6szIDiWBJkISNR8oiGho2wIGM8UYQwjOOURKqbu1zdDyrBE+s7jYJ3XM3Mf1Dl73bpYBGUAIBcjsxKWoIQgAqChqJEioIakGAXOvQ66CiAA0XG3ACk3TIGJZlltbEyKuqmq9Xvdr2u0U8wQiSVVsXZh9D3837RlBe9vXAAqioKpgzsGglfk4UJGYUpSUICkCCfeQD4iIJSYSJSQgVEIFVUQVIVVkHtyFiDRNE0Igwo2Ed3Cq58Oz751zugHgRDSlaLjdBqbQzYz33vzMkMiFEFA1y3zmPZLlzBBjElViAgUBg8QIoAzomWPvZs3kiGgwdZu9EELTNMx08+b169dvqerR4clqtSKi6XTqXFZVq5OTkxBCWZY+M5+jZmO2eWOMZVlsb2+t19VisWjb9uzsLMuy3d1dZu/ef//XZ2dnzrnVajWfz8qymE63dnZ2bt++PZlMzEfYRVNKzM7iq/e+qqoHDx589OGHDx883N3ZG2+Nmbhp2rpuzFsdHh4+ffp0NptZFt62bV3XdnvDvPdmd57/Dcs2bO+veTrzkv2WAMMbxhU8iyEQ+kvau2mX4QGcY4rOibRtG0MMITJzUZRlWdrEiUYRAUUiTklCiCKWSBowYaNMVEU0GP9gz1jQNbNDHHIVRETL5Lp7FQVQERmPx0RMhuSYjR2KMe7t7V2+fPmFF1744IMP1uv17GyWVNg7QnTOe48iRtacm/swwzZR5s5Uta7rpmnats1yn1Js2zaEYMbXx6RzZqW3HgZAZsqyzDlntjq4S9Q+7oaIgAgtgDKz84TQkRzr9do5b9EKoKM9bGxfc3yqoGqunwbWyhgmCwGWvzZNY0umqoiEQP01ZLCBczDap2U9aOiQ+6bft2wPOt5FzbHa/RpWGIK9jWowzgFYWCBkdsw0wKnBga7X602f3vkOVwAoAPROxClgXpSq2rRtirHbF4iIyETSBYbzTWGpvIXDAd9sIgN7o5SEaOAhcMBPZhX9HUnbRhFZr9cDBOnXBWzsnY+m4VdE5CzCGTIVEVQ1bIeASDigNOMCN99aVafT6eYbDYs1+NO2bYkIEDTBkHw7T4Gj98FMq19HMSSBiEMK2wch9t6nVHTO11JYRFFlohBCCOF8ZUEdst0Rd+ahIQSRxM6xqm0Z772ly5seyaZaQSm0mz6NmVVhvV6n1A0SAEWSJpUgzOScw8wzo6KayaIqAkUREYmgSkyqqDIs3zCZw+wRUdM0TdN4722fDi/72iR/DVgM3w8mUVWV/XmfMRtyAABzbkhs3AupkAoQWDocURNoEsTU5cznPh6RoNun5w8AMLhJREVReI/OufF4PDAomxaralSoAW4/0LTDXkvROJqkICKhx5fdP0Qoy9JwDhKokqoD1YIdKSdLEslSRNKUULrXCqmoKmEMIYVoQboPhbwJjjcndjNaDZM8RDFDz31BwDgNAEKjG6RjNdhYQ7vTtqlZ1ZMjpizPkKkNMQYjLQWAFNF4Dws1DGjvYradZZl5uSEGpZTquq7rWiSORuPRaNTHIHLO7ezstm1bVavLly/fvn37xRdfHI0L7zNECCFkWVYUxRDAECHGlFJcLBaffvrp06dPY0xE7M7Ozrz3RVGEELe3d15//bX33nvv9ddfv3nzpk2c8TbQuQ81729x9/HjR//4j//4d3/397//7PMYYj7OsywzzIWIWZaNx2NVHY/Hu7u7zjmzg01MN8z7JnM+GB/2qfPwMvvxa38LAMT247CuiIragVg1vAwAiEZWn4d5c0B1XYuknZ0L165dv379xmQyKYrcOR9jqKpKRJzzqhjamNI5jWz7cXAjiAqo5u4RFUCcc4oAqAgwMCQiHWMyXERVyrJU1dC2XYJr1Zm2NvwIAKPRKKb05d27ISWXuTwri7wsitymmplHoxGAubA0ZNtmWKpqvIX9ytBrXdUVVSHUKQkCGqMiEhGBiM0cY0wimuf51tbWaDSyP1RVYiLFIejGGFSR2HUFnaJkxyE2VV0dHx0z89bWZGtrCoAh1BbLNxHksNpmA5ZGm38kghjDclnVdRNjsEw3pqiqCOYPuhtFBGIw1+O9t2mxyD2UMzbNZnD9iGhzblvRioCTyeTChQvPUOh9mMQetPUWhefeLSUFbZu2ruuhJpVlGfbU/blVc7cWk8nEXkBE5WikCG1TxRglqaXbviMhYKB/7O6GOWzbtmkaC8b2pA14GPPwynNytZ8Z771doa5rC/8pJRDDMcZoEZAgKgAys3NMxFEg8340GlkukAZyEURTROjRP6ASqGpd11YqXa1WzFwUhfd+Z2dnM3gM62KQwjyviBCTRBXp+JUuw5HQNI3BPnPdxmwDwFDog54QyrJsb++yqMgAvwAUkRBTSjGlGCMTZVlWlAUjqViJh83/Nk2DAHmROeeaumnaZgC+A2mhogqKAEmlaeueADfEgwBYlqOmadbVOrZJRAlRScRGweyY2bGR4UWWkZkZMTCLFZwUeKN6+DVjNidSVdVAeQ5u04gHUSGiPsuCr/3hYBg24V/D2YOLFUUiBUIgYgIG9OxLn4EoonQAglQA2qSDewMAItdX1nqAKmj/I3XYOs9zm8+yLAekPgQdVbXkrS+fddA5xljXlSRomxBiSCmJimqSGAAQQYFYgZAIkbLMGWFBBI7ZeyYEB8DoBFEIFYiYERlVUJBQRVFRpQM1okkGeYAVnW3//tsyk2zUTwf/ZpsXAJqmqaqqbduUkqZo6yGggKpKgtQjeSHCyaicTrc8uVCt69VKASaTrWI0qts2hCTEQPRMIdsCXkqW4QAAM3nvzcr6V0KMqWnqum5WqyURhhCIuMgLc0Sr1bKq6u3t7bfffvu9H37vzp1vjEYjK1eFEPM8M6eKHdFFTdPUdb1er99///2f/exnH3/88WpVuRiTFSmKIn/nnbf/y3/5z6+++mpRFNpzA4OJ9Pu/q5SPRsVLL33j+o3rL33jm//tv/33Tz75xOCMcy7Pc1XN83wymeR5PhqNtrameZ4NKQL1JSLsK0+bu2XDnnDwJsPi4UZOtgEswPazWbgV4exi/4bJOFcJ9Bck57yqbG9vl2Vp1DGAVfJQBGJUUEXCoTjTURDdjwwokgRBVBDIgFw379oNqaNJAME7BugKcwMMYuKeaejhBmKrUFWVYYvLly/fuHFjdna2Wq/Zucxn5WhUFqWxss6xOZShnj04vrIsLfYws+GDuq7Pzs7qpo4hAFAngAAENCxv7EUH5gwyD3n81taWYyeSQIGZCTHFVDdNTInYpSSIkOdZnheq46KuJImBntFohIgxZuYmsK95DZEbERF5oA1swHnuVytpmqauKxGLDkLIzKQdVAPLQXobgIHUtVk3n2VIazO5h3/DZxiKt/2f53mWZWbGBruNJR5ofMM9doWU0mq1quua2TVNI8nwd4dCsiwfQOjgryV1tm3MjcX4PM8AlFBjjM6x8w47V0fY+9khszQ8ZEMagIXtJkMVG6wPWwIkkgaOymAN9IWJFFMIIc8LFRGBvkTVVT9FxaRFhExIjsA5V+S595nPMlUNKRIRA0hoEQnU6EI1vrcoitFoNKSn0+nUKMwN+1ebSfPIA6pQ1RhDXbXMvihyAGjbdrlchtgQcVGUFp/6EK5WerIdzUTsnPeZd04l5VnmRyMASCKgAoi2B1OStm2QqCiKIs9VO98LCqogKlmeE0FZFoS0cmuu2Xuf5Rn0wTP1hTNVresK1+CcTyk2TRtjJELDZIhIwNTVEQBESRjAWHoASUSoqKFp89yXRcHM7B37TPoKvdnbgGj/bQxDxKIoRuU4yzOzAUS0yNYTCNSVx626qYK9HzbLN1PcTNi6KwMhsYIoATFLEocp9z4jzhznziECOUaGNimwR+J+gxvbpESgCkbZDKqIql5VVWUurixL22IDDdDT5NK7+Y7vSSm1bRtCapq6bRpRkCgxdWoD08gAiCqAEKKACCCE0CSJAClzXBQZYzEejzPkGJM6BnaKqEApCiMjY+/whQFUxJFT0k1nOB6PjcsfbBj7FMWUItJpa0BVzaTNqu2bruTXSXoUiZBQevZPQVIbvKNRfuHKxb0L2zttVR09fjJfLovMT8tyXI6bkJoQBBEItbMSAIOSMUWMiCRJqKtDoXPeZh+JnFNEsjSsLEdEZFvJnElV1Xmev/TSSz/60Y++8+7bW1tTc6giYDoeK3FCV/i2gq8y097eRQA8Pj75/PO7TiTFGFer1bVr13/wgx+89dabiGSlFNqovGpHVBr7gVnGqhhjGo/K9977/uHh8d27d/f3901gaLNvW6j3p11KZ5VR7z2YGASAiCxbGhzNBghQAx8bT3bFVDTu6nwDoIISAiiJ4nDPX0MkiGgIEvu804y1bVsRsQtWVU3EISQroYUYRNSR7zOkzr1vAgskRVFF24FGXQCgtm0FFrHpnLEg5U2JByEi0Hq51k41hs457zyAqKS2adfr9Xw+n81mTV0zs/eZiDZNS8Sg6Fzy3gFkVVUNmqCBqcsyb/moiAxZ+P7+/tnZ2cHBgXMuzwvnyVDtMMkAyer0WZaZsmGxWFRVZdrSyXji2QECO0ZRRsycs2oFEcXYhhBiTHmWI1DmS3aEiE3bQB9rEc8hY++8BNEVRQmgy+XS7peZy3J0enqyv7+fUiqKHJEcZTbUfhFVFIi40+oiDrVP6DUT5vRNTAe9HGEzpOGGmtJiPBG1bWu4RFXtapbYtW2rqgMn1LZtVVUnJydVVXuXLZfLum4IkR0DgKhYgcwxMzpAAE1tCABq5lTX9XpdZZnP87yNNRNneU6M3jsRUYlR0JEjJuOQBvbORmI7yCak5wK7ZKDDTwiYknMlMYpACKGqq7ZpbU7Mj7RNG2NMkoq8RMciCUBT6hkOEIIkCSRB0ESkAFCnSpOOxyPvXJZljkhUAJSw06CkQcCrUI5G2hePOzzXawY3t+ewBGbGZh5t20wm21uTqUg6OTlZrVanp6dmGCqCpNDJCR2RJbUCql3O1oTQBgSanc0m49GoHGV57r3PnFPApGKl1MxnzOyQ2qaJyao8JCJJrLyORuO3KVT1umladJQhKmgyMARCRD7zdV1Vde19Nh6XTdOu1/V6XdkqeO9jTFZR7dwOapZ7k2Y0UmNUJnKe6qoOtcPJJC9yT8SZOHbknKVzwxQN3rLDhSkNPEoKQgWDoiRlJsNPgwjAmMmUUgxt3VRG48RebqI9RzFAih5YAAhEicDEqKFpwRGG9XK5vHb10nT7YpRkkpYI0Rd5n8N33C2z6YRMfH0uacK+BGPKyhhjCK3PMkIiIoOeRrYTsSqGEGIM5tDWyzrEYASG+S2rOiEqoTfLTaa9AJCUYmpFpK1XzmG2u11ujS5sjQl5Nlsik5IqcUyYUurKOF1S2pmxAHBPkwyZ2xDChjsa8njbmwPitx+tlLYZfRhVNCkSA4NCEhCFFJoYgoTIeQ4xFMy3Ll/a29k9unbtwcMHZ7NFs64oKxhRU1JEAqdKqgkNp3S5AUjUmKTzsoQxdJJYUiVmQhaBpmmMRCAiQgohnJ6e5bm/ffv5H/7wh2+99dbOzk7btim1faEAUrKiPwCoKa0tn2TGGzduvPHGm/fu3X/y5KmzPICZ79y58+abbxCdw8Z/G5W7ERAaSc5MISTn+J133rpz5869e/eapiGiGFNK0rahbWNK0bmORQkh2rzHGPM8n06nIQTc8DKDTffw85xssB8NRQAYEB6ggxX6VAEBTICNIudcBW5QfxZ+BjjSmwWoggh6n+VZAYrLxWq1XsXYhjYBoDEx/Qg3eAVm61dgpN6ngwAgdpURAEAayl+ACKiDWGhgDBGwY4MJKc8yJiRi7zPkar1YHxwcnJ6enp6dIRICtm1jmg8xyVySXrDZKeqtNJBSWiya2WwWY9zbu3j79u0sy/b39/f3909PT5umyfMcEVJMkOXMrhMvncsDO0qzc9gpVVW1Xq2ODo/yLNuaTIo8N97CMYMYGFYitnCFXUaepE0xBMTuHi2Vsusb+gGApmmyjKqqqutqPp8j4oULF9q2PT4+Ojs7CyEwM6FloJnZz4ApsWeqTJ4FCuY6za6Wy6X53IF4GPJjelZ9PRRBBzu01xiwsGzDkpUQguXfBmLm87kV0VfLKsagqsjO5rBHw7bYQ64GhtsAzM+mtpUQm+VSVWW6NZ1sb6HzKbSqIAoRkvlNo2EHHnHQdsEg7SSnPdNmAzCIIwLtqq7qqqkbwxDr9dpksDFGNWE0oGHrIZx0I1dCIjaFmnYK2xTjsp1V1XI2OxuPRsVolHnPoBIFQI1fSSEKiM9yEA2hHcBZ0zSAOCpL2KhJD1tygIPG7V+8ePHq1euE/Pjxo6qqVquV6dUBgL2DvmnLJts8BxOmlKqqqusAKQJiVa3XizN2fms8vrCzy5MtYFaANkRVsBy9aUN302jNNWgxBQAAOEZWVVAiZIlaVTUhOe8dM5sB1y0i7+xsm3HWdbNer6qqshtMUUydNERTESAEZMfKIbUhBZEEitK0s/k8NfWVq1eKzCMCMqSeOzZ6bMjHNmN/F/9E0Z+nWwMWsVEZxMlcZs80bVNXVdM0thMHzPo1hhjA2lHEOZdAm7qRGMK6jeuVNutpwdcuXphuT6q2iYJAbr5aK7DpmXpnwkaF9lXLgWxGFUBEFVAlBEWktg5E5LxLqen8PhI4EUlmAHVl0Vr7dadho/VYNhnUxE7Cq+BcLgwQFu26WS9j7graKzxuT7cd4qyqZ6tlAmQuEMl0WOz4fE5VcQNDDEEqbTQiDCHMHFq/ymIpa4zRCny2Ct3eZAZJRA6JFMBEIkSsgBCTtnXV1sdP9Mr2OHvxhQtb44vb37h4Yfc3H3z02edfNKJFucWZc8g2rwBIiggCimIy/F6PvxFSYTCXGGMMqXN61lMCimiC7uLFF++8/vrrOzs7MUaRFEJriRYAEg2VVrQE3/JYooKZrl279tprr/7mN79xRs5cuHDh5Ze/efPmjV5afF743MztjNGKUQDQ+rbs6/b2zu3bL+7s/Hq1Ws/nC8sOU1fp6fTXpjgedkKe57u7u8Z4m44B+my7adqUArMj4kE20S/hUJEx8H4ONXplXjd7Jq483xvnws9z7VIPSpSIjQE2SIQoIUTzA/Y84rkATUWlF9WzMACQQurexUiVrhRDBIjQt5YasFAENzjTQWlhIxEAAkRVQsTMt7EFlSzLnPOIiECStGezNUZLCxMAEwli17NqMpcYU4zh/v37Z2dn0+n01q3nRqPR6enp559//vjxk6qqiqLY2trKskyS5EXuHAGClfAtMxbTqWLXXysAKUZNUlVV1dQEGOoGiUajERpUZ9aueN2VFUwKEGNM0cTkXRoaQszzjtlW1SzL8jxT1adPn5yennrvn3vuub29vcPDw4cPH5pGL8/zPCus/jhEU7U57tq99NxO5XwXxRiLorBqhVXlhrvTvgY3IIzNHdhXZ9DG2TNwHQi2Qmld1+YmrDasUjt3nm0PbnoDH2/GTlQVQCVGK0bkWVZXzeHhwdnp0e7O7mhcbm1NiV1MGns93TC8Po8aYLEoIPeJqSRlQtPDI/BivpidnVV15b0v8rLIi5SSagohgfUrEVl/je2JzpINQJOY5kdENXWbDBEIVEI8Pj15VFWTra0b16/vbu8QoyS1OSnyvE0xhuCcCyHGmAyYiSoxpywDGBisc2CBPU+5WCzG4/H29tbOzs7pydlyuaqqCgCm02lZljFGa00CAMDUt4yJSPSeJCkRAWJq2xTC7OTYMed5niPoZAwSuqYHRFDoBcXWrQe9DXVN1JISgBIxdDODklQkiqiPAgqIWNc1KOxd3Lt85RIRPnr0eLFYLhbL83rThk7ZUmEkBGAmUlTkHBPE0IKk2fysrdYO1APtbE0E0tHpWR0E89I7Z/jAGr5sugyuGYAYoqCFKJvV1PcCWBQ0ZsK+ShLpe442KX3pa2qD61QVFXAZMzuISp6qtmmrlZN2eXbarubXLl/cmoxPVqvV2eL45GQ8npqSpk/WtcjL3lDP6ywI2Kd2gIpq+mBiQoohqaZO0xPDclWnFLUrzjpVcK7z9cM+1U64bY3/gEjouk5sUmWG1WIFKWaicbWM1aJ0l7fH4/l8uVzM9g8OE9Jka6ccTTImYBqwmvaFe3i2QmTRFM9z1G7eUjLU3rXmWUKyKeg+d/5EMXYZl6goABMpSFlkJVODqV3Nwwqa09MHn3/WzOcXr11t2riu1ovlct2GHaRJtmtUvfXAAHdeZqMb+jyCD8BIRHpDCtA5JSR0QwXAyg5ZlgFKDCHGsF6vY0x5nqmKEXiWF9l9SC9edo7yPB+NJpPJxFmtoa/JkZXZhno/PPOwLYfUE/spaYwpy3g2Wx4dHRklaxDS0PrwGC7RAxQyBYaVw03jCX1Cs1gsLRFPqZfHb3xFxJQGDV23V3WjxDUY2bMPULXxp41Bqar1pQuSqGhoU4yJ2RltGwJFFpGQksUDA2xKqohK3NX1MSmKEPYSUZOykRqOoI0mFOtcgq4YCPLMEQVk3egRY0zJJZM7mPSGoO9n6TenFXHYBOwxJgABIEvmQgir1Wq5XD569Kiu6yzLVqvV3bt3Hz58+Nlnn63XVVHk0+lWWZZG+xueICJ26L3zvg+9Br0RHTufeUJyzHVVn52crlbLk9NTFdnd3d3e3vZZ7otR3dS9+ULbtibsVzUpfm/1fVDsFQCWbeDx8ekXX3xxcnJy7do124qr1WqxWDZtMyrG3hU+8wYa+rJ65/Sg69QJeT8AACAASURBVMwG6rjWbodb3B2Px3Vdz2azpmm2t7dN3TbQvyKyWZHZjNzGc5hHsO2Q57lVT6uqms/nRiNtbW1dvXq1KIpqXaUklsQOCg/YOGhk+OqdVzS5iKoyqDIpKDGiI2yqenG2jG1z5eqVvZ1t8o4YcWMYw3UGeGTcBypID5SZO4W1hZn5fPb4yeO6ri9c2C3LUVGWMUVEBUhEEQCsodouhWj1Vzz3/6BGMgMBgTICI7cxLuZnp8fHIqn0rq3WbZGX4wkwNW1b1bX3ngBiiuCIUNlCsyZmV5S5Ic5NMCEixn6vVquDg4PFYrG3t3d6euZdub9/cHR0BIDj8WQ0Gud5FvsjdlRVwSMYO4jMICLKkZhRYZ1SbJsyz5uqiqo4naBIs1pWbWgVt3Z2s7y0vg/nMssGdKNHSVSCCMREFA1dERGgWhxHhKqSpmmOjo5UtSiK7OYNBVmvV7PZbGjF116z0mMLACAEUwkhEjrHrFhraqtaJYamiU09KYvd6eTo+Gj/4cNlkPHOhen29mg06puzOif2Na53IyPtOPkhFlqYb5pmuVxa9qiQzA8P23Cw0q+5a+e9pi6PIaLMOc199DyiYmuUswbUliBbzc4ePdk/ma1jNCNkZlZB0LQ5TvvfuDHslYqACmCnJDEAaFTToqaU1qvm6f6TNrbTyXZRFEXhAYGJrXSCaBi9U+4TsXaE5dBAGzGG3PmjxSI2q91JcXlv58rWVqEwOz56/Ojh/Qf3D45PXTF2Pt/a2ra8Gvu2cwCQjex6iEHD7QyZg/bNycfHxyKS57kRpYhoFRDq1VGdV1R13oNqUmFil3kmSjF4oqauWeXa3sXrF3YvTyero8OPnjyCz8brurn34OH+8awOcV5X19lt7+ypJGVUBTF9CSpu9OBQL2UbJv/cSrrvadBlI6JzLsZwfHx8cnoEcMf7LMaQ59lk4r13NhOblgww3B0iYghpdjZbr9cupei9r+v6yy+/fPp0//LlvQ0k8UwE7ktP9gyGkGKMFoA//fTTTz75RESm0+mmJx2WgTZBVD+zVoIakBT2BzGF0DZNk5IMDSlfA1/DMz3g0K/9CgAtuNiTgzawZzgGRqvTY6aUVASs3cjKF+RUg/Eiw0blriWFzM/a9U0UxTioJhDIcjqT6XZHWHRiC0RnDQv/f51gBOc1yL5FczACGQIedsVLJGIiBlTjMKwxpK7r+Xx+cnIym80sui+Xyy+++CKEMJ/Pm6bJ82w63RqPxzaAobWSiJ1Hx0zMANA1W3ZTpiLCjohoMh5DkhBaIgoxqmqe56PJVlLg2EULIuq1ycnqnNQpXjtBaOrPw8mybL1ez+ezx4/3T09PQwjWxvzkyZPZbJZSzLPcZ5l33qSObWy1r3uZTXW8Illg7ZDBZr1gNpvVdb2zs3Pt2rXxeNw0TTeTxrb1JMTwdXDKxBx6rsIkyc65tm1Xq9XZ2dnJycl8Pmfmuq5TilXVGBQf3MfmY9hOXS0GxYqDSSJIzwOArNfLar0cj0Yv3Lo13d6OoZ3PFsDZoB4d7Jw2WqUABBERUCQNb207ziCmjdZwXlGUgB2dzkwADJ2ZdgG1lzHZKXDad/pZSkQqCVVjE05ODhfz+dZWefv529s727Ozs3tf3s2K0eWr14q8SIgxRtPvi539BWpkHxH6zDF1Ql3sRRVminVdHx8fP3z40PiJr766d3a6WK+rqqoM2GWZN7QtXSXf2ApQECJwjtu2UQDvHOZZaFy9VhApcn/t8uVv3HnRO35w7/5X9x82wJdu3Lx85ZpB6p6iIzJe2Tgb6WvWkoxdpD6NsXler9enp6cHBwcpplE5yotcNB4cHLRtm2VZUeRMWYypr7/pcMsKRKBiBwCyCe7aar1q6mpve/r2G2++8/Ybi/niq7t3Hz+4XwPlVa0Alkda9Oq9ROdD+pIA9RG284TEbHVic63z+fz4+NhovMnWyKx6I1ScGyr2jh5USFMCUAUllCjzs/ni6ACa1c0b17710ot7u7uxbfaP97/46v7D/eNZFas6SIre+8lk4r1DjKax2whnMOQH/S1AX+zWIQanlBaLxf7+/vHxCZIiMADmeW5dtf0WwI0rdxmauWUyGCgaU1quV8165VFuXb3y3rtvX7t68cn+wYe///KrL+8+fHK4CuCbmJUj74vd7b2s13nYUTkpRlSlvmNzM1oNu9sW1xRXi8XC3Mgg8JT+4JZhqo1cYujYoC6BJCLUxenp0eMnlybF62/+4RvfenmcZ+v52W8+v/vh5589OTqeL0NUaBWE56PF3BUj751jZxOa1OhMO3dA+iNPznvIN2deTZbbn+pgN+J9VlXVxx9//Itf/OL2i7dv3bzh/XT4U4NxRnLoeeGsU2lUVf357+9+9NvfHh0fuaG48Nlnn/3TP/3Tn/3Zv9/Z2RlK0fDsow+opKres/esqp9++vv/8T/+r9lstpFCiffeOvifDZ8dlZ1lWQjh5ORk04jp2cMZza/1QKF7/81dPTxExPSAG49zZQ0AhGCpXveyHjQbrFAABSXYuFlVNY50UEGKBmtbYnYbHeyqmgDRETnlXlw6nKOmXW9xEiVEJEAg1Dx7Rr9i38S2JQMgCgiCmqwz2dJI6s6YUztKC8koGSImZoxRACDLMvPLJycnZ2dns9nMfLGxoAcHBzbDdkxqnheZz7lrnkCD9szsHAFAEkEAZjZAYTMcQ5tSSjE5ZgOjN6/fKMrCORfa9unTpyFpOSo788Uu84iWvCAAACGo2mR0J9Cp6mw2Oz4+Ojk5PT09sypMjPHg4CCECCCjcozIzjG7rqWiIyf7YE39aa3dXEISUdtR9nozy9u3b7/66qtbW1tffPHFJ598gohGtJg20woNnXVaJNFOv2MbnpgM2bRtODk5PT4+WiwWbRvKokTEs7OzzGc+y/I8d95513W6GiOzCYIHexaNSASQNEBKCioECqIS45VLl77zzjuvfPPl+/fv/+pX//rFwyfl1vbNmzd3d3ftYCjsy8mDLwAQo/FVYOgbMBy2Xq8PDg5Wq5W9b4xxuVymFHzm2U6P6kh1O3pEu++fpVjMExIBiIbYpDYslotqtXzh1q3v/+B7b3z79cOjg7/9m7+5d+8rRb+um+eee24ymZiYg5mTHQ2pInbuEGJso8s9IiCR6xtYAKBt25OTk+Pj47Zti6JAxKOjo8ViVRYjQ3XW9tblu2InU9joVECINKkkSQDgCcG7zHvHLsuyb37j9g/f+/7t5577/Hef/v6Tj/efHlYAi7qNbbx+42YxKlNMCtB3tCAQggIBkETzF2S+S1X76LJerw1chhAA4eDwoA1tlrsQgkF862uxW+4hOoqIsW4AgIIKGpMRzjE0zXQ8+eMffP+//qf/fOHChb/58Y+P9p8u5usGYVYHS7QuXrw49CaY0gg2yoGdc0Pt2gSsTIwgkuq6NhZzIIosPDMz9BBycICDudrejU1lvyQiEF3MF3VV3bq4993vvP1Hb7/pmD76+NP3P/ro/v37Z2tpFGI6AlV2DhGLvLS0ZCOMnNcEhx2BVnDph+CcE5Hlcmn9a6PR2DmX+WwI4aYGdf1eO8dtAEDIziuoirRtSG3QEJ4+eqhtc+f2rfe+++6P/vSPJ0X2y/ff/9mvP5idzpoAANC24fDwcLWqw/V04cLeqLQutqRgMg0cio9IXdNQL+1SYwdNBdK2zXg8NujWH5rXqVs2h6odQx8BGFOSvqSJqqkN00n5B9/65rtvv/XOa38wdvTw/v1PHz48mp8czQMhAEFKsKxWTw7265j2LuztbO+wY5UOMhAMh4wp9Odu9c90+MDGwNxFQxGr/muWeSI4Ojr6l5/+y9WrV7/3ve/u7u6qJnOz2hMVVhNISWLsKlYnx2e/+93vfv7zn7//61/PZ/NOHO6cOzw4/MlPfjKdbr322mtXrly1GPM1U7MvKUnbRmZcr6tf/OIX/88//OPPf/5zQz3p2UMU9NmHdT9R33dnfKb2aSL1rerYH9IHXRGuU4yaQxky1L5QrRZFYKNSiH1i0ZdUjMbrLVgUlKzFRrtGDEoinaocEnaneXbHBiMhStcIToje0i9JooIijISYCIUVOSkpQAJQASIlVCZ0rF2/KoKKT4qYQNF4a0EEAtE+nQfLuyGJABEgJ4H+dsDOHWJiBWU20CikQJ6n06ltxadPnyyXK5vSsiz6o5GT91meZwAoJncHKHzOrkttDVYgsVkZkg6EhGMGINCUojBoVa8ODw6SxCvPv3DlyuXDw/2PPvnwwYOHFy5evHnr+d3dnU6FgyTa0f3duhitKCoqZqOLxeLg4ODo6Lhtm7aNZVl654fjyxzneVESMgIwMCkxMAJZIbZTbDCbc7RTj5ISkxICQEoiqiHP3PUrl1597bVvvfLy0fHhL4+ePPjicwCBW8/tTcdFNmnbRsgOQEtApECCHUzVIe1DE6BBta7ns8VivmqbmPm8KMssy1KK4LkoRozI1J3eY4dEdaaI2B0efV7vFFBFdqAQkqaoqBDq6uLOzvfeffc//G8/8o4/+/jXd3//u/vH893J6d50cmE6JWICtDCQAFS6xlER5a5h2Cg3sXpNCGGxWMxmM0Tc2tpSVV9k7Fx/rEuXqfQbyE6XUiI3EOMKAJrsCAFEBISY2tC2WtfXdvf+9z/5k//0H//jtatX/u9/+Ju0OmvbyBRPD59OyqJ0nrwXVGAmSUCIYscqESGKITlFspNfzOhBF4vF6elp27bb29vT6dTUQiklX2SjciQq5K37AxG7ngOLqWoFe9AUozoMoRVEYiHEkedbL93+4ff+6D/82Z9vTUb79++FamUJx/zs5DD32ztbWZmpIpJTUJWu4YsQFJD7Bi7zpHDuyjCmFEJg5y5duczsVKVNMTWQZbkjNIUvk7qMU4zWT2imIDiQN2xxEoPkilOfv/rKnR/96R9/541Xjw72M6j3Rm6W01EjoW1Oj45yz87hZLJNdoZeL4Tp4LbtLo3ScWAoRrgiAmjV1HXTItJoPHGOiqJw3gGgpHQu/dD+QLRNnw9I5AFEY0yxkqYae3ruuZvf+fYrf/7v3nv7299erpaPnz6OTdOuhRBKz3XbHB/sS4yQ9OKlS3kxIjIn3AEDBfuIBEESQBxYWuO3EAmQQgyruo6i093djJ3JBrvT8k1K3OXaCNYqL91BMtDzeW3dxBg0Rla5/fzNi9Pyve++8+c//O43b986OzlyGjC1BGHsETIKSddVlaIcZYfMzvXH7PYBqys1gABadgeEYEe1dC2jSSGKRNFROUpJjGWMKSISO1Y5P6dcz/0AKVpbaKsiAMII1y5fuH39W99/641vf+vFKxfHLO0XzVlbzxzCdknT3W1B3j8+W9VxdnIS2ujQFVkxGpfYnV9sLp06dp24387DkoJuSGht8VMS6+xlZu95va6+uvfVj3/843v3vrp588bW1sSidF94MtCKiF0dGRQfP378299+/NVXXz1+/Eg0ORGxhhNF/fjjTw4PD19//Y1vvfLK5StXvaNOum4wByjGWFX1er1aLlfr9erRo0cffvjh/fv3nfOWUiCiFRfH4/FiMY8xpJQQS7OnQThp0MHqJnboskEN7g/zsbM3mqZdLdcAOh5PylEBAKqJyI4olw4PSiIiSTJgGpMy2bkrJse1GRQRZtdWzWq1jikRkKgkFWUQFYWIBM5TljvnKEnKPLdNaiSoKqpDRFRgBZ+AIGEKmCKmhABKElFYKWvF10KNqQcxOecmI56MwbFgUkFAEFkjAmknVFEkJRIBYEigSRWYBDABIlCMCkg+L4i9AsWUAKHIvQI4ZtTESr7IslEBKg8f3n/06PG9e/ec49Fo3OsZwTmX5+Ms81Y6CW0iBYeIIqOsHI1GVYjoHZBLigpi9h+6ogYCkIpKApUY1m3T1ghwaXf3ws5kNT/+7Qe//PTjDwHx6oWRk3UGYxBJgsouRWmahjx7INNmISRGRfYhhKdPn1rja123WZZnmVfQshxPJpNzwgyZkD07j5Qk1VWtsUEGl3X1S+YOewOiIkuKzmHuPYhW1TI21fbW+N23//DVV1+t1ovf/PKnH/3qZ5zi3u7k2u7k8nQsTmOTPHFSRXKKyboakL1hrA5yUaaiZ/P5gwcPDg+PQghFke9emLLnsijJOVR13ucuIyRVNR7VaHrt6Horilk8VUdMKkxF7rGC1bpdSgiXdnb/8NXXvv/u25e2yp/97Ke/+uk/Lk7nt6bF5WsXd0Ze20pUs7wUxYQJJK2rVdM0oOSdI/QGua3B1ZiJ1WplDTVZlvkiz7xHJibnmIqsAOnOp0+axHThbB/SUTjnsKtCqoRapW1CDCLIFFJsm/r5qzf+5Dvv/B9/8RcvXb365Vd3P/vXn6+Pnl7OGYp8uj2RuprPZpPdC4gMyIoSJVq1opUmiz6lBMlE64Cqzbpar6vVaplUUHR3ujPdmRZFljTFpKPxVl6W5LjICrKDEREAFVA1KQE575kdAoY2qjqHvAq187lgLPPs5VuvvPfmW29+65WLefb44YNHd3+PGi/tlJj7Zd2sV7N79+6KynhrN8sJgBUJFUgNAIsnm1LQlLCXQFZ1nSQlkXI8yqEDbUFiXpQxgaQQQpsUnc+YmZwjJlt/AFBCRocIVnRySO165Z1sX5rc+c7b//4H33nhuRsPPv/wd5/8VtaH3/7mrVfu3Prwq6eP5u2yqo8P9wH14uWr5XhUjEaceRVB1dBYEcepqB1WSs5J1+tDoto2IUT1WTbZmhrP5b2LMQgIAtF5Kbb7bJqBrOpSNJ+HNiJIqtacmrdf/sZ333jtrddefvXlO7nTh6eHy9ksY7h9cyq+mAU4OZ2vlvX87NQTZy67eCnPfVHFKqYWEVVT0kRMURsgRSSBJCKOvc98EpUodR2qqooCvhhlWeaJySp0AGKHoSEDqykHAZI5LccoimLHe9t/KiCBSN966w//9L3vvvPaK9uFW85PPvv4g88+/SCl6s6dm+OtnUXV3nvw+MnRMsa4WJ5lWVEUxWQyRXSISZIS9jVhAYpIgI7t/DEU1KppmhQEgfIiZ18WhSJqkiiigIAE2LFhiNKVGJOCCiALWLu8q+tlgnT14t6r37z9vTe//epLz++Nsnpx+vDL331x9/3l2f6Fsrhz6+pzt19ctfKb33762VcPk0Co6tOT49xnTHaIUVKVLDP/aaiCDWT05BANvzIpFSJblwP2H5vgnBuPqW7WH3zwwRdffLGzs721NQHAvgLQnaBAXZsBELGdjbRcLlNKeV5kObshzGdZ1jbh8cOnTx7/9V//+K+Hw7YAYABlulFcXK1WFra9z3Z2JtJr1AeNxcAd6Xn1DjePRLRDUWT4cAFnwU67pIR4Oa/qqiGi6fZ0Ot0SMbWdnV9bO+eYiRiIXIpda40dBoWIeZ6bJrEoCqvlGwd4djIPSeJ6lax4DCrWlNVzckTMjhioqVFRyQ6pQFFEUABJyY7uTwlSohQIBFGdqE+aBS1acFExYVJt6hoFKClmmTpGYmSMKoJAoAikRAKaWAghqULfl9ofawlI54mvacdERFKyrs7oYpZlzjMBHBwcPHjw8Pj4eDh6SBWsGmKVVDvYlYidl9A2xFiUPiu8y9xWka/bkFSQHSiiIHSfxyQpqWIiICaXJNShqVfV3oWda9cvn56efvLxRx999MHu9vSH73335ZdeOpsvjo5nTVNhVhBAoCGrIFAQSYRASGVZnp6eHh0dWTXa+yzLMmbyzpsdbggIUFRFpU1RkoomZgRGx8RM5IipO8vAmF9iZ3X9lCKk6Ahv3ri2Pd06OXz6q1/98uc//WeN8vqrd/7dD3+4vb177+Hjrx48BJf7vED2jA61BVUGckwImFJ07PO8UMXVcnV8fHx4eDSbzcuyzHwBSp6ddx4IPXOeF4TIxMbvmre2wrGqdSDIufA2dce/iogkZSQhvHb1xsvf/GZZFP/rn//X//yf/+dsPnvrjdtvvvWd3b1rX3x5//OvHhSj7ck2oHPkWCUZn06qaDGKUTYk34vFoqrWzvmyKHyW5XZIa9cmhoiKjkgwpe6jaog5qfWeJBFkQ70qnj0gRtGAab1aV1U93Z68/uqr7777TpbRz//lJ//805/cv//5Ky+/8O6lS5BtPXp6sn9wfHp22oju7F3y7FJsiMhO4ZQo0UcRiEmISAGS6tl8vloum7Z13md5XpRFnueAQsqFJ+fIEZqGFUEUQUWwd2+d5ktEAYm4yDgCT2DUNPV8dnJtd/rG66//4I/evbw9/fj9D378t3/9+e8+uf38c6+9tXtWh/uPnj588rRarfYP9i8I3by5HcXINkyidi4eoVWoEvcf39A0jZWWRpPJdHcrxGR6dacOFOzTwpiYHdnniqlInnVOTzpOFADAFwUpaFR1bvfChZdffO4Hf/TWD95549GDz3/+i59+/NEHufdvv/3G1vbepbsP/+Wju//6wYfmvsHx9fwGM0dRIgTt9PKKggTEnOUegEIUREyqMYS6aUiV2GXOkxFeoj7zokJqVABYSzn2RTQa2llRRYHYawgxxOtXr37/e9/7iz95784LNyiuf/Ob9//fn/zkk08+zYvirTsvbV++fv/g9Je/er9ePwHV1Wp1cnpWlqPRZNtKt5K6g5UsqIAqEXrv8yI3lOB9XsV6tVo1TcueM+8BkRAyx+QyAo0SjaVTg+uICHYOYZeRIqCkxEzO+XVahND6Mrt187mXX37l1nPPh2px78vPf/3+h5/87vPJdPdbL7186/nbv//y3mLVHp2tmyaJaBvqxWqJzGVeErGkmCRhJ7hUIAQkIARiRJUURSSmaCeDOs9FXmgSYTtqfuiEsnbzrp8R+gIAITORoMY2gCZmuHrlyvMvPH/79gs5psf1om7bZV2JwqXLV//g9Te/8dLLT45O9o/nB8ez+boShbZtl6tFVvjJeOI8E+Z9SnmuMNXzmsg5cARQIyr67n0TAEHTtMxUlmUI4ezs9OTkOMscItvHhHXXVBDpjpIyzQARj0ajnZ3/j6w3f7Ysu8rE1rD3Pufc6Q2ZWVmlKlSSkBASAiQ6TCOwDHRjwEC33RHuiPZ/558cxg3dDjCNbUxDdzNooiipSqWh5jErxzfce8+w915r+Yd17s0n9YuoisyX77533j1n773Wt77hdLFocxnD8eBvUsMUJswO4m23W7vhQ3y4ODjaBzkycXp66sqio/ffsao4vurmh5vtA8A0TRcXF3RDYH1UqPuwjShM0zhNUwhc61RKUoVpGmot0zT6FLZpmtQEp3rggfvptK+j2oUOqge/AAV1cxswcwDN4VZ/T+mQoQAAxIQEMNtuzlJSUUVTEAVVrEKqYMpqQaQRYDHKhlVZkYCsFnREsqmQIscATBBA5+qbgAgwmMF8EJGBU60QjXA+k2YToAOnQ0RqJVIASykpWC2lH4aLy8sQwtnZmYg8fvzY/bLM7OiFemRpKShHim1olrFbdm3TqEGuaioqddawAJnJHIwzI2agZv2+J4Llcnl9ff3Wm68/vnjyhS9+8Z/95q//we/9zmrV/sNL//i3f/eNsh1YfLKMqgIWiChwAHJvOej73l0KTk9P9vs+51JrSWnRpCbGdJBUmKoRE4HVXKUWq2qgMQUMHCOFGJKbSxowoJoiqCESuPhSEIyJap4+eO8dRnz08OHZ5uSffOXLf/B7/+JX/ptfvv/xg8dP/u/rqy3yeHIeF+2yqpN+7eAQra5uVgWpdRwnj1FomrZpWw7UNCHF6I5LzCGk2THQ1BCAw2yOORsGAuhM2jYw1JluDACATBQDkYnqm++8/fqPvv/xxx9ySr/5z3/rN3/zNz79mc99/PDJex98fP/+Aw7Xp8N0+9lnu5TKUMA8nmMGJYlIzExmkZvNW3ZYLJdOXokhELOBUxGNGA1NaxUrACSqTHxkcXmrquDmn9ggEljOmQK2XUuRL3eX26v73/7G37z55o9++vOf/rVf/9XnPvXZt99/8id/+uc/eOOtbZ9PDdvNCaUIQC7FAgMydB0TMDEHqzXnMuYpS5lK5hSX69VqtQKzqYyMgIBNTMvUOBFvNiaAOVYKAN3O0d02wKxpw63N6ZMre/+DJ+N+L+uulAkJn1xevvzad1/9/itt2/78L3xpeev2R4+v+qwfP3wyjMMwjJeXT1LTnKzPQwhqKFpFBME8xOG4oQXm4sTznNumjRSIoaoGQiauoiCiUq0U89kuESPNtBsDNVE4AM5NAhVghMLEGJt4+5lb1IRutdzcuh0WSzHrNifr81vrJz3Q27UIczCwcei3u11omti0hAxkN3ZpCinE1JiiWjFAy2UaRskZAAJhROBA7rQjqsfdmYnwYCUHh9risOegqO+PJIAAZBRit0iLVdnXqrbdDsNU1yfnn/v8z935xIsjfG+xXDYpAcVS6+XFRZPSHaKQIiHbHNwIYkrIogKEIYSQEqgVkH7fj+NoJjFSDBwDgRmqQFZQA6ZAwEwW0Fk7TipBEgMABUQghdn9jICJC4Wq9sM33vzMp35qtWjv3jo9uf3c8ux2XJw0m/NmsVptzs5uDaFpq8HJ6QlzO43ZB4iRY5OSoIemzA3CPDcioABmOI553/e1FoohJg7MMvQ+AJ55CcyiIiLm1gNGpgoEakbIKmKmKablcjWN/W4/vPX2u598/rkXX/jEC8+cnT/7wsmDB+tbH3J7ZZIwxN04XW33VYRjalssYq6lTykFDgtuOAY39sUbBlE0xxb+2ATEZ7JHsxMfKYiomzSGOBsQT9NYazbzGKzjSeSnEiCiAwTeHxKRa6aCnz3zPMmMiNq2TSkuFgv4cbnpzfrgaCCNSPw0VQuOQ40bZdGPvRYOo11vquBAjHBv1+Vy6Q5lIYSYWlFpmmgIfd/nXERqKVlEPDbCvzJOxBxNj1Z92e2MPB3DSUB93x/XzH4/5pxpbsh+zBbpgPzBodhyhoUaKYJ3P5t2xQAAIABJREFUoAYevasGVUiUFMggFlmINoBQVKZqVZA4YQiGVooH45Cpy0ujkiEpmrGJGjKYIUT0eniOw/GrmovIwwjyUAA5b4sO6WJPLq92/X61Wn3us59Fotdff91NsTx/pGma5XLp3uoiMuXRaiHSWsfdVgJBk1gUmiZAwWmaFMBTg51zZEQGJiY112macp4Q8P7DB0N//fjJxa3zW3/wL37/X/2r//FTn3uxf/LRy6/+47a/Hqd+mVoOqIqr1bKKllIQMFHkgKp6cXVBRJ/85CdV7cMPP3z//Q/MxWkHJtkR1hqnYcxjGacyZQJKMbZtxyl4wkJwpy01NHNnLwE1qSrVpCIqE3zw7ntvv/7Drm1feP7ZX/nX//qrX/2nX/nyV+okL7/0nXsffZzHCYMQUqQgUtAUAU2k5qlOuWlTlTpeX03D1Pd7M1guli5CIMS2aYkwEC2aFsBqmcaa1QxUQ4gtdiFEQvUgFpcxAtghptpUFRQBjGMAUxT86ON777z9Zhn3n/70J3/rd37nq7/6K5/9mc9eX+/+7lsvf+eVV6+ut+uTWGudxmygRws/H6iamYco52maxklEVqsVwFJEmpToSEsyE1XTWkpBJ3uCJQ5IpGIhRA7BWyinmAZDq1JVgIkImrZVKVPNb73zZumvMA8P73/w4s986nf/p9/7ha/8/PWgL//wvfc++uj+o8fAKQ1D3/dN1zZNKjW7exsy80HTNEqptXCgF198sR+GDz/8sN7wS22oRYBhGHTKQNFgdkExMBeSIaCCHbOQDSwwIuh+d0UAm9Xi6pF+fP/eK698p1V9/s4tEX3u+Re4ie1iAWC7fb/v+zJlf/04jpcXl22zXIRACAKm5ucu+LJGwKZJm9PTRSk5F6mVzMo4cgjRELIUybUWIAxmhFABGCzFwDE2TQRDNVBzdhSHQBio5hJS1DZur65ff/P1v/tGt9ksPv+FL6xOV9SEDz788LIfH2/fffOdD+4/eBRTWm/W1DQKdnV1ZYB3n30WAhMx4ZyNYAohRARGMiY2taGUod/HECOFxBxMrQiollpD2wQOhqgmKqpurIGoB7HcvOeoIXMIoCoUmgePL/7uG99adW0bvvbip1746Z/9hS989Ojxbrzup6ttn+/de/zkEpGWbsFSVBS3u11smvVm3bQtMwOaKpgIeWr0QYelCGI61aloMVAEYFA2JWKrk+uzDCA2KTUNN4kQqjND1GaCJc1x4QhWawGz1LaIWHP/0j9+p4yDSPntf/YbL3z2Z37xV/7bDy6uv/OD1x/neu/R9b0Hj3bDdH7rDnAwpVxlHMfdbtc1XQzsfClFMDo8aggKRm5aPfQ5T8QckYIRV625qFRDpibFtkFCQ6xelRjZnOZ3ME0UE6kp8vpkgyCPn1x9/dsvSSnLRbv+2ldPn/upuxdXi9ffs/DexdX21dd+8OqP3rra7i+ut8ShaWM0860g52mchhiZWVzqZQdWxeEUPjaJ9vSIQz1+BhE9RpFDcI/BGEPXdSHwfq8hpK5bHE5JJ4GiiqpC08zukZ4xICKljv53F78YAehBm+l7C9ywnbpZOhwPOZ3teuxmDXHTCOtYT/hrHTkQka7r3CWp1uoBFj5YcYcyb7DatDjZrIuWafB+0TdTOkgY5vDWWtV0lkU4fOLlhX+BGxn5hRH5VIkOfF0ReaqxPhZDbvgBNyZ1LiB9SuNSIbVgwGJBLRZoqiZix75AhYgDAyuIKEG1YKbkBwwIKIIgiSkyGIIxmQmoM4FmdpIiuO3JDFrduEIvRelgMXu9va61fvbLX/7CF76w3W7feecdf7c9g67ruvbwkXPOZTStksd+GGqerterTzz/QtMtm24VGAqiigIpmIGqB0+BYi55nKZpHBFRity7f3/q92Z2fuuZn/u5n//0Z36631/+w3de/uY/fOvNd98EbJeb2xxjmSTGUCWbgQc3TMO422+HYTw/P3n++eeJeBynBw8eegHUNA1HJj7Eapjsd9e77YXUaqXG0CRaBmoCASAEQq8rCM3UiMjIQEzMTMVUGUHNPr5/f+x3MfJPffL5r33ta1/96q/sttu//qv/9Ed/9O++9/0fhNSuT89SSrlmFXPDRRCppUqp1LVVdbfbX15cTGMOIcYYXRcQmCMHIg2EAa3kvN9dbvdbnxmmprX1ZrlYcIhm6hw6NPBNFA4aOVVFRgoBwEjo0f37+8uLiLg5Pf/qr33tl371n148+Piv/8vf/ul/+LMfvfHG6entxXKFHPI0FcnEDoIj2awNkUPFOQwDM202Z0TU9/1BjeDTPINSreTLq8eGSoghptVq06YGkBgZMBgA2tMNx0OCRa2qxBjjerO7ePz6u2+9/86bzz1z+nOf/+nf/b3//ld//VfvP77/F//5P/3J//XXb7z7tgIuF8sidbvfbk5PYhvJ3MJt1r74/jCOIyDdffbOF7/ws9eXV3nK9+59ZKpg4Lv5NOVx1+8fXVxTiKlZrzfLzSqmBgj8TT2MQRRFkMGQyjTuhn2FggSr9fLy4YN/ePnl117+7m//+n/3T37xy5/6/Ofeef/d7/3g+x88fPju/cePr3tgbhcJiaRoKbUf+hBiahqc6R+uMiCRamCLuLx161YtZdzt2WDZdQy0iI1W2e/3++vrcRqaznPdU4rMHDhGD1kXh6JtfrwJEdCqiIeMjTm/+e6D/bgLEe88d+fZL/zcb6TmW9/6h6///de/+8prHz7cX+2ntm1i2yBFA5tK6fu+5hrDrJWdOXRoBqAqftNrqWWaQCQ2bZdCJDIV8eTKoW8Wy7Rcdl0XOCq6N+iMfh30Dur8a+cCxqZZbTZXjx9+86Xv7Hd7IvyXq9+5+8KLP/PFn//Gy6+++f0337//uFme9NNUa42pAWAmqwpFZLvdcuAQY0px7jzV2JAM1aPgVMRN/wgMVU0b5i4lUBmut5oHKbkfx6radd3ydLMKG4rRrAKQEsBxeKwGpoSYS5nxdUZVefTk4q/+5m8pxmef+8Qvffnn0/rWxb6+/s4HQ6ntcgXIFNNitd5uBw4cE9dSpmkahr5rmxgPq/jArxcwQphy6Xc7KSXGuGwSA86tl0ktRQ21JjMJTUMENFsXEPqc2QCBwSTGgBV8lIAcBfDi0ZOXXvneYrXsutVnPvX8W+989N3X37t3cX257e9fbEXMiENskTkQuhCEkERrKVlq1VqJn47Pb3T4MxsB5oGIbxt4EEZ4+AAyUy1FhVPjJG5KKaV07mKxn4AJiAId+Js+1SViIquCTms45HIhur/iIQKUfgJyoING/9hA33StuHnmHcGW4x/8g44JmUReWDjS4BOdvu/HcQwh+Is4YAyRhKSUnA8OaLNIhBx48WtzV3KPaweY3ZmOzb2HZfjFtO0SCfXQ7cHBtO54G+AwbTIzQAUTnEch/hVABqRGYkExKLJYUMFqFbKgGhsyY2D0J0gUrIACWFVFVY5O5AYAoHkeMxczisZzzAjiTKQ/eGrdrM/s8FCUnEutqnpycnLnzh1VvX///tXVlRMb/V09Jgd6DTcNY95e53HvxtSPd1udyvr07Pbd54CTT1gRjJgjdxrIjPKUPQas1qKE3MRoaYB9rbUf9j98443mr5tHjz76y7/685de+nbf5/VJm3NJ7Sxyk6IhphQiM495enJxYSBE5znXadqVUvzWewEUOBhAlVxK2e12u4vHOo0eXGHVlLmGQAixaw8CY+BABGxmAmJmMhfToIoCsFit26ZRK7v9eO/+g1e+99prr/3g3//bf/+Nb7/Uj8Nzz7/QLBYGmKdMFMSgmiiYIiqaAojIOOb9fhzHsWtbJkohBsIYGE2bmLqmqTnvr6/77dW4uyamKjLRzqbM52fL5QoJCcgM1aSaiLonitPvzQzIEXOiJjXSdcRogbf98N5773/7m9/8P/7o37366vdXy9WtW3cwtO4axxzNPC0Z8eAON7cC5DIarLUG5rmkQEBSNFKRPIzDsN89egKgRhBDYrGGOMWGYwRyxQIeNZGEBKiujCSiJnVSlg8+lieXj9cny5Nnn93cee7eo4u//fq3/uzP/+Jvv/myYVydna5WJ+NU+3642m2NjMiOhl1uEJfzhIinm82zd55ZLVdjP6zXy/1+vWy6hoOJlHHo9/vxejvt9ttxMuLNycndZz9xdvtWbFuwOlk1QlAwcO0D1FLrmMXkcnuFDJvTMy3lnddfv3pwsdmcfvrzn//Fz3/u4W73+rvv/+Mrr45KabFZr9ccUxHr97nf730DiZFxTipGM42Bjazmkqep1krEm80GEANSAEiE+3HM+30dx7Lf1144pW6xXC4XYZkCIM2qDTMEnyuJ6VQLFK06P9hNt9jvrt9+7/0/+bP/Z7Fa/v6//P3zW89is3z33uNXX3+nHyWtTpu2yyJoNYQQOZnadr9NMSZi5wcSkSkUUSsSmXOpnnXcNm0TKDJBlWno6zTkcazjeLXdNt3q9ORkdbKJbRNjVLBcPUwWTfWA/lupVQFTjB2z6dlHu8uXXvlu28b1ev2Lv/ClJ9f7y93w1nsfjbks1yer9UbAzEBEHH9V0TFP/TC0Xfu0sLCD24YdcAuRqeZSspm1Ka3bpmEedlN/eWkyMYLlSarsSyayRdOEwAymaGSgRzELIiIoqJurqhkgNV23Pjm7f++Dl17+7sn52fv37j959PjtD+73GR5e7FYVb925CxT2uz0yuTMDHbz8cyltk8Bolp66KBlMiZxwk5i7mFqOUgqME5QMUGVyB+/o+jtOyWfDZjNp11s3j3JxWL1WRaTlck2I+6n843e/bxCeuXP20fvvfu/V1x5d76aKCsAhGZMgevKtGSCBoVShaZqmNKaUiG2mRoO5D82NUx5gtvr226uur3Qo3N8/YvAUezMrZQKAEMIxh8F+Etr3AF3/BxMpIBACB7uR8egvOxoSH1XFx57+yMekwzDWDnyxmz/s5vn3E9fh0o9jApN/q4uLC0/lLqU49XIcBxGJsUkpAZiIECGAEyZm6dfxGo5uqXqwjtGDK7McQniPoXk+XPSrOtrdHH/Vp5QlOxJV3CEWXGBECmhCakE1qEV1goVBqVWLMFAMPk0EQDYwVJWqClatVlHjGJYIhiRGKGxCKsjq2jAlJKfbAutcTc7nj3n2Oh5luqq67/tSa4hxuVw+fPjwo48+euWVVx48eOA1lpm5tyYeVO9TzkO/2z2+sDKslovlYnF5cfHo3ofDvg/ctKuT0LTIhEgcQtumKjoMk7u+jOPg9xSQFt0yMD+5ePjeh/f+7R//8X/8y79UK6+/8f3ddvfc8z+Vmk0/lJCyVESkWnOtEphTimYaQphy2e/7y8s3Hz586FHa6/X6mMbpv2+tddzvcSqNKAIaEInZOI1mRJia5JxZYiQKaASmpVSdjZnZKChVQD45O5+msZb80ceP/vj//NO2a95+693333kPQji5datdriiEcRqNKIYoMPOXODAyK9g4juMwep0amEPbdW2TYtBazSQFbmPYjvuh39dhhGHkFGuZ+lxkmiJR5NAuFoKmAKomKlVUxZiBAjOQuksSEZid3LrVLTrQOk75b77+jW++/NKrr7z6ve//gDicnd/2FDIBKLVgII58GPsaHBefmZkys4pst1vnn8du4QYqqFam0u/3u6urqIYGpdQ8loHDIrVhRSklr4TBRGclI4jVKpViYKRi1QxjbM5v310uOuXmoweXf/ONl6qV77768ms/fHuq9fzsVrdYpbYDqv00Xl5eEEHXprYJhyASYOZhGBfL5Xq9JqQP3nn3/sMHtci6W7WpYcBhzPvr3TQMwTCmdihydbXNw8QYQowrZCRkRDX0N9ZAQdFEtvt9rjmLLlPLKbWrk9Pbd63aBw8fffM7r2biN99+5+HFltvFJrWUWgpRHJNBzWXq+36xHJZdh4g8Z01ACMEUpnG8urqKHLqu4xSb1EguTJTHaXd1VYYhIinzNE1TKVoyEzZtm9oWAlcAdLJKCGAotdSqZjUQA6AhrE9Oa63vv3v98OLqL//z3+3H8tOf+9zL3/n+vYfXodtELN1iGVOSfW8Hf0IV7ft+vVhFDuaOSKqGUKt41lnJeZzGALhou0CGCtMw9NsrqJUQUwzb/djXPQNy4BgDpxgApbrq5jiMRzduIGQRFYDlyent8sKTBx+99qM3/tf/7X9/8b88X2t994N7lFrCWACnWshDusEpEDMaP/uIqwKgqi9qAADGuZ+vqlWl1ho5NE1EtDz0ue8Tg7OQAuBW+2EctleWmmbDxCkBwgwGuT3G3B4qM6NCrUKEsWmXp5vnm8/sr6//w//7H//m77/FiP1+j6k7vRPXqxMgLkWJAiCqiiOshFhrFanoCX6iiGTefc9GrxCYG46JCEq1caQqbh6PZlWr5DLSngI3CJxaBPfHhDk1BpCAVKsqhBCQSGoNHFLTXV0+ee/e/f2QieDiyaNhv+emw9C0XZuahZh6VpeZyQHOllpLmXJOpebYNDOb/QZz81gJHM4T9+KYJ/7z4Q8zZctziY/eFUd0/1i8HWsGVXEDjBv0RFOV4F8tIiI1xhQ4eq//E5UBHJJsVNUFF97luzWyszTcxN5NZ4/jFf3xnN/jQ4aIbduO4zgMg39yHEdP73VWBNHIvoyZPSknpcj81F3KP3yGEkLwiJqb7+bRVvwYDANmVQWRjPzNM3X19A1w5ekFH7iTpqDkgmUDNVRjgETcAkQxUoliIJXAmCOnBpnc94yYIpIaqIoWNath0ZGpACghBLOAQlDRgFGrIJJVZCBQRTMRPSZZzXfeC0tVIFIzqdWFteM0vfHGG++9997Dhw8BYLPZrNyCNXhMkteeeRjHq4tLHKZliiepQ8R9tV2/A4tPHj68FZrQtIiQUiLGXDPY7DOGiE3bwqG4FLQQ42q9uby4ePOtd78//VC1tm1z9+6Li8VpCG2MTc6kquO488uotYjUaZrURKS+9957h6hx9vQHv9F+v5wioyJYdcVh1XVmtt3315eXmBqk0HbLdrHw6t88Es/MAKuoCDDHJqQQmpwnAIvNQkW226tv/MN33eB8szlrUopdGzhmlToNHFL1oROTqBgqEGx3u33fg0nbJDBj5tREtyZv2hZB3Rlw7Ic8DDqOtxdLQBjBZMx5v5v6lZ2eLbpFQZvGLOMooq7xiSFSYAAQs2oCombQdm0IDFqvdvu///q3n1w9ud5uVyfnTeyapiVOaogAVQQnDx8GM+DACDCOoxnMWUGiCEhEMXETE8Nsvaci11fX1xcXIOX582cC4n7sH11c7J5ctrFdrzdtbDJAlToHAJLjyhYSGZgaoMGUp0Dp7Nbtuto0Kbx77+KdD78+jPv9MCxWtz71qROOTS2Wp4whLsNSVVANzaQIGhKgiGi1tm211McPHl09ebLfbacpr5fL9XLJgGRgue4uLrfX265pT5bLaDr2++vd7sGDB+1y0W02bdPVAoQQQkCmUkvNpYpA4iZ1wZpScz+UtFh/4sVPL5eriydP/urr33rljbeQiLrVrbtxtT4ZprzfD6VkU0xNo2oqOg3DPu26bkHEVepc2AOEEAlpv98TUtd23aK1yNNu/+jBo/3VZSRetO3idGO6fPT40X63N7P1ZpmaKGBVhDkQBwAUMzSMxKpgaqBAFGqB5fLk8z/7pYvLh2++e+/jx3+x+dtvgWG22C3Pl5ugAFPJTdPmWhCRPLe6yjhMbdMRkQuCkMhUyRsJrW3TJOLIIRCUYer7/TRNi6bp2lZU+0kutvtSMwZqui55LNzRTUc9GQyBSBXMpJqBkXI4OTs3k+snD//xu9/77vdea5uOYuwWq0VoU9cgaM61ViEOBFBFqhTU2SNAZjM6IgSpZRxzt1wiQp0yxXDw+YIUYst0fb27urwEkVunpwGhauEAOmrf9+1+361WoW2cMyu1HiB2JV+eh/TRXKSIpKYD43HKjx89+vD+wyal9XJ1++6zCpZzLpNUVc9UQEAFhSoY2GMyVsslopmKU3EVQcSmYQDT89PTLiTph/3VRe2HFLhNIaY45ai73bbvY8khpphS8mBbA3B03COyVdmMAqgpVAkx+QHULTe5yEcPHuc8MWNKi2axoqY1MzEgTgw1qJVSEHxYxz4Kq7XmaWrahR4SE5921E/5FqgqpRRzT+oZxgBE8un/sdk+HtY0R9iLN/N8w4S01jlg2VMHum7RNLHWEm627CXnaSp6CFOBQ/l3LGD9sXB5CRzEpQfixtOpvzNAbx7/xw//Gsfq3Z7WDpIQJ13mnH3cfggdVsTgEOVi0R3xCZfb+vfxWng4fDgogoieb3s03UI3s3TDbQMX1rtnoc3pWQgHzace2faIiIpmCOaQWyJuCBvTRjSpkRopEDKEQBQQSL0QVAUwNAiApooCiBaqEqsGRCQDUxQlMEA7uK7M2LW5ncJMQMaZpo+HudgcOOIYj/sKX15e+nvibE33fXO1rZMtpFYpRYssm2YZYxsaIGtSCkOotQYOnhgeUopNqiWP41SKTGM+Rm15Y40eQ1xKk9rz8ztt111vr0X09PR0vVrHZonMRPHo0+y32O9I1dL3+2EYp2nMU0bEruvW67XHoeEh/8Jpuf3Qr0w7bhNyNdFcyzgFDok5pcQchdyxxnzcwMYcDXk2OFLEAECIVWqtEpvaLgtwEwhPn7mTQgBid4dUAJ4zQU3RFKyaZpWqJZfJVIkwpRRjcChb0QAhcCCikks/DLvdDsbpdtulwKBqRYZpHJd9mbKqiopr4QkJgHymQESHVYVq1UT3/dDE0DRd3w8PHjzYDrt20S3aJVMEYFWY4XRf5LVgnMNWzJUetZacvZyfjdSYKXAgBjVELGWsNYcQVssuEiXADIRiNec8jFM/LldKPtj0Z+wA5wHqbAcELu2D1Cy7djWN0/Wun6YRAFJ7slidTnWcxrwvWbTYvPqgylQKmFKt1VQ9GgrNcs7jMLgcqokxBRfSgPmamh0wKoEuum6xWFxtd/uhH6dp6AcMIaakCMQMCKqadSqlmqOEYACsENRQgNrNeRjLk4uL7XT/7OxktdosT0IplRPGqkW1aDFFIjYT19SkVJmDy+x1diFTZm7btu0aRFCbrWk9doYjpZQS05PLx9M05WmKbSPmMAUVnVRVoDJHJobgtQqo6tPBN0cxe+buC9f99fWTy8vt/cAxcDo5u11Vh2EfLMgh1Nc3hlrEY2P5RlrywTQFCUhRgQkImULGEQCImTgAgFZxOFyqmpqPXgWeunbiIWqE0ARMDdnMUTdmWm3OiOnq0f2rx0+Gsdy+++zp2WkWqCJgOM/OZknljy3qnPNMzUYkJGJ+Kqc3ZCMmCkimKqCGFGIUs32/J4Ap52nMUynEQQEUwFwodLA4ng+yQ7c+/8+JUwDI2Lbdyfmt5WoTAseUDFlFVEihOgfBCymT+ckXkZJz3/ddagLSwfPfDCAyE4U2pQiITCkGTBwMVGS/H3IuRaTUaoVKFT3gAgjAxOrI74EzOSudvH80CyE2rS0WazVMVYiAA1GIqmhgogr41Nr/oLmeiwa1Y8qcHm3Ub7bNMCf/AcAcB+4YuVPA/QCc9ehm3s97i04Hk/VD722qRuRumRMRp5QWi0UpeRh6AHUvZGBmABzGQcWaprm4uJim7ETL48jjeE6M42Smi8XimLNy0zrCF+E0Tcff5GZVcTM9yL8SEb2pBQCPRfV0tZyzZx+kFAHMNQN2SKT07+YViQdWOevTq5PjNAd+PLjPyZCAQAo+Sgc9WDcdizq/ZgNQdGtuMBfMGIIxhhiws9ootijBDMVQKwHEkIDZb6eKWVUkIGI0ZAFUo6KslagwQwDOh5xUYEA4LA48Ujx+UqmrR3mY6pEN72EQfd97QeatvwNIfCNpxd+Etm275VKe5L5OzkfrhwGJmqZFZAAk4hhSYC6T1lr7fZ/zXGj6OMlJYeYxdMQYhFNsuiUSrZbryGnueJhMSVXMyCE7RDKQPE37XX99dQ2AHHi56NabVdd1/s3poIkiciQCTS1PxcSmUvr9MOWa1hSbGGPAgyrSEInJjfwCRFF2eC0gE5KoMGJIqW2b1fpERTmwaUU0t+gQQ3LPVZqRdTMR0yollzLlCUSZkFIIKXIgZFI1QY2BAAmZkDDEZKUO/Sgp5iyqxiGGtg1tzJJL1Xoo9hHIFPgo/EFEoBpAtKQmuX9oaprbd589kRJSg4a1lFI8Z+7gL6lSKxHPLlZ2MDmupahrlxmQ5/0mxMgAoJhxFK25lsE0Qh3M9n0/9GMBrWpZdLYvOdTXBgCmSA7futDQ7ySJqALG1K5DbPLSwLqm5QiX14+nMSNC4OB7OgNJqRqCuv8EzVQvKbXmknMOTN2ia5K7Nc90eQ4c3eyulOvra0KcchZQZopNahZdDIm54cTiLuMivvI5NQaAyEzqtkRqPJWxW22MAiCsz85PNicAsN1eR6SalHM5ulyLllzGPLXO38I5alGtKgLEGNuuS22jUsZ+sirA2C1byZ2Uerm9JIPry8vdblfBWgNREwVkC6ERFUFAQkJSEVAlI4dOzR11TQNiNSEKy81JiCnFDgDBaBj3uY7AAAhYspo67q9iZSrTMN6wrrlJuyFmQiBArKBiUM1K1cHGcbBhGLfD2I9DSOkwcrfZv9Pxac+m91EbVxVAtVFyEUEKqWnMVnUzLZbrJqZ2uTJANjEEq4DITie4eao5rXj2ySUyACTkwM4NMiNQI8DIITKbWSnKzLHrAGC/39VSSq3X+12ucnK2XKxW865lswbZCwl0+pIHceHsb2yHTj00zUmMcFAeqSPQxPDU9xjQgADBbVdEcynDMATmwMFMTecADp7tOQOqIiPHIDXWkuuU+zyKWVUlDjG1sWlDm2z+/l5uAav3s+YRDjBrcQCRwAiBY2o6tSoVEYhQ/FoBZe6MPczo4LoI5t1FqbXUUmp1NqwXQYdmGY6lns6JBQioxEhcJ33JAAAgAElEQVSMpACHaC2n5ZVSjgMEOWTk3sQInMilWkMgAOv7XSnTYrHwIiH4zXBTCma+ePLYzLzlPTTMx/oPDoG8MI7jNE05ZyLcbDbL5dIDfP1QPw4v/mvQ4kjXcFvAY3qkR0M5FuKPoI8kXCriKEXf90d8xiETF5T6z52myUuN4/jnWM3MRYM/XOTez+bPkIJ5nT4XHwAwJxEggKEbbvsprwqGFLAhioQRNahGUazVDJA5hoDERdwazgCQY0ohhhBqqbVkLRAYISuyGhuxoZljIWp6rLOPBZAe1CB6KCz8DfV3+Gj55fxnt/Q+llC+eLxQ8796WmC3WEx93w/77fU+1yyqy/XJ2Z07q5PNolum1ABByXWappqzG9H4E3UMdPDhETNXETMIIS2XqxTTXInNNDWrteYymT1NG6+1lixVFY5JXbNJLzl8ZWYilQibplksl6hW68V1P+pOpmkqtYamXZ2cdMu1EYuBgEUkQtIqLuFi9Jm1Q1BAxDEEVXEaNnEQFQTMo/rKQ+SUZqcTNENDMrfFRlAAUZ9ehxAMgeYsF4hx5sYSE2PqupVstBKO47DbbsdcLMb1arU+PeXUjFVqrdXAfcERSMGQCAzE61kEJoIY6zTmKoyYYlqs1mZQVE3EFEuZfCZraN6HqIgpGs7DoxvkXvOt9ViMVhMkTpEWq2UtZ2aWd8OD/daqTtMwSG1Xm3a9abrOreyNwNRMxQsLd0eaXWnmWax6+x7bFEJcmEoVBjasKTUpttqSCpYy09TzZDGwLy4kUtU85QroRiwhxaZtOHCRahQoBEaKbbNYLvt93+92F5e7UvMkNbXt7bu3T87PF8sVhWCEHKOWUkudxlGreGIDKAQmJIRZzgWGuFivT87OfP5NiKXk2DRqNoyTW60dYkBMRErNIhWgebplqbmTb4wRAdWgaFWtgSl2HQ/DkMdp29cpT+NYzRar1erkpG1bIMwitSowEjIDGswHgzesetia/KwSsRjbGFMIkTCaMQLVmpkjIVsAIrZqNtMIwSfRhxAHRIcBEO3QUBEgIKkqUghNhzkPOZcpD0Pfj5MZrlar9WadmgaYxbIdDl0A83IDAQi0WhUzJBTVItXNBRfLZQoxMBWxKeeqgOhmdU+3ev/9HLRwQNo3JUAUACQyNAVjBBUBtUjMxKAgihRSt1iCYc7ZqhQAZV4uFufP3L1155l2ucxVtM5tGCgg+SHLaOa6Tt+LnIlqVtEsBE/pNFWTakAAAQBMpNQqx7U0Ex7NRGdDLuIDXgxzBgIBqJT5tE5Mwlmsr2XbDxSYYlp1q9XJenN21naLLK5YQydDz1UFOrjmPM6ZjV4lqyoztW0jElVUTBGF0eTgMQ8AxMRKigRoh24Uqv8aKgo6izHQZiYyzD466HDk/E9z2WeHVtY/cxwduMrS4WQ4cCsPQwAnwxU/na+vr66vr4ehJ6K27QIAxhiZue/7aZqWy9WLL37yl37pl1588UXm4GjN8RExM6dZTFN+8uTJ+++/+73vvXZxccEc/OjKOavqISvox6qK40lvZk7j8FhqRDxyIxAxhDBNk+tN/AchQi3V9d+Ht8CO4ORBKgLHkYeTbI8/7iYDGYkOtvRAbo+FcFTszKvd/D4BGpARASEIiiuljU1ZAUWxFMgCJQcVI8Y2xa6NIfBIwzia63bbJnULVNCp5L4vMrEiZkFGDR5yQcheRXj3re6eD3qIb1YzH06qAoDn7B2ltv5EEFOACOCapTls3SsPj8PxgsM/k7pWT9bCkFFBeNk0Z7du37pzd3Vy3q1WFEKpVfJUi8B8kj5N8DveI19vRBTamcZhcw6IACK72ZMV1WpmiLOydxqnXCogeiw7M6OhGTCHxaJr27aUIlIADm5pAGMVARx3uxGhO9lszs7O795dn55i0wgjiDIHAhSd3ccRlY4WEaaIgIZMLp/AwMHcpcj9o5iRgZm8EKlVwIwRA86+RgRIgEZeMs1CeQSLKXbdQnLxENy2a82kME6Bt+XJQLbanJw9c7s9WQshiOaqAIQMYOT/kZskwGzthICBSImRkZEMsRQxRGCGWatK3oWC+j6sYOTJW3ow7wHESFx1FhvN57+oiKIaJ+i6NoXbMYTrcHlVtECu0LRpffbM7dO7z7Qn6wKm1RWGAmCg3gbOMz0w9b1ITUIITWoMrGoh8BGZIOJysSy5SoWi1YlBalZLVVUwATRAEDOZcgqcmhQ4cApGWMGqKYCwUQypwXa12Uw5i0q1LGYpNud37n7ik5/cnJ4ImqggYalF1H1tKhPFwMWqn7nkSwqAibquI19uxFKlmiBijE2pQsRIIUYrpT4NeHOP8xv7FQE2Kfn2KqoiwoEBVcUgUOyaprZuMGcZl8uT2888c373zurkhANPpYrpPCrhIKKGFBwEsIOjwNxsQ0zcUAgBzUgquKkSReaUrFaqQhjEVKQiEsWbTPMDXOEPgx3qA0JVI4DYxA42hjD1e0Nq5664vfuJZ89v3YqpEZFSKhzMDRAITN3QksAAxEwJLDCDQa4lIHfdqtZcajWgGFOMrKrjMBBSvQG44qHZ9d73uBu7gNMVXEBmImDm02QwBSQMHNGtgix1i1TyQk+Xq9X57dvNYqGIOnM4ZAZRDZFQQWAmK6uj+4hgh4cYUT0FBtCAAcC9p6GAquhMiZzXHM3sNpxfCQceB+Is9oF5jAQcg1oDWqxmbBpX1nar5Wqz6roFILtQxgXc5FC4zna0AF4ekJo5e9Qtz5ECkRWsWoQQFIjRsQqAGWKiWmb1BzjJxlhVTRSPTuJogOpDfIcIFMxhSA+EgmO442HT2O120zS1bfvpT3/6i1/84tnZWZoBxXl8caB0zCeygwIff/zRa6+99vrrP7q6ukak4AeGFxbnZ2e/9Vu/8+u//hsvvvjCer1inqFph1NUIUZwPB7ASin37j3867/+q7/4i//vrbfeUtX1ek038rKPtcjNj+MR5WMLZ5f4n2/QSsHdOarMoeq1FCQKFA+6FnNwxhtHRz4OUrFZBAE3vGlnxIKOt8CBCfCawW2R8DBYwvme+ATKvNqzeRIEqrUohKmUaUpTwSrBwBLDsuWu7ZouptjXnCcjoiZFWrSBow1ZxOooUIVIAlkNHBIFZVYQF03BsdgxgENeuxka8PHtAwAzUdWcASCXPJXi25//yt5XHZOFj4+C1yUppfX6xMCoS+lkGZhW3WK92axWJ8BNESnbXSkFTbUKozuPevcLR0DseCNjSjE2REFqUc3IYihAhN5GQ52RSTMRBdBcas4iZSYBhRAXy8Vquera1ukyAOCu7WYWQ4C2oxPTtsFl10z15OT01u1bi80aQxBCA1DVkjOai7ARtHp3BWZqQGZAx/SDm9ImC27FNR/ICu5WYEA2z1nZw3bU2PsdUzAOjMRulupHiqkZIXJIiwVKakIKOUALuDk9PTk75RgraC0OPAkpqVb0+CXfG1x3oLPEPMZkJFJVDQIFjKxgc36lN4IKaKiAMw3+6fKa3YbZXYZwLkMUzAgADZBEtJKEEFarFQDE1JSqxSQ1zfrstFsuhHEqGUQdmfQYAAMEYpt/6nElIYCJZi/AGBHcU9vQkz9NTaoiYGCuogBGM3aIxIRGCgBMCqCEjFDNUIWJgFkQKmhMYbFeKUKI3O6Tae2Wq9PzZ05v3abUTKUUEUM2EWLSWh3+DoRSTU1oxpWB0Iwx1wIK4Db6oB7QhMypxhhjYNKKB1m3z8LmhtbACIKvu9mM1Ex9CyRiDGo1dalL56vlcnt13TftanWyXG1u3bm93KxDSmqoAhQCBSYip9kYHi6QgI3M3J4KDjGoUoon7DpQ2HTYqtZxHAEzHJvOY/jIAcvEwwS91grHUxBZQKtpIAopLpbrNjXLVam1SqlN257dOm+6Ntc65ZJr8X7W88IJD82wGZqS2TGMi5BUoZQaAgNiFVVxqw4jJjFFITA0eXpheJAQ6uzpiWpmgcxMzNjMxAg5zCsY3DxDECK2IQVV8/D6pm05xTEXURO1ccpmxo4sHypBQX9/3LxYzcRDVYjAAWtEN4KZra7cooicFXs4HWbs2JkciAIGYG47AAhVFEDF1B2SgRGbwNC0hKFdptBw5NS2sWsUuaqUWrw95MODgITz7MnIvb5nI1kHSl3togoqfpPNbcTRWZZ6g1ox40vHU6LUwocA8Jk75o+w+5zYU/Kgb89mrgSyWss05Zzz2dnZl770pV/7tV/7yle+cufOHR8s+AscL3dSs38mhGCm77337p07z8QYfvCDH15f7wMzb7fbaZrOz89/93f/h3/zb/6XzWZDCMQwPwHgwl1AM1EsUw2RiFgVPv2ZF27f/p9PTk7/8A//8O233+77frVaIfKB/TvfmOP+d2x5j/DLcXjjBcFR7cmzDWom8kRvMjOV2cHiqHu5SQX1uuT4+WMdc6yX58twW2m/K4CIKIA33uhjXIdfMSqiMwRVAYiwihXFMeOYIVc0IyKNQSJjE5tl5yOzXIQiQ5uwazk1ygGnSfZoaqECElDVUCBECABud4zzMTxf56ypdTDzIPn2xgbMppxnkzMTf4Ebgrl5uYNXXmbyIWTZa7jYpLsnL4gUEAmMTWqamCiEadJcyvV2W3MOHEwEVDyhyHerY6vhtVrTtBxYRYuMTCFwKJoNlGeAVxWqgRIFr4aJTHV2m44x4bzgLcTQtm3XdQDIzG3b1VpyrkTWtqy1YgirrtOi57fOT89OOaSr6+vdOFDgaZpQEYlSjF1q/J0yIzAxM8J5sSECOSHNM/3QQpgn/SVPuQoJUGA1Q0A2Z9l6Yj0cJHOGiMQUA8/jXJuH0KJKYMAcU2xOlun8lCimLhFxEbFa5zrcvfA894sZVCEwMpFZVVVTBjA1Zo6hEVM1UBFvUQARnJUELjSfQ319USOiHbk3CDNGTjPzBAFLKbElpCBiHCC17ZI5rdbeklMIMUUFHfNYc/XtmGYPQ3Cwx0cwc/czu/soIDmkoyamggBmZIApNCHkyoII7gZNTGIwHz1zrKIBulWGGgX0qR9hIDTEokYMzbJdx8CRu/WiXTQnJ6ep6QQoVx3GMdcqYtM4dN0iRfad0wB4vuM+KJiHDqAWAxOhzbsNghpHF/AmpgDmjsWOfc4FxDz7PERaOPzjHGYEiCEQxT7vGKjpmq5dhJRWyzVzTE2z2mw4cpHqOW/7/Z4HTiku2kWKiZlFGa365EDm/ca3/VnqxMzAAZVqzTFy27XTNDmTFBHpsD/917WFd2i+bwcKMx7O6P8c25a7xl9AzETYdp0hVq0eNy9VzFz55EA5mBkTEjKaGFiVAoZMxIEJyGZqduAARaDWSsxsKkyox2Lsaaj14RSAw1pFr+ldikkzfqFOPHFoDggXy3UgFlFkRGappVaQWqaS81SYKKSA5A2QIRKDwSGax583FUEkJCabw8QIWQ3QFFRNBRR8M4fZyerHemIvp6tamL/GlVYChlUqmCIj8xxCtoCYUkIit/FwZ6LDQB9D4Bgj48Eeey7V5/uPBxhgRhFUEcHDBVUrYcBwoNA41QbJ6yhFMzAiNLBSi1cA84F2oHbSUXXzFI07OC8QIIKzFZn5s5/97G//9m//8i//8ic+8Vz6/9l6tyZbsuM8LC9rrarauy+nzzkDzIwIgMJlBNj0hTRJUUFSVkjhFz/IftGftILhUPiRDhFBUiRNwSIxBECQxBhBAzOYmXPr3pe6rLUyUw+5qnqfIfcD0Kene3ftqlx5+fLLL1Oc56yqXRehcSOaS/SwklJEhJub69vbWzM7Hs+vXv0g+EDBe++99+u//uv/2//+b58+u825ILG6QurjHl3jgCIaEiOCmqbEOdfrm+F3/+XvfPTRTz7//LNSyvF4uLq66vtdKdlBgEvu5KUi55bsXOZOdlFhiwgAIzACBw6+DMI/2Nb12BILaLsD1hmKNb2Ai5fXcA0cdKUxADSLBNLeoI1Sq1XneBbUBepCFcl1sTQVG8aazkufJaohk4akMVggY8BIw/X+yd1dVpmt5lohMvZJRHA/DABwmsvDoSxlIi0BqAMSMFAMHVEwMQTQJafAVIUCl8CC606I9dMFZvNtJtC4fNuH9exqfbWlbs42MAOpGigScIyRE4XQJnpq1dPpPE3TOI6lZM/zupga06xKLb6ldrVIgJIzWED0np+YClnk5pGNgCIjsLibA7BacymLaQ2MojXEaAjI1A99Sn2Kg6pWq2ZAYJF9wlv3VzfIpCKBw5Pbu93Vbp5LBRSxcTyP4wirwGgMseOgptKWMasagIAfNocPXaIJmRapolVFq/mqdKugAlBEBZA4InIuIgpqwci7lUwYQHGlcTWamxEBmBoSAgN1/dWaslRH12uttVSthuS/ywI67Hbk3WX12QsBBGIyACVFQG4T+WSCZqZSq2RvckLb4AMiEAIjEHrjx5eUUHCwghBB0MAosCoakREqIhMzs+tK+ehTLSWXknOWUlXVQCOFPiWMRBBEm2NCAEKmSMyDkZkaAloFMEJjR+GZjIKFGLHkuhQxQ2JkFkWzCK7laEqBXTlVCYtoQOfBEcXIBgBaQcwsdPF6985OS4gh9b0UPZ7H0+k8TblqLbkShTeH+6dP7kQtxjDl4hzouibiCoZM19fXak6mJmJ2ZdaIhMCBElNQRbDgEyk+bG4AtVbmgGRiFQyZMIUQOJhYwAgMYNp3fSlVgGJKV6kr+xJC2g1DTElEdFlOh8PheBjPYwhh2A0EXEQa5IuEQMDks+8NfkfnjQcXYrK1qxUoBGLfP+J0f1ihlVrrxponpBRS02Bq6dAqYIBKAJEDB2IEBSAOAJxFlnkax8lp2mYQQqAUyb0jgAGJkQAooGlB38dh5uvWFACQPTqGgIghzwu4JaLrsunm9t19ubSBuw41CUxEplqd36SoRtYyWjDfNghIPh+ICqa1FFmWnJdlyRkRqprqEr0Zw8EJXlUBXONOUQTBfKqNGZGAtR1eNTPw28Fg0lo+trWWXCbNDEQxaAQDAJPiUKi04YhqAGzs7WyKYTfsva6pUuc5ux/Q6v01lAoEiAYUGAGo9QNMsS27h1YSobdKAZseNiEjEDi2YQDkXVNCtFrVCexoGIhTTI+l8Zog4QUrYAslMfaInHNV1XnO4zgS0TvvvPMrv/Irv/mbv/m1r31FRO/vDznnvh8Cp1Zekjfqm0PKOSNCjOGrX/vKb/zGr/3kJ3/34Yc/CKUURHz33Xd/93f/5XvvvaeqPva19v38yhr5wMnstRoiEAerIqLPnt399m//zp//+Z//zd/8je8Q2ZCD7QNswX4DLezy+V3817d/7FHBk4CQHwlBuCIQsIJssEIgG13xIkG27W3bQiQHiVvfCWElTT4WAWANjAIxNEQjRTaLAqlIypKqBWbkUAIaA5hVlSo1UeyH/urqKlhNu8ECF5VJsqFhZNh1vAxSi2mVnOvCiEjMpkoIAj4OiwEw+MggETyu+jTzjtT68Vc8o/kXR33WfeIBAIhY1ZCaFJgPIjpCAoyIwRRLLS6MP47jNI2OfLiqBBPJSi7WdVEtESERq6gQB6+03V4bWQHcThCJGsKE6DmlMiMziWvYITBzTGkVumj7DnzZCwAgUYwdM1NHIYRuGAB5Xo6udzJNU855g6aqCikhopFJMW3S6G4kjTeDZqiKBFJzfSSueDEOQOSOEhFFTU1qrWCuNvQIY7k16rr+EQAEvTUAWtTZGLZCviqm1aQ2TTNEJKdQY2vYqLoSlTP54LEkdRlNVGYKgUtB8on17QNtC+vMQz62SsLbZtp4iND0nUhEneGhbAaoWotUv0ZQq7VKbTxyMxMWESVixYrMTAze6PCGCxEhKqov4UVnH6nnuU1NrtV7YOAseyBta+MN1gmjCyDRPxZEJGJyYEYRKpqhhS5x4Kw253mc5/M0jePs0BdTENH9fs9EClZEA4IR20q+I3BUyC+0VSzYYAwEfaxSiMjJyBv8Y+71QAGRmhxMiCGIamAW1Vo0hA4xmJk/3cCh6zojyioGkE1zzuN5PB6PPmYSY4prlsYct74AMwOQqjrVyrOBdg1MAMCIXdd1qZvGyayRc1V1a3k0P0nIxEBAtI5fghEBqDo/3VDNQJq+vKiZ1lqqaDMYayJmjs6uk6BVaxUQNRVDA0Lk1ps399Ce4hA628Yc3t6OzOaK/eWfOoTABFZ9BSw4nc2NqRXjKq0kQCyl6srVIMAmhrUS3T1AmbU1ryptKLeIiIqJAlJK0et3P7aIoAZEpKb+9AEeNaRawGo4hf8VQfBJQ1XZbBsAjB7n6tHACLEK+IQFICNWL5LVBTxwPapm/h3ARt5fow/6FTRiR9N/A0SGdk24IjEezXAFLYjIkdlHRstl4Liwatyip7UWScOkVQ0R7+7u3n///efPnyPiw8PhcDjknLs0xdgBGCFxIibCtnpI3M/uroa+H25ub+7u7u7u7pqkdwjhvffedatyFoV3H7yqd/Ogx2s1gG1bGiDC8+fP9/t9zvnq6srHOrYP9lYbYtXL2j7b5qw9E/fv+13DBtQ8OnFsp277Z7MDXUUdtu9sxObmrx8TC6czG0Ob2FkvDLbL8GzG1MggAAYjU2PyxehA4ni2KSN2AVPUhEJoUnPBaZo0ADLvrvYp4HB7SyHkXEspKBJ8AmzX1wwooks1XgCRewK1gmpERiQBldC43SJ6u5Wjb3eUENuMqk9t0LpSDxFVlJIfTPZbDxtFHAGJfCo25zyOo3M8HdryqkJFDU1UHMbZEgsk772iETpxCR0HMvJb7vtRmR9F0t5K7DzVcISdKMYYYgzsHROdl2VeB5WtVmbemMmefCzL4kt+/bVhV6qq1g6lhynvBNtKqVkJKwoGVUXE+9qwQoXkI0AIYKoilYhqrYBKFLY20IaBXYJhtt6ZLxzjzTi9TFddRYeYa80KDtuuKfV24Jucit9NCBxCkAsRETODbSa+0Rsu7rJhY5r7WVtNxC7/aQDLshQVLfXR36xqDZ4qVVMGC564ggKgRyZCZNyCSkNym6wy4Orrfcrv8YxfftFCNBJg25ZIgKSGqN71NCegmZmCmnIMiJgX17QspuqTYtp6K4hgxD4HAY0D4Ed+1eEX/+DcblYjtAOucWn1A2tKt50qn8D0S0ZuFDD07UileKizNqAswG2U31RLreM4nk6n0zQutXCKFAMwGT4S4UNsQDQRh8AAoE23xzXCPN0E/xUEV1KJm5+8dAJ20QrxMeOtJnORHKDWfhC1bbbe7dyPPK3LFqDtFxCnD3mWo7LuN3XJeOaYkqmq1jaBBa35j2u1ZhcP/dIGLiO3ebqpZorM7Jv5yLve7TERemT2kVI0ABDRnPMyL6UWj8Rqaoqs66tFXWsyUGYBKQ4JteWbupo8EZGSYnvuhCgALmrQ4pf37GA9+16C4ErWA/D6zO9SW7cBWGtpKVCTrmq3xZ87rWsxfFoN0Sev2piPx3lClwFBa2i1/yqu/AiClWSDiKqwLfZ6fJ8LF3RpLds/15/RdUJka45Y67Fbqw7cJzQXBgYEVlTXydOuS77shSmsWROmlAIiDsPgu0ZF2kYxj9wrjPYYm80e47e7IWIW0c8+++z169fbx/Ao9Vbwexs22L6+dMeXTThovIdWbm7vtt0dulhHcvnOl8/PLxgAV6loxx+MLn7GVn0ItNX6cb1CM1ZjMzSMBr1CEqOi4IoCgbBL2CdMSGwKZlXnJYNgcxa+zaXWZSl1ycEAgZDQUkAIOBNKCVkg1IhBPTdFFUDHVMQUbdW9uZTicMf99vexzUQ0u2mIBYJqqxJ17WlhU0NHRKi1idY4/SKl5AHV37ZKJSAFq+JUevUp/JV5RMTUKhd3bbWl3XjBlflCzrfdbUBDhMBtNMZAASGXPI7nUmsIITCXUobdsNvtfBBa1p2uwzB45rRpcK2ScOg7bhwV9LFMdMe1BXsTE11hqcuY/ujvLkz0MidZDzdut/yRLrf9yqU1XrrUrfjzqCuqCormLWNfK/Noh9ZgZFer8Tbq4wVcXobfT1k96mP9io+8oeaKmn2giJrpNE2e2TQcpfV0wJOL9ukAObADZrruKAIAB4rWO9BACWvRZDtE7bjZWqHaKrbh+iMEQAA+isXIgQgQ3BxMTZ0SQBRjVNN5HJcl+wR7iCnGoqKCFYERUESQ0RXOxbQxID0NcJYugIqoT0s5YKy6PVVP+6wx2tz1rHmRTxageaG2lbabSTupze95iCGmRMxGiCKbDIDzqf131ZmVAETkt3Hjh/njwwZ0o/m8+0rz8ea4Nzg3G7t0CNtVNRsAePwuEiIDqDfnxTXyDYFsLSQAmUgejR/WjieYqZZasqj6gSXvpREZgjyu6HCEdxWrxoZwXzqrf/hyw3CNLCIS0cuP4zfn4gEhgImo70bnwIDmturjWuuSbQMEU/EsIgY2AwJAppZJNvEKJ7PQ5kIvHcJ2hf41Ia1DvC1DQGwk7AY2GqxzJJGIzTZ6h5kBInMITCsTAFa0A8Fc+9kBHr9zK18WVzV0xTa9SGiNVoF2eb2Ijsa2SAf2llW87YXeApBUdZ3BQTQMHIi4lHw8nj7++ONPPvnFt771jadP77quy4sTGzb6gTPNjBk9aphZjGkcz3//93//ySefHA6H4EXh4XD43ve+941vfPPdd7/sII1HosvrcM8pAtYWt4svT3r14uVf/uVffP75597q6/vez9tmVZvP3Z7WVmJtvvLyB5rDWku+Wt1f+5HxEPnW69ImNhdGhIi83dnmvgHQFF2e5SIwmKjx4zVAA6XN1LhaUEtoQ7GUlYuQKCFSjNRF7KNFQIQOlBWk6phHU62GFghyVkJVRLW1Z4lCCIFj4K6oFMNZDCtjRWBjNzStprVWpvWat5h0Ea23/wStchVbl3KHEFLfm9kyl9aeaGI/ZAZd9ENoOc+tCjQjwhiDWe9b3DYTFAMxFR8F9A0NZMiGbOiTLE6HqlW0WnpSejEAACAASURBVPWRa1xTcvXGyuVHEBGXEUHQJo0DKiBqgmQKeh5PZrbb7/phuL65vr6+IcZa6rIsy7K4uboj9hrLvzZTRRETpNaPFJRSxUfIdBXrMTFQDUxEYVu6AxcStm/f1c0aHyG37URs5+IL/v3yHfxZIKI3HNcEq2UxjUax5WGiW5XqU/h+D0XF1/yAql20Y6wp/DScydSAV/wW2+PGtkcQiRgBTMFlNRxTdHBryxIsBJFW5JmZmIpZcGhpzebx7U6t/39TDnFn+ZaHBlgrEI+pPrAQSoVABBiJiQlp3TZcxGkxiMgUYohd1z2c7o+ns1SpVZhiCDQMg6mV7MWDSa0IgL40HUwNmMglK/zTlVKyKohA04qQkmvg4vettaxMtwdnRugjZGjmquaXz91AVMwMAdzL9X3v6W8Ioaq4xo8R9LsBAHLOy7IYgN/bBtiEAIAhhq7riclUnY0kRTzuNFtyMqeZmpWV58TM/ow2G7u01UdSxRp1zLxAYVUDwC3oOpUPEb2sVrXosJ8HEIP2wcX5gy7qxiuqrd7ZbPj1Fo9X1c4vOPxLd72VLq6eCYhA5D3qy1iwpWItaW4VLxJR5Ji65Pdz7RF69tyaFO5kInMIjEiqaio+uqQmjlswGhpvy0W2y9sAoe1qN9kGtw0DH2UmU6NG2PNPTa3csmieUaAiaoyJOYBKzrmKY4QCvu7UE4iWiSD42BK87YvW/qKhT1CjWdvEuf4MmfGWbSD+IzHXzWYz4y3+EjEit+G2kALFYvL61f33//KvvvJLX9vvrt5//8u7YRc41XV9BBGRa7UBIgIzesiY5+mHP/zhn/ynP/vRj/465xyIaL/fj+P4x3/8x7/0S1/5N//mXz9//jTntlbEq6D1UG0uCBCRKara/evDn/zJn/7+7/++qj579syNXi860Jvpw/oWcDG1seUBmy++cFtv4RybI3s05Me0q6mXXzwPB4js8hpaFfg48IFqhg70XTRoqNH+DVSkFKvrhvQsOAtmCYoBMTDjSjFGdLUXkFrrvIhIUcAY9unWFNgAgR1XFRElM6IUIlStapBFsBIJkEDwFcDuy76Yb12e0i9YvxkGDn7t6kmJN4xXAddATmsiNUEGMJuXZZ6nnItbtZ/YruseLU9NTLDZLAiYVjUxNGAiNJCWKpH/AgCKOZmALxGFyyPqzwsJnQS+bYNj4mKFiAGxVqlaB9rf3N3u9nsAy3MZp3EcRw/Pbj8bYa29OZNWAQBQKJJNRKrUtkzUEAiZkQkQ9KLvpo5BriCktc7lP+IKwat5EXLiw9uI9HZiN3ujRnxGH9XZwBUHeE3FSFGhaK0ZAJEUQmDn2G5LhQ2gFqm5SBH1iYa33fTjXwcwhDYsAADW2C3bI/AWmkqTrAYAj3De+29eZsV+tqkrMxMVChTA9YwFiPuuB4SVlvt4Eu0fdHP94Xocdb/W0B2f3QBkphBdN4QQsZRSoCARE0NAkCqzLUvRugoeMjFT4EiAOUb/E6ExPzlEJMFSSy41QTQNCLGhvI2E5/pXNdei57GUVv/oF8OhJ4vorTMFbVxa5w15MuKSHwCp63auoM+spvM8H49HTyBSSl5ME7uGCW74ECLudr3TqwFBQNFFtddepN8lXBM1D65y4am22+4HzX+glBJTAHRQ0YdHYHWbgOhiuE3BqrnxDQJJDedA9OOpKgAAxMgYfFrBK/wqPu7SDk6rbBpUhs0YLwx1M5LNbu2ij972p6FgG1x8zM5FXDRE4AKBFl1FbLGFNHO5H1MRIFLAtkthVaNTNPDMouEDK9nHcFX7fvt1eQ3tTzV8vNnt+nn9drm2lQGgCphoCMFnj7wYZiYmk2oxRHRBTzXPOczBihXXs1brtNySGFWsoZzUKH/+hy6vWX1bMpAZuI3GGB/1Qv7BJ/rCCd0+CACEGHY0TNP00Ucf/eEf/mEI4Vd/9dd2uwFWXLa5C5ANpo2REfF8Pn/yycd/9mf/z/e+9/9++ulnfT80/QAi+uSTT/7Df/g/zfR3fue333vvfURQrVurDgBVvafa3Ncyl1evXv3BH3z33//7/+Pzzz93Ye/dbrcsiyvJbK724gNgCAyAl0nAZnl4wXpzu98+9ttmidCGLmHNZB/TAnfi7ilcKcsuUnu/IKRHWzczqbL9DKzVHjUVM5FcyOmbRXEpVI0QPVYgOM3KA7jFkJSqEqlKZAbmutR1WpAbvTnxYpUAQDgigYiaCSuruSAoBCM/8PgooHp5RC+zjcu0yVRCJECxVh0WAARmU9f+Io4RkYIR6DLnZRzP87xgi7Li/VRb9wUjou+mAAUCC0SkoUoppZKacaiuMRsEkAER1KRKXrLUGmIMIYZwYf3eB117tE23xZeoiYBBjMnJEwIWutin3e2TJ9dX113XaZFpnlyyfXvQWxnR0NQmA6eMJCZlnqZxKksGgJiSqRkipxSxa1wz3Vrd5jU9IkJLFHDrnHhav+VDogqlONaxiSldGvmKgraw5Lma/1d2PeBGfV31ewmkqN+BUrW7viZEb+AAgCvpmKqUqq5YBY/h5C2vjYi+YcH/+zoxfelWxMTEGrghsgV7d+64Ou5wkbZi6ysrGlIgmZdpGhEpXFNK0afJvQninLW3/upWTiFyaDV6c0aOaxMaoRFgIMYmfNd1nQcr5kBIVWpdllIWVSfACiD2XR85hOtrEXGb6foUY1QVZoyR62Epy2JSfa2LK56CGagJqJmVWkVkmfIWNmgV2VufqccPcqUmHxBDQmRGQkUwtCqSayGm2CUOXFWWvIjIPM/+Vi5MjIgcgiM6uCZQgThyQMBSspTqf0mBVM2NnJpQwFoVNs8ZHlPzjbwJ4BPmm4SxWAJVDBGdB9Oa/eb0GAMEc21xVKvbaXKL0mQBCJ1iVYuKEFOf+nEaS1mw6xhYvfHfRBYee4rNk9hjfrZ5p0uvtVmvOkWACABqraCu+xfXz2WOJvnBWzG+ZpPbF9Z0oQxMPJlBNFWnh5CWmmtWU2SOu0GlutQyqAFtE2xbWGj/i2s+sZpqs+uGNjqrB9pgt7XNGkyIolZL9TUVMcam5atmaA6lIAGjM4u1LYrxg+5kV3Ngpkk1AvjSYxSxtcXkF9kO/Xbx6xnHtZghz7cuP84/Go4BQFe5B//z3nBAxGmaPvzww/P5/NOf/vTZs2fObzMzTyxEig8nq2rf90T4i1988vOf//xnP/vZ69evu64jCsGt//r62sz+7u9+8nu/93sfffTRt7/97d2ud/TDhU4BHEVUM02xU9XPPvv8xz/+8YcffvjixYt33nnHU6RtKMPMmNn9r5uC15c51xDC9fXNzc01cyil5Ly0Ms6asXq0mKbJDJmJOQxD76G8VvEdqtyEeQwRSykPDw8i0vf91dX1pg3i13M+z9M0ApgjOFWz18poBsSPjXSAyCGFiC1FRCBqjC3RoMZqrOga1OiF9TRbRSFgRAJbqLrkSqCkBAawTLNX5wRQDRkJEAspmLHj3gYohlWn01gQuU+RmRBRjA3KUuZl3uAfv8ObF/DHvBXxXtK47CIxDkNvBjmXoqIMKfV9n2qp5/OUp5OKqNpmf5eH/9HyEANSiAEgnM/H6XTMOWuRGUHmq6vra2YipSxZFZCpVjXAqibLogApRdM2qmgEYOhNb+bgQ9fo8/GMu13Xd0G0f/X65TyNIfDdk9svPX8eQnj56tV8Gl2n1eXbZZ1coPW1Yg+KZkyW5/zw8s2bN6+01hDSMHRENOxvIpCJsg84AzGRqNZa17SSOJCL7hgYkrUVr0tuZIVtuMAMAJiolOJn3POGEFisSdkAALnGWqvK3OVRI1aBmUitxUTzNB+Op7qUmKKWfH1z2+92WcXJ6jnnkkttXCpojP3Va2/hHxEDkayd6VqriFJs2x19cYyouCNclgWRvP/x2JhBxFVFjZhDjJvvDoRgUvJyOty/ePHKzJ7cna92+2F/PewGURVTNc3ONjDQKiXneRxrrZ6gu9oBqDFSYEZAAlQDjpy6BEhVlYliSk5kaKL7Whcp53GUsjCR418EpFU1tgaTqjITKJRlTikN/a4sk9ZSlul8KEc+7IddPwx96ilwjDGXvJX+Hj6dCeF0hxhji+srMOs76pCQDH2xXuCgLFpqyaXMy/X19dWwSyktOZ8Ox3Eau65zsTBVXwoAyHQ9XHsSBqqmlmLc9cPheH84H8bTWGphCqnr+t3gaZhIrSKp62hd0ekrC3yTsx9/zyc825BVD7CULCIpdbVWNEgpMTqSZ4YkWlSFkIBClhwCBh/PAaymBJAwMlIpRUWQKDITkqmBWV7ydB7VLA5913f+Rz0U0ZrgEjZpyM2mLuvmDav2X3H2yXkcibCLXcu/iUopUgv5jkbXoCSCtYZEopjSChIgAJTifs9cXsy3jZRax+NxPJ2dD1tNbp8/QyZFQ+YUEqjPfj727rZ86DIMhxCZGVYdiMYCaV1Mh8ldismQoqm5VKMXOSEwgAH64lLnFhioqVZvZAQ/WrUu8zxNU/MnRO7oGuLRwq5Ym6YyM1iLZzVVbxHQKqDpDF9mzjlvykaXaaiqAyorbG9QSvFxws2pegfj4eHhBz/4wccff7zf7x9LxPasPSPQFQWAcZxyXmqVEDilPmw1PRFdX18j4scff/zixYs/+qM/SimYac4l51KrA5FuHAbGiOgziltScsmC2d7zMqVag736A9vtrlKK8zxfYra24vClFGY3e+da7xHBrGkDhBBCiC0NRPTiQFX3+/2TJ3fu5UMIpZRSKuKhVt8zBBsJaIuiW0Bdy5eNldZIO0BEXrIYIqEqVLBsWmtBBatmpoJY0dwpc0iBgo9yuTSFmVXVaq7igyUYmsWqaGo++4dASARY1RiIkAISmLkEwmXVcnEbH9uQfjBEBAlVNOdlmsbU9cxsqjFyv9td7fYGOC7zeDpN5wN4R5I2rG/dDnCxzKWduCqlzuPD6XQ4SKmoVkop41RLHna7/uoKiAwJmnAEIgbA6iw9r563QpYDcwhI4DpFLpzjHtPMlrKYydV+1w/DzfU1AJyOh/tXD/O0+CTtNhZ46Qi2KMsEUOH8cDzcvzkdHuo8y1IyTHWOHGKKHfUDETGxNugP0QceXHazOUVz/hASphSJUKpIFf+jGylHarW1Z+lRyic81GQzpLZzyNSrMk8sWh/VjBFyrdPpPJ7Op8M5z0tglqkgckwphqC+GW3VGL4ops098sYZMm/btTKm7R8OTcLEz1ows7xkr73NTLVibTbPZuBv5bnFOobdHhkhmB7fvHn16tXpdB5Po6qd7h+6Yfjyl99/+uxpSBG4+X1V1SKlFKmNFuIld2AO1JBRFnZehprmXAIvXT/4BnlD8G2shpDnaZmXcZ7G0xnB+r53yhbHYNqqF1EhRA4svn8Gwepyerh//eLF6XjMuQDQeRi6vnvy5Fm/23EM4sNOqmZWcvEyyXO9Wqv7ot1u5553q5EIGBGlSi01xRQ4ZMymmlLqu56IfAvgPM+1VAcIXaAxhCgEtroQcAIDoYkt83S4f3M4HM6n0zzPYtgP/c3NzfXNbRoGH2F1b+RGLutq0K3359/cJsM9+QbAWms/7MDQmbmwzruxi0WIigmgAJgCagD3iK1Twqyl8e4Txy4mFZnnaTmfy3me8ryUzOc07He7YaDAbnu4jWWpmNrGU+ZVms+D2UYuoZVnbmDmc08xeFNZqzAAhYAApRY0JUCfTvdUBhG7GD2+IjrHRZ0Ig9S0H6QsZZyW4zmPE5iKylwKBY5Dj5G6ridHIcAMUdeGu62bEPxrz5m2Af4QQvspH4ZCtLajGENAl/6rUrwmyXlhrqJhPVjeazNTE3W2LyIakbO4VXysolY182UffdfFGDngqjnQoCA/5O4JRUTNeN1gbmZq6rLLm81sNfYlJPNYRoLZRZetzQcReYLS9/2yLJ9++qmZuYrENo5HSEgI2PafQ6MVh22ZqJkFL4y8Iry6unJH//r1a0Tf2l63hquqxpiYQs4NRXTNxJRSKdXPwBfartsZ2F7+HV/yjAi+jHTLZ7efd1gicEJEBPYBmFrFTKAtMq7W5M8e82J3ENAGz0IIySVUmUL1xUqtHfVWlebpzuPkgKek3t+ATdDClEAjlVIB1BCCD3aJuUKloJkzGoMKqig6lw5gtapV37qKIAASUETjUAk1hNQNNYSqCqIBKRCTwePg3NuDFVukaZer7c4CoKnmnE+nUwhhN+y6bnAhzjxPh9PpcH8/judSsoEiIgKGEFKXAkZCslUbezNBMiilnI7H08OhzgsThUAqWPL8cG/jON6o9rsdhsTIhFylIrrWzJb/OpoDHNj1NYhJBJEYqW0WeHh4aMCjWORAgOPpdHh4mKapZq1FS1l8We5ut/P62w+DNY4OIJpIPR2Ob15+dnx4ILMuRB641DqeRwpp2c9XN5BiRA5Z6iUCZGv3jThuh9CZjzEm5qIrWR03xHj11FsSlmu2YltThZkBkBE3H7SdZSIiQFGr0zQdTmXJvqmzlno6PhABx3BzewuBqqi5/ioAbztuVqDCd7YhoDrFfVO0BBcRATA1cEFbKLmYaS5ZPViC5SwOKIb15S0B9E+3rrlX0zKeX3z26We/+AyAUkoIOh+n4/1BSgG0u6dP09BrE6ykWueNY7jdTGaOKfryIE8JDazWBqcah5QgUCDCFAMA5JxrWZZpXOazipjq2dn0gIyMEVGx1gpiSGCAKUREE5Xjw/nh1av7Vy+nOTMgIr4ZJ1VLHJkReQ8Aoirqa+yrk4jFijvWeZ6vrq66rvNa06mCSKRSpVb3vmbmEZoQU9+nFEsp92/enM9nVfX7mboucgqRDSCYEaJ6bqpGSJG45PLm/v7w6vUyT3lelmma5nk6pWVeEPFpirHrXHVja3ltmSUAbIHEQ7Vj1+M4ep4RQxeQldFApVZGjMzauOjVJfORCJlKbeMwFFyh2UeTxEyYKQZmhjwthzdvTscTSAVQXZb5fMrTWe5u91dXHBIi4aqCsDabG2UA2tJs2C7eTcLrSCLMZQox9n0fY3Chv5oXUwvRVxuomQEBuN6GFytEuq6IMlPHb1rUcE6J1HmexsMxTzMbmELNYiLTaQSmyL1nWj6euU6JvIWpXN5e/0MxpRCiagFoVAACVPDTbsyRyESKiCuMaRtpN59ddXIViIj/AKzDU6a25FyXrFUCMcSYS1GR6XyWWne7XU9E5HpGDGZI4FWAt1yr1FIKmLUtFtXIlDkytY10lzXYVmZchmNcBXwdfFgjLGy0MCIOIa7HuZUouBa0Dbohc+EA/w1mNoNxHAOsjAxvfHi2vq6alA1kc96YVC2lCb25fweADY3fkonL/GhzMWs4bH1xd0Cu9hjW/SC08geXJYtACsaBci7jpLVWRAqBVGVDR9yJb0rmy7JsHN0YY4xdrfV0Ok3T5II/COxqJBvlvvlEe3T/fo5dhMVNQAmVsDJmwhCimhCzDzVGATYjhIKNT20hqM9kAa7lpnf5EZDANDSYHBRADCphZrIuAQcgBDVQY0QkihAz17qC/5dmAWtT06FjMjcjNGiL1D31jjGowsP96fDwZhynnHMtBahpsgCAI72t1/4FWqjj6rLM07wsmRGHPg2pn8I8LVNVzTnneYld13UUY7TiLVEvgL39uQ70mpJRjMGROpMKYKZScnGpK1y57tM01VprLlWdBxB9T6auGgO0LljXVT3CS6KyTG/uX55Op7wsQ4pDn3apE5Hj8VhFpvG85DkNg0s7bfbZ6mxTUABIG2sHVsw2hCC1jQ7g2tRLMRKRAy2wbmdQU2dmXaTIsPnWLTsEREKazlM+T3XJkfhmvzPFw/F0mObpPJ4eDiGlbtc7pRa2QSdpyhsO2jvW6BQ6r4kBQFViDLnUknNg7rqemarUcRpdhyyrbDfNZ3cvk3I/VLbJzxCZ2HQax8MJi+z2gxcxFnWep+PDoX4pExIzZ5Vcq5lVlbxkh2G9p7Cpy4cQ/I75Qyy1AlNeyowTg6UhIFhelmWZ5/Gcy1KLaFms1CpkqL70rovJ9cpMFQEDBUJNiZloHMfz8Xh4/ZrE7vZXKaZxmg4Px7nk8Xzud0Pa7dzFu4oZMftlOGTV911K6fr6OqWESMwBAEWEmEupy7LsfLdRrYEDE/VdH1Ostc7TNJ7POWepdVmWxxqXIjpwZeAphYEyYBdjnueHN/fTaUSpCdk4LjpN46iiV8NwfXWVul6bcRqHcBkeNgMbhmG32/GjOlNDp7quQyKooqpkIAYQfLpEQRsVpqqoFG82AEAkVGg7nlQqIARmZjTRWkvOi+Q5GITAHYdaSl3yMk0pdkzRSNVoK3ZhpYM4xOJfbzX0Zg9+fk2VAAgxcghEkss0TaUsywSAQIEaBzzFMc+1iKp5X4CIAMTPXQsFjioDIEItNS+zivQhAapidaE/RAwxUGRjVFHyFThv09e8yvcesX/tumRM7Kr0688TA9Yqy1IMZq9DmD2GltYHgGqALuwoqrVmERFRZowxABiYrsxV8fkYZ1a7RTa+MzoYgASEhGufzkS0lqq1bsPMLkzDxN6juQiRj4XiFkFaQGkltjcZGoVZRLuOPaz3fe8q3dM0m+kqbbUJcBliq6YaA8zMXNDXrIF+3qfZjr2ZbTdXm8w7qhhFCCG2Xiw1+szWV96e0GWSsTUXLj/qY+q6uW95hJHdHS/LwhT76OR/raYcqOs6WJec+Yptf4f9fo8rnaesr64zqVKyg0Zq1lhcl9mP+a4H2EaWXD+gDSAi+oivVQT0faKBkFMlYuIEQIJJV4YpowJUFWOOw65LKS9VVcwXBmBjAwUwJFPSglDAMlhW0ETqzTBCAROzSBhjClqda7bV6NsRxZWpysy+WREQPIUXETTN07hM5xDi+XR6ePMGAPphCETmvDlfB+1TEwBI6CLN9KgmYlatqlSftiAyRGUfejJibBLrALHrYkq5TE2vkwlAG5lMCyKotu5HjLHrUllmkSxqnKmWRaWEwON5nKZpGsd5muZ5UbBnd8+Q4wZK+cK9rctG68SpyyXlnFVUTSlQ6rrUdQAgUgA0FxmXeZrmtCtdikC45OLP3tOU1Uq3u9tYaUQQQihUtsxVRJhpnudlnkutu2Ho+r6x1hFFBdfNCBu00PjCq72RN2JE2CAhxMABeC7zcj5KqYWWeZykVkfPvVuPG4dGhNbOOti6H9VsE4/wHnAtCwLE1KnV+4ejtyxvb2+f3t11KYpqLhnFGZ2PJLsv1AMtXCGCKIkFwhQoIM0iy3Se5zGmCCuCom1gQUTUly35BW+n22udrSuPm3qHaC2FcGdaX715tUxzqYvWGkNwNHgqUk0UcH1PJySqQaNksjNkiUxFcs7zkpivhwGApnpmk0Q4TdMyL32uvk/bHY8KGAARpRS7Pt3ePIkhqeqyLADo6UuTmogBqsync+IwpA6CTufxcDjAymiZz6NXDmgwjSNQy1oYAPhiGUTjkKlWkXnRJRNYDIwcRuJlnhdtdFRQg1Vl2MnY1lYcQN/3KSWXcvHszWtrp1uZmYExEcSIBrLk4+mU52W3G/r90Hd9CDTO1Tfjoa9s8MetVq0WKSCWQkDEWsVKlpIJoONAqlIrmkZkIR+8UASxJvO2VbGtqJML1Zmu6/xmIqLPAJuZo2ig0nJEREBgxCx2PNzPy3zz5ObJ3R0hFah+D3Cd7Kn18YgRhTXsKAAqgJoWrabFlEzV1z0RIzICg5G5ID0A6Wq9esHx9+6Se5Wu63a7HblAJzJRda6D0/+RoNTlfD6LyG646ocUYwCsalVNUVEUWAMQ+PZ1TyAQG6FBAUKgutgs1UOw1AygMVJIhNQWVfkcKbXdh2pmRZdSRFU5xt1+33eDGYJNZpZS15acXQjnwEWvZ6vH7LKQXvmqnqc69OXqQfM8exz0SvXyd9s4IWxCmo6qIKKCQfgHP21bKrAFezMxI1s33fkFOQrt//pCI8O/uAyE2/dhbeq7Mszmg7YPuX0n54zAPpQFKJg3V4W2TnX7iFwIYbfbrfkMOkcaAFLqxfcuZ3d2aL6o1x4ry6ZPcvkCg0bmRWy2jEIGhEAEXcTECEZAQY0rBAECMAJgNgBVsEDYxzAMYYdaaq3F2lJKMxNSM7TKWgIYWlEVtWImaIrkKxgFVRF8/5qtMKBn6CJiFyW1VwDNryGpGrP5MT6dzofjYT/sYuCuC/M0T+dTCByHHVEg5rXV0x4/IjpXaDtmIhWYQ+pSP5tqlTrNUnJWMwpExMBYTMZl7gxS6u/unviZXJZ5msZpGosoAbpwvzdl+r5b5mhZainV2XPTRMSn0zGEeL2/6kIq+eXp/r7jCEBAHvjfYpls1rJ2iEzBgFnRJxM1l3yep3EcEZF964/jHEhGqqDsZQ7SVoX4dDg25Kbl87y6Sz8LtdZlYSf0vPPOO9fXNyJ15QlhzRUA1xx1hX8vr9vNCSyFJDFaiKY6nk7TNNVcaikcWwdaVLLIPC+gysRCj4taYkrumtuZNVhLD0TEUrKZptQB2MPD4f7+HtclwL7oh5G7rqtzNWeErRSYy3wC26STgVkMYej6Mk1aRKE4r5IRhq6LMYpqWXeilJzLMptZ33cxxnmesWm1tV775hnMrE+dilapaCZLHsfpeP/w5uULDphCFGYstUuRwWhj/G9EOzMkco01b7q5VFOKcd/3zh6tc57PZwK+3e+vd1c+DlpAxUykgerLNDnG8M4773z5S++GEH/+85/DKmK7uQgCFNV5BS3GcXz58uWrV69zzsPQD8PODyYiiioYSKl5Wdb8D8Eax5aRfAgnEO+H3Xz/UPIsGaua1YpqyBiIEscQgiAgQK5VSsmljNM0zzMz39zcXF9f930/juOrV6/89jaVLRfVBUwhFSgVagWQUs6nYymzmhABMoMqgqXIJo/TCG0bLmBKIXJAg1qK5JxrraWQGlapOaspIASKXYiRAyGBE3JXLkUpdVlm/8F9tQAAIABJREFU91rd+kJEH5ZxD+Cog4/StsUsplLFRLsUGQ10TwSmsswjhZAlazXHkABBVme4VaoedA20DYYEQMRS6pgFzaqpMcSYMLIPv9naXdIqtYqjpG6r+/3eqyPPijbr9aSQ1u6n1+dM1HUp5yXnPE5H0a7rOmZaltlarapgQsxgoM7pbmlQ65HP07zMc56XItU5Fl3XsW89iTGEgGv5bmAi6rmj9xa8Ndn3PRHXUqGttk4+WXMx8+JXsnlO3ByHtSmFx7yQVg7BNh++FUhbS+4SNdiC++rxwB+qgTWW0NYM21pZnmaTL3VXBARqUI+uuOujHMVl7rO5p8u/ahcQsV+tl4C1lqa6GoJ3YUupOS85VwQw02WpANkB2sBUSpnnUqvknM30EgkUESIMIRJR16WVbNduh4itevBvUX9tK/ighQHPEX2kClddAzNTIAlUI2EiVFvUCHz0lBhACYGogioRp6SBhbAWqVpFKhgasqGqSlADhkwogSpZNcxFi/qcoTH4Zg8SU+/Lbc3dNautxOz3M2ycqLU95AVuTFzn5fXLzyTnb3/nO//8N/6n2+urH/zVX/3whz84Hpa7L73LAM7mdr2Oloav89n+VkRUqyBRt+vUdss85TxbllILAMQQYpdClwzhdD6XIu9/6cnz589iTG/evC655Jxd2tZzW7fOEGJKXYixlEUBaq3jNEmt4+HY9/23vvXN//6//e9S133/+x/+6Z/+p09/8Yv3Qnf75K61sdbW1dupcEvnmbkb+r3ezOfzXPLysNQ851xUjGIY9sNwNVBkFSm1aFVq5MetWN/Ojo+bNtVzXbMNNSvLgmbjPDLxN7/+9W9/5zsA8Ld/+7cPb14jUhq6EIIzCi9zie3orgEbwGy/G3SeZprm8zSdz9O8EAdmHvp+v98TUc3FGbDRM2l4lK2MITiG1ygVmwNpo2swDL3W+uLFy8PDQ63yjW98/YNvfUtVf/rTn376i89DCH23a9px6uM5DfoAM1rdqEEjp3ntUroh13JcDqVUFR263fN3nt/e3ATiIgIApdTT+VTmuev6q/0VIp1OR6/4NzeEaxnlJQ6CpRBQ5NXnL2otAfGffvWr11e7mvOrVy/Oh4caGIgUEkZsXNjG1Fu1SsEYwVrHEYdhuL66efn559M4Sam5LH2/2+/3V1e7oe9DDFUq+cpN5ul0HI9HIPryu+9+45vf3A/7jz/+xevXb7oudX2nol63GZhWUTUkW5b54eHBQJ8+vfsn/+S94/H46uVLUZ/aqX5JCFhKoWXx/C+wd8fRDNowARgF3u33xxSn8Twvk5rlnJFw6IehH4b9sNvtsooPLNUlj+PYyuLd7tmzZ1dXV+fzeZqmLQfy8tp7YloVCGopUuX25ubZ3ZMyTa/v3yx5ebh/nfqOU2TAWheCgMhqYtUAgQJ3IcYQI7OpAijQDg1zP0/nKY+jqmIKMTJFjqENpBCHmBIheh9zWZZ5Xlz2++bm5vb2VlWPx6PT8rwIxpV5g9RmhEAll8poKcV/+rWv3j65mZfpJx999PEvPlYzikEdQ0IEsVqrXYydb/m6y6RyDE+ePs3jUsYpzyUgcgzUhTh0MSVgWlWWgYhQLOfpdDqVUoZhuLq6urm5GYbBUw0PSetZJtW6ljFOEoWY4vXN/ubm+ng8Pjw85LwwU9d1IryWyiZSVMXMFIS8v9j2qYCpxhglxlCqrNyXYbczX3gYIhHRmgeIWhEppdZaahVETNG7NKlmdUWitecY1coalN1DboJO1g6ST82unmkLzRukAW0JH3+hn2CPUw7eCkFm8g6yfyaAlhIEZvKSw7ds+685GoHbeJ05GUxCcM4iiyiAeL7PLv9C5FmeEyZWPUe6LFPWnIPMcH2HMk1zSinGRNQS2xCdJEIi9XQ6iKSYEqAhYs5F1bkkbVlJraq6+M4tl7T3WR1vyNUqajVG7rpgRjkvgObyXy62AQQONRoZMQKh+pp0AFRAEVQ1dMVsQgCqvm/CVeMJkHJz6bTNPEuR0aY8Z/HdM85gNgQCM51VVbEq1MqFUVBRCVUJoZoZrp2ILVD40/O2lsPXXrEBqFlMqeu6XDICApjWYoxQqCN4frVbTvbLz5/+1q985zsf/LOvPn9y//nP/vP3PuxSur57GtOwlEIhYYhAZMgbfAYAIiK+65UUI1NKIEWFq6oQUwgYE4fEHAKHmvMyT7VOqmWZy+FwP01nqaXW4mkvAoBazYUD9d0QkHZdV3I+nc+1ZpTKKl+++cqv/7Ov/+b/8J2nd0/fveo//9n/95//y1+8efk5Ml9fX+/iYAaOqdrKhfZwyhy7jphDSqEf+qkfH968Pt7fi1hIPQHurq7SsPcNmkVkHqd5HJm467quS1vsB0CXLiBEoqgKWqEbdkWgnEckMMnH+zeI9s2vf/1f/9avffDBt37605/+7X95dfjF/88cbp4+xV0fUkemgRMze41jxOYpOkATswXUGHh/haWUXEoMEAgp7FN38/Ru9+SGAmepVpXAailFzMBCjB71PXFpIJO2zNhdD1Hs+wgqU5nvX76oy/LBB9/6d//2f/3V//FXP/roo9ef/Ozjl5+a4d3z59c3zyxEIuQYA/E6FPKYCdUqqoupYkrXz59biJ+9/PwwjojA+2F3c3vzzjtxtwOmMk/TPC3zWGoR1aqFCFMXlxIBbRiGEIkCaFYiCNFHTQF9La3W8TgeXr/cDd0H3/7gf/lX//NXfun9j3/+8Xe/+90f//iv5/Gc+qFL3axGBDGEwIRghOuUjVkRM2BkBApGIex28eZqvL/PBN3tk/31Vdzv0/W1BF6sacapiuR6PB7ytFxfX13t9l2I5/Pp5YvPTGuKu8hUTFybCAyIGdRU9fXrlyHYd/6b7/yLf/HPf/mXv/rq5cv/+Pv/9/c//LBU2e9uY4ilynkqW3LmzQszi4iuNVcBoRQD6K+vds+ezgjn17osC+6GJ9dX17dPh5tbIM5S3f0v03w+n6ZpmucZALquSylN0/TmzZvz+bwVY94ANbMQaL/f1Vys1sT0/rOnH3zzm19659mPf/zXf/H9v/jZz34OMt+mJ33Hh3NFoiqFkd1jo0KMMfodJuSugwTIBExS82QFzCBwTH3oE3eRCEMIxAGt9elqqTXnUnKtdRiGYRhubm7O57Nf3tXV1dXV1WPRDwAmIXCfOmLKS1lyiTf89Q++8Vu/+Ruq+t0/+I+f/l+ffPrJJ7dPnjx/712MndSal0VraTkNrYCle2MkYiSiwPHu2TNQOz8cEaAfeuxS6DsMEZCYAgNVLedlnE5zXqpLxhGRD14CgA9/7vf7vu9b8awukfkoLSIqgcO7X3737sndi5ef/+hHP/rZz98sy/zk9vbq5nro+/P5PM+L14YhBHKBNHQpFAQD4BBC7JCMI8wBYkEAd1NEiOTiaaSitUKVmstSs4rWvAgApNCBwniaaxVV6/u+6zrHJsuyts6VGwe5tVPR1L8ABPJ9RBcOUB1VMtN5npkJMUGTdTREc7FRj7NeldUqInWdj+VWUoGqQFNIxJXTsQIJlZAJWZu0uqk4nchqFeYgIl3XpdT3fVfrYgbMb3VVLlGBFUtpKKZD0K5p0HW9GabEw9C5Psxul4ZhANDD4Xw6nUquQBAiEwZPkWKMzthHpK6LqlZKJsIYY/HtzyJ+0IZhIKpEdHV91XVdrXI+Hw+HeydoxBhpVcoyNxn+r229+Zckx3EmaGbuHkdedfQNNHERTQgnD5FLgqcOUiIl7eyMZv9Prnb2UaJEzo4ogSCbuAECINAAgQb6qq47KzMjwt3N5gdz90xAyveAV91IREV4uNv52fcRkpKxMSMwB44q/UyISIAYmUDIxxhiBOiNYcBEPG9IAwiFloky0hAiCgHl1QAkXAFrShxCVgMzQsxAiBKFAiXHoXWljMI1Rov5WhoSBS8xu8q13Ho/+Lb1w8DR98vgYnjwwSsP/skTvFpeuXg+nhzRsPj6M08c3v2uXy3vHJ3GboltrY0hFhQkAQWA6hQli/AQIhl0zjJHUzknDRhDIRBR0zRkSKmArbUuxsVicefOLUSoXOWHTmcTDJEkhWdQnl0EtJbGbeu9WQ7DolueLbrayLNf/OIPvv7Vb3zpsbab83F4+Pzs+9/4siV+56Pbe3v36rra3toGIT02pSSGiERgjMttNddwqFzDgH1kP/i6qdumnc5mo9HIucpawxw5Dt1qxcwxjoyhPK0gHAQYOZMMS8RITK6qRm21qk8OTxcnR5WBLz/95A++8+3nnnqSw9Ad3q386nxrQdDEjtJDu8oRGoyMZBwkfqr0/pXUvxeQtqlkqyGysykgcJS2bWazLdfUyq4RQvB+4AgxpOa64v9RS5R5XqzQ/IbASKapqrPF4vToiJifvnbtv/7dT/7bX/8IAT/8/RvUryoOPkT0PYmQs1VVafNFTTKsbXQqAQqzraq2qtm5hbA0jWZFdTuqppNAwBz7YViuVt4PMYTe933okXAqUyKsmsrVliwCSmSvspqSBA7ZOhv72C2XCPzEow//Xz/5q+//4AeTtn5ZwqRx06pxSK6uejI+ChnTVJlQ2ACi5J4RI4AjKyTRmnprsl0Zrqre+8l4Mh6PjTVmNGLm6ENkHobQL1d938fBB+/DEE6Oj999992+70V4Oh07ZzHJdIlwBOXGIkIWHwdnzSMPX/rW819+4PLld999px3DannkbLW7fcWZ+mS+GCI4bQXlAWnM7TEhZAHPgoS2bbcfuILjEbTNcrWqqmpre2s6mZJzYJ0PgZm99ycnxycnJ/0wLJdLY8x8PtecTdsiSiKu38yFtzSHgMYOy2Xo+kcefOB733n+4cuXjvbu3Pzw/cXRMBm5nZ1Lo3FzuuiXXRAWRKMDFYiR0OqEnDabwFI1aibnd6GtQvDMXLmmamrjrCLURWToun4YhmFQVxpiXK06Y8xqtTo+PtZcsWma8XisuetGqslEZCyBASDqgx+8Z+at7e3xaHTpwgUO/uTgcGs8efDCZRo1pycnR8fHwzAQQmVJMomgzoMoVlzBIu14IiJQVQLgnCVjjLPMgoAWDCL6yIuzxWLeURbiWa1W+/v7iGit1eXVGQUt64IIcBa6UwisBBRwxu3sbofYG0Pz02NmGY+aK5evzWazvb29+/f3V6suRq4qZfODdDVIvd3IAtbaBhyCqZkQWXJiLCBAwqKqw0Pn+y5EnVDyAQG7VQ+MgGiMGY1G0+msrmsl4lMJOBEFVKKy1SPkNAR0+O8zrlkSJ6moHp5ywJ6dnUXW4gcKg6qTakyv/lx7oGoTtLahgHEAsMxSeoraCun7frVaCqOWAXImQ4U9wft+GPxyeaZapojsnA1h0Hp1GSTZqFfDxnXWQy8AYK1p20rBJsaA6liOxyPnnIiJkZ0Lin/G3KbVjzFOh12ZpetWANG5qmDEMNMMlK6eMZY5EsnJyZHeS7lUui/IaZskFQbPwUsEAEMIhkQwCgQAFpboh8gqykyCRECcAgu9NJCgRA3yVGRY1xAEo+rhompnQwSMygBBGhSW25HC85qWcQNaW8QGjbF1DdPZDFCOj46Wq058qMxkd2fnqaee7E9P9+58+sbrr1UOv/7Nb/6ff/OT3Uvn/8c//+rTe/snJ6fonK1HkUMCb0p6KUbJx3Dj1zEDQt00iOhcVdcVZx0QdczLxfLg4EgEdnZ22rYlwhDYGBOCagJlmS6QGIGswyjW1kTWEDz28IN/+ed/9vyzT1G3evOVV1d9/+AjDz//p88+ePXKP/zihVf+8OHp6elkPJlOtwrauaiQA2BuhyORjRysTdXLvu+NtaO2nUynTZ0ofYZhkCwy0ve9QsnUfHjvQwycAZhlt07aFre3D+5+2q26L3/52b/5q7/60688t3/33q///Vfvv/fepfPnnn36KWD64M6tg26xHGJVtdYaRkgkThlhKUldKBHKIlHTtsY52WBnT7MeeQ6II4chDN6XkLpMiqtFUIyMUpmS8v+BAEht7XPPPPO3P/yLP/v+d+/cuvWbX7/w2uuv70zH3//ud+dn86OT+Vk/ONtYZ6uqQiKVpmTFYIuUnQx5ievx6MLlSzvxvJ4mrRRpBd4PgzBLlDD4VT9IDGHwEmVra2at5cjeMzAqnhryVAsSKb147/vZdOvZ55771re+Ndme/eH111/49W/u3tvbPbc72ZoNPn68f4gcrLPGKQ7UQNKCKqVcFAFhIWOaZmLr2tZtjKFu6rpqRKAbemb2wfsh9N2wWq66oVeqvcVycfv2bcX/X7lyxblcahJR6xsik7DqdRjCqm0Y4Pj4uO8W13/729dfe2OxWDz0hYsXL16MAc5Ww2RSm6p21mJOza0xKiusqAI0oGojs60tY62xdhgGa23Ttq6qjDXWOR0aXywW87Oz0/m86zpNqYdhOD4+1hBTraKWKzSb0oUlYyzhsOLF8uzw+Ojw8PDk9FRQfAxny4WQOFfPZlvk6i7u9X6psC2DRGAkSsBQumuURoWkmYxMbfzAkVlnEEsPIsbYe991Xdd1So8raBSJcvfuXWVknk6nOzs7Zd9SBp5jwuEhCjlnXOX64D/444fXf/e7cdu++fu39/cPkKgdt6PpuB5PmHm5Wg3DEEI0tjKFJwkyTiyyMBsQNGCaZpqdWgxBDzNHVu6FGELkSJC2pS7j0dFR13Wj0WgymagdU9NnnQVBTqSdnCINwgh8cnZq7947OTmZny1OTs/0yZqmqaq6rhsd41xnlblHKpkiwBhj4POOMsVesAaoxhhC9AxRhDXNMNYoYVpV1bPZtK61YFHHzBoSos+HI1kdBTVoTwIw5XuY0RVaRVKvXUBRfd+zBGutqNybiuQKFCZQIqqqJCNSVZXesNooy8zj8biu62EYlOXeWmudGzVj56pNEGl5dmPIuerevXvHx8dVVW1tbemsIACXvlQZxsM8vIBYpmVQwxfFSWjsw3lyVQFDxtBisfKp0Zwml0pNpQA8k55SGKqqAsBMFRq0VH56elrQN0TIzMOgnBlYODD06Tb9d9b9EbWzjAKIAQEQjVBAIkIRKxRVRSnNpgIgEiAYwdRAFmCOhGZdYU8TJybpewMyEiMIIBujYsmImEVokgMqywjrjbLeiETknEVqRcLp6ZxjGtFZLLv9/YN+fvre++9PRs2jX3zUGHrs2uM4aucd/vz//9d3P/iwGo2m1gJlmsUc/BljkNBiZrQmIiL1wZWemKYJIajYug4wN21rbZXBGYZoTQq59lI5wBQwVTsywwCIuzvnrj127ZFHHlouzz56+623XnmZELd2Jt/81tcffeyx28fLj/dP9+7f7/ruwoVLxhht1kLOqvVcqBsQEaSEwDJEPsOvFNetxlcTAsVnlSSvrGcu0qLGVShoyBggAzhpJ9MHqi8+/vjOzu6nn3z685/97PqLL+xs73zv7//bt5//tgD90//6X7+8/hsfhgbAGAuICGaNa1rDnlUIRoiMc+mw6KrpHeqsZoktur7v+0En9EqUzBucm5thujAH3xmUc+d3nnv6qccefXRxNv/FP//8pz/9ab/q/u///t+/+4PvHx4cvfi7l1545R30Hoh0mjHmgQUpWK9EjIHMHAUQqW7bRmHaIj4ExWyqgCdH9sELc23dKoToVfYrQaA4Ri8SoyLOVKPEWeMGH4bgXVNfvHJxsjW7fW/vpZde+of/9//53fXru7u7X/7yly9evLh/eIKHxyCoAEWtuGo0JbmelwPwxHtQVTVZJ8zWWiLLzEPwipnwPnivhYoheC8iq9VqGIbpdKpGzGYiS96gzVZUvnZ7AeTmzU9+9rN/Oj05evGFX7//hxvXHr/2xBNPzWY7e3fvi2A7GilcRsqIDYAp7D6S/1pSi308HjvnCNE4a5wxZNJ0S9ctl8s+bwbNDvVnDSwUFMn5I3k2BAhXfT+EULUtg7z17juHx0f7+/d+//a7i+Vq+8K58daOrVo01lBRpRJDBoFEkEOmDU31NSQhQyq1yCEotTxkHJ7oemoNWDfM0Gv9YlgsFnVd7+7uKsZQ8lhQ3rcFlagoaVdVFUe+defuL375P0+Ojz/84MZ8uZzt7ACZk9P5hCiRG1mLiLhWCpdyvqIC0WKw1gpiZa3kpjwkW5qoL3wIwBg5hqxPq7fXdd1sNptMJtvb22o09MhqsVmYhTFPaCKzzOenfd8fHR2fnBzHyGRsiGF//37fD/P5QgmiSt6OuC5CS67uF5OrTxE3ZHpKYKFOre87kZRdK94OERVF0LbNZk7yGbR4Js8rkQRkoDfmaU3aGAjVn5WOdnt7+4EHL29tbXk/xCgIptxwuXmNyZT8+vDwUDt0RGj1plWRj4gef/zx55577gtf+IJSWcBaCS2fkwhIaK378MMPPvro4/fff+/s7JRoS7e1bjjMyumIqKGG/ieRzA0iOiWshZw1R3WMcblcHB8fheAVWKbnfLlc6mPoKpenylwa4lyiGizg8xRsZvrS4or0BOqJymOrsQQWZbljjELIhjjGQYENBEImEYNbQwAEVIZIlUIeARLcWSEPMUYNUQnSeVLAiv5oSJAU4w6p8SZC+UIbRR78LG6xhJnp72NExMl06/yFYAiWZ/PI/MebHx/t3YFhqIw88uSfXL36oLUuDJ4Qq6a1rrY2STgkdAUAEWzsLbBYZfhx4nrTqGI0GunoByIuFgv1I1VVnT+3DaCD5knBrhySFLhkgY/xdDoEPxqPz5+/uLM1Wa5WL7/0Ure/t//JRxXy00986YuPXN2ZjQ5Ol3ralJnj5ORE530Ku5yWmTG1D3M8KGKMaUejmhkRFQupFtl7jwBVVakVA4DCZav3WSoiqYQIEjl0Zyu/6nZ3z22NayJ67eVXP/rwvRf+/TeT2nzrx9/8L3/7d1cefvjuzZvOmRBiCDHEKACGDAh6jghK6SEpxNBtBoZjKpEBQmSBGAltFIlB/KAFT9/3A7NoCqXcTZC5N8p2hWJbBSIPaKiu7KhywvG999/du3P7Z//j/7t7++D73/3a3/zkx19//ttvv/H6G2+9HUKwqkgWQ9ItENFhPoXv6uAxEnKMvVrefPNJloJZcwBmDjGEwYcYEbGpqtFosrU1dc6qVfXDoEpSynqruLko7L2PwuPprB6P/vjJzT9+/OGbr7/+8vXfjpr2//jmtx586KHlYrl3f3/V98ZVmpxQEoURziEqSyY0DDFGHrw3yg7G0PcexCc+ZkjprD6cIbPyQXnTx+PxxYsXt7e3Nw1ljBET31lSqyKh1jVN3ezt7b/9+7c+ufnxp7eOHrxy/gd//sPHHr327jvv37q11/tQj2caUWnjGbOuGGiehyCc3lfXdYJojYnW+hgkRsM2StTkauj7fhhKNUsvovH9eDxWBovChJjmLAB6Pxwc3K+cq+t61NTM/NGntz66+fHdu3f3Dw5s3TbjiQ98dDon60JgQrLWOOfqulHfk1dJQlAojCrb6OCzptHCEhkEIzGLzseGEADEGLTOeh+VHB0Rt7a2zp8/r1wApZKdO+9syA5D4Nx5qeqWY+y9P/z01r27dxfz+e6Fi9PJRAD27t8/61ZaJUWyuryIoImiJgMsmRwBTeRU7lfLEKMgsEqzaokihAiZlps2RiGaprl06ZIGQ4W5UZNNQlKUAjAgCYEwc9+HGMX7YTKZXb50uR9Wy+Vqb+/g5ORMf5Ha6RACoiKZOHl1hcQxYxYGxvUIApV4oiSQmtcxM5GJQbwfNCQdjUbb21t1XSmRfxo3iSXg5BLHZOcLuXy8RldsOhQiUjbCS5cuPfPMM88+9/SlS5ebpu66oe96/Zq+RH2bakgPDw/ffPPNV1555dat28PQz+dnKcxRrMpXv/rVH//4x1/96ldns1mJLstvBERDUHotB4eHd27f/sd//Kdf/vKXy+VSaTok19JdlhvALPCoJzb7RXDOVZWxNlH9ZDcfVivWNAIArVWaxaSvA7k9UNw/JmBwyTk/P+la7gGKTt0GqUaJnDbdXvrfs35wTIp2QAhoUKHdRAaSaheWyhahUBotEFZBGAbluNT70DdJnPqCQggEDCiArHxcwsrrJiljlmLsyuOURaasI6C+v3L1uXPnnTX7hGfHh7fv3rm5WlYsf/fXP/rBn//Fnzz5pW7of/vSS6++9daLr76zv38wm23ZpiUyAooNBYI0oM3KHwdgyJQUwWQGBeVm1Tk4JXRBRGudtYYyQH0zpN2MLSCXWLphmE4m27MxRP/Hjz76w2v7w9HhpVnzF9/79nf+7AcPP/roRx99fP3VN65ff/3o6Khp2xDC7du3dSbeZKUcfYEbZybPKOUyHREx82q1UtLlEKIOeddVa7OYu+RYpARV+VY19AyRo7F21Na1pZs3b9755ObNm5/0g//uN7/+w7/660sPPvDBe3/413/919dee2MIoaoaNCZEMcAsISadc00WUilEZ3CYlTQwJSV6M8mpDIMaa70xDeaapil7taxnCTRFRGM/5mDJ1XVzeHT8/rtvv/LyK8vT1XPPPP6Tv/0vX3j40ft3739446OTk9PKOTJGhXB5Axel0QOKIBQV4rXUbh4p9LrjY4xl0JRj1ArxdDrb3T03mbQp/RKgTMZstNjAEGMMMaBBR9aQHM9P7+/t7d25/cnHH7Zt86Of/M2PfvTDo5P5O+//5t0Pb4BpJzvTggNDxFzwy/eMyZLqldU6eR91AYmIQdRTex+0Y83MZMigmc1mOmehMZA+UY7g9VDrNC8KaKuJlsvV/fuHq84/+ugDz3/z+aefem4+X37y6e37h4ejdhJCYBAiMhvjS7kyRnrWBQARfAiAoCB93QA6xtx1XcgE3pKH6fT0tW17/vz52WymWV8xtsV+gkFTVUCIhoAwDrxYLVfLZRfiZPfcGLgZjeaL1cmyc3UVYhQQMjYD4deqe4iQJAJZ6xDMHEXWQS2AboB1tqM70RjTjtoRtjHyZDJiLoz5AAAgAElEQVS5fPmyloJiFrvCDUZIIsORBRCABBiNdcaezedR4OKVK3LxYlU55tj1/arvPCsdEKh8VEnBk54fFO4hgY2mOQCkEf0oxoqIaEUw/WUu8xhj2rZtmkabIEXUzWSlQ8gc4Bp96XFVX940062tbY327t697b0/PT3VkSItMSIi50AH0+SFWnUUYdW5Kw6seK5i2IuT0nPnHCKCsaZt2ul0WiCxIfScSWKYP5MqFwusi5Y7nFC8ieSkvXjMRx555Dvf+e7zz3/roYevTiaTpm1i4KH3ejEkQkDN25um6ge/Wq6uXbt29erVf/mXf379jTeGYbAaO29tbX3ta1/7+7//+6985StV5UII1hoiWx5YLYKPPAxDVTkic+nSuUuXzu3u7tZ188tf/kIn5jf4JNZWWzZgFtkciLWk47p6nr33IXg9/8GrzQWRmN+BWr+yXqlrpZwOm6uzuY55pSAvtwCsh982v6+3sZGwwro3kgthMWF6iXVwBiFoGqr8aqjFQ6SEkyDANMlqtDWiLxJJETeYwCbCKj7OCgONpHYdGIFB/hOezXWGuvEDqrQB4mQ65RCGbjk/Oe4GfuT89uUHH3jg6oPWubd+/+bPfv6PL7325p2j5Xhn98KlyxEJkXT/oyAhWmMAgRN8C5x12uUpVWLmuFyudH5MY3wAMdYqt3GJIyUj1cse2Dw5sR+q2k3GY++75bxfLfs7t/Ydwze+du07f/GXX3rmmcPDo1/867/90//8t/fuzaGaXbp0yXt/cjzXqkk5AKWkI3lPpIGJTEcRQjg9PVmtusVi4b13zlZVTUSz6bb+V85clsU+bq4qAIQYlXzDGQQO+4fHn969O/T9M08+/v0f/fCxJ5749N69n/38n3/5i1/ePTmRyWz33C45q/Y3MhKZIUZCIARBEiTVmddYuRx7DbhLc0FtH2QixToDREoksY6jRYrvWdsJwiHGvcOjT27dO1mFRx9+4Ht/9sOv/OnXD45PfvPr316//tubt++20wnWDRApR1ZaOFwPv1N+WaCVIaRUjx2GGIJkppm+7/u+VxNc1XU7and3d0ejUYIUoddistoyZ52wiCoFMNi6QhYi9CEcnBydLs8m27vPPP3kV/70G2zs23947w8ffNiHOJ3Urkq4zXWaoIdHjQxCxEQXFiMrt69m/ADgrPUcl6tV33X6pRjjMPimaWaz6Wy2NR6PNXQG2HSca7snAkSEBAzgh6HvhnY0G4+nDz/08JUHHv79O+9//PHNw+PTph1TZbu+I2spRhiGEIKO66sj1DlHSFV8whhEJCIAJdpZhSYsFguNRguGKYZorBmPx9vb29PptJTWpZCwbQQZKeYmEgFGAueqdjTd2jbWLPvl4H0XfO99C0KEgqiphfdeK36ocHIxCFB2KaAoDQMARGBCBLaALFLq2cQMSoJX19Zaqx56Op2apKH1H4b888nVu/WBCUUIbVO1libjCUqMzKvVykcIcQCQyELGVK7S5VoD7zVeyVJhgx+UZwIBlCknxigIccPXliOvZr9pmnPnzinvquQEuOwKay2rPjCkyT+F6UcOzD3S9mQytY7IGiDs+34xP9Pyv03CGUmJCQAyd0c2OJhLmBvZQrIen+3HQRb9UXc+G01ns23lSdPalYgog4CixAA+v9opPILkBEt4V8r8GrsMw/DQQw994xvf+NGPfvjkk08YiyLgfbDWNE0lGdcLgIXBIcYwmbZPPf2Eq8ynt25+fPOj46MTqwbi0qVL3/72t7/61S/Xteu6YG1iCC73p7foyChZJ6LKDdAXHnrwL3/4l7duffriiy/2fa8Jlp6KEiVtnFJdX/E+dWc1RWRmpabQAWIB1qGDYt9L5JhbURleROvApdidYmopychuAtFEI5Ucvklxfhs1OkFEY0lWEiMruQiUZo0AkWEAEVSVJYOoRU59VFUFV/IpFiFABiQwSKAwJUtCQEAooHRdSQJRUBAtGqNzMyLAwIhrsrJyEkq4ne4WEBEjxyBSVdV4Nh0tpmfHx07wi9e+VI/Gd+8ffPTJJ//277/67fWXbu8fQDUjdABkUlHRabFYpaQEko0GQiWqrlwFAJE5+IBExtgQ4unJKRmzNZvVTWONoxyx6TLGjbnnzWhPHwQQ2qYhEfYR0Y2ns2YymdRw8eHHZxcfPOnl+pvv/vxX119/54/V7sXd8+em0+l8Pq/rWg/SZnBdxqmV6kp59UUgeA+IhNR3w2KxPJufYQJ/mLZpNMkr1rns8JLElI0BIlGYgICZJFJTT7a3xpPxpatfgKp6+8aNP7z77s9+8S/v/eH9ajrbmu2AsUgWIkddRBTRXB4ICAAFCSDLl5fwlzcwQ8MwLBZL5qi1mdFopN0c2ChXlFUt9ggACNEYS1UNHJd9F3032dp++qnx+XM79Xj2hz/evPnxzRdf/O3B/b3RdMvVtWSBosI+pp0CwTSATURkiABDXGsUlcZvzAwrwXsWcc6NxqPt7Z3xeGyMiSGAiA5UgEERIIwCrBs7iiASx4jCYJx19XRru3Ju1I6uPvzIwcnJm+++8+qrr8/nJ1tbO+1oVCpJkOIfBAKJxVonRAgjchSUGBTQkbrm/eCHuq7bdhRD7LouxtA29WQy2t7ebtu2WBjNCDeNQw7aEUCIAMFEEbJuZ3unqqu2nezt7X3yye2Dg+PZdGtrewdQvESTo38BAAJrbIKpIKBBYQCUyNEYo1AV/WKIcblYnJ2dhRDqprHG9CIhBjJmPBnXdb29vT2ZTPRwbbaDy+5FRAIKHOu6JjTAjIaatrU6joEIHcWzJfZCRhRSZShLhTFDRhchiiBkkWmt7iSXFGJUNWDCKCIxRGOstUoNmDrLbVWNx+OdnZ3JZIKIxRHghixZBmToAqclZmYRapo2xCAAERCNQeeM80wAKMaKtc5ah6RHNen9JvoqSRshdWAxZbEaTQw+aIZZuaqZNt4P8/lZtxoQsaoqPWVKGFoW1m6qgIJAhi6k+CDXCLXJR0jj0fjChYsxxkO3r2X44rmJMoBNULR1LpwqEWFtgvizn7wDSysZNSZoR+10Oh2NWmMNAoQYOBaJUIAk9Iq44bbyeqTiTtnhGq9ba50zItJ1nfLFPfvssw8//BCgLJd9CKHvewBxrhIRIjTG6uiHrjEihOCNocuXLz3zzFPvv3/j1qd3bN/3k8nk6tWrTz75ZFXVIcSmcVp0yk9ViMER8sgAIiXaNJBr1774pS996fr168w8n89LczEvx7pjxMxEmCA/IUBa4vXyMTMiucoRIQfgtObrFni5q02XoLF7Kehh3myYIlNAjIIlC4FyS+U6JTxUHEqKGUOMPoLSY1Hu4DOITpAmI0cK7spGSP8h1lIGKW7RKOpeg8UYUAhRi+AgiupEgwBgwBpDKWdA3ZEpYLIZia1urwQWuv8IjYgwQogRAJt6tHPhggPZOn/eR37j7XduvP/eq6+/dnBy1k5m461LbjyOLHVjCUlhe8IYOHhlNCJCAgBaLZYgosPcwXth2JpOrbUx8OJs6b1HNKN2bK1OAqfFLMXkTau38UewlvzQ9R07V00nE4sSh35nNmU3funtG37wv/3d9bdv3q22z2+dvzSdTrVLlVLhHGvrq2QO5UQxC7AQGY6yWvWI2LZt04wWi5UhR8Y4Wzlbte24NKfLHRYSGF1hheOKCBmKzF3XqTxlMxlfffQxBMGmee2dd156/fUPP7hxZ39/69LFdmvHNM1y1TVVDbpRESJzgvEig8qqcuoslDCrGKDSjCNCa6vJZKIciyWkWNvijYpFeRAhHJiVrSYKMlrbWDtG205ufHLrg5u37t65e/9gv7K1a8eLyEBiMnJC45KguLAkS8KpCybgh6Hre0XVIJHkzM8QaX4cQmibZjKeaFKBiM46732MgmhQhFCsoWHQcS2bYBaREXjwAzPV9aiuKgI8PD69t/fq7du3V6vVdGvb1hULKJ9eOm4cdXMKg5BAwgHo6iALhhhDiMxAZGOUrl8R4oNXrhprjo+P9vfvhwHPXzinnBAaYuqpL5uhpLPF/ooIMxIxI1lXYRRCMz9brlYHXdfXdQ2IAlLVTUWionUhRkto0AAhgRFRySYQFMX7GGsDx6KEvur7k5MTFtmazXZ2dnRvHB0f1W0zGU/G7UgjNv1yju54s4QpIoLirIshMAeDYI0FgBBi7Hu0xtXtGAiNoVRkAlR0rTAja3cWEJhBiEMupyOayCwYRXjwQ7/yWqASkcra7e0tY+wwDFrz74dBaxWj0ajA7IoFs1n3RNccAKwxCMqUryIg2A9BBLwMlEhbjK1r6SWGqOYu+IGMESQFJyFiESYQRbeZNfJMqUIZpV+urDVUV+202dnZGYbBD/6Mltba0Wg0m800qihJqS6pjrz1fR9DTEOcheaRmcg454bBn+FZFWpDNB5NQgh4Duq6Ojw8VLhJBpeo0iyyCCQSAZR8lkqVouDSYA35AgD0fgghOlePx5PZdOpqR4gsEREhok7+CyfWRB8YMVekMjGSXipGUWSJ3kPB42v/uus6zd8uXLgwnY6GgZWGBJFEokjYDGJz5AZV5bqut9aOx+1oNArBV1WltPDh6tWrKjdCRKpN4ZwBSE8laS0oRu0uEbOokgqzENFkMrXWqvZVOY0lzyhGEBETziyt5lpeEnIcCHlAD1S7EEV75/lSXK6gBjbHQAlplUssejlkpVBc53mfYQv9XHZSbqbACAyZxLlhrbGW0JJRAiWLZBBVuQCUon7tRbXpAWUUEEgbGYiIwJp6GSE2nF49IqJ+WZkh0tIB9HHQUnNZSU5wd/pc51LrapEZgGazrfF45EBc1R6cnN3Z2//wo5sHJ6dg6un0nK1HztXWOgFkZsNsjFEKZ0pzsSAAEtgYwzGuupWwVFU13Zoqxm02m124cEHp6nLEs37Fm8EE/IePgHAcCgMdAjbtdOfClemoPer6f3/1rTt3bt+9ey/Y8WS6Ra7JG2xiyGl8XR4cVfl4DbFeg6idc5Gj916Tfp1kUUeCmX5YciW5rK3etpo5gxjVWOkoZoyI4Kp6PJmQwa7v3rpx4/D+wTCsmvG0bVp0FZAx1jJk35JqXSWhYt6oTJbYSIvz+icimk5n2jTVoUKFMZSQIh+ijXhCm3Wk5GkghIRknLPWSmQh7Blv3t1bzc9Wqw7JUDuKZDiyze8oJEFgijFGjpKPQ1K0j1xCn6RGoYusTSL9RSJt24zaxpIxaIQlrDHRHEJMCIOsvuGgAgqJjU0wcWwjAsLB8fFysehDrNrW1Y0gRWaMEckoszoIcGBFG0vMryyXVDhyCIE56YwDwPb21gNXHnjggQdOT09PTo51J2j7o0waQ24mysanuEBYV0OJgEBEkHzgwfcxChprSYBwCJ57IGsUcWnsmstYp8RSUUhEd23gtERKU6FAv8lotLOzs729PQxDO2p9DMaaUdOORiNnLXz2WG1u2gQFULV0IAFhgSiAhGCQRSQGCSwsCqoNISiIJMaIWvEBsAZijMrNx6w9XQAwwjEwIyCCIYoaGCOQMZVzzhirE1jjdjSZTKazWRlcMlmRwGT2gc3gmIwhawExxKgEhNoFLjUMRfKkbNMms85phnOdW6ZzlAAESGhFAoBwFGaJkWPgNIjrai24iuBkMgU0TdvWVaUdEL3P8kPB2yUHIQzr0TlSABoB+hC6EMMQtWtpa8MxIG4BUNelRiEzg1QinFFMQtr4QSRC3XcKV9JgkbLITvZWUFWuaaq6bhPpOJFXBlJFgWKS1dzwjAmETWaze65bRcsECYJWjB4i6sAqIq5Wq2GI1lHbtkrORuTKqytWSHGcAFDXrbV2GPzp6fzk5LTrusS59Mknn+zt7V2+fFFSFai0ITC7T23PYIKfAYhI3w/W2hj9yfGxJj+lUg15cqYgA4qzUYuba1SSsyb19FLiIGZO1S0RxM/UgUVKO1jTAITcrVr7L90MINqKVXtYoqLNqCJ7qXW+ovB7P/gYYmUMJviFITLriERTpfT/6DnMrR/tWStNWw5zSuGPDIFiQG0CfyqFBSKwUmgAa39Kka1K2NLnlLEgcinPCCEAxyjp1AGi1ONRZZwRXvk4nJyuzhanywFt41xl2jE5i8agMYTawYAYYuLdFL31xPKsjxkyMav69dVqFWP8nMLtf/R5/2nopj+zMAEgYPQRgKy148kOIx/Ml6enxwdHpwGrdmuC1jFQVFiPq/Sl6GnPr0zy4UwSxvqLbNaOUZrhtm31zBCRnt5SJygbIF9h3a4mIgEIkXVYUABCiCLCiBXaiIbRmrppm6ZtWh9CHMKoalXRJWWPAALAQaPkzwjfI65lS8tH46G6rjFj9ZV8pazh5npuhm5JLYTQIOXsXZv5LCJ9jIEBqqayBhAC4Gm3JHLlt6ZEDUlQNofL03yjDyVUL1FR8F5pChWsjkg69sY6xh1E5bkllxOYOUb2PgTvjbUmRktruTtmQIQoXFWVEDYNVHWTHCdLiMIYBIDFGmOYBVFnF6JmXYio864cOYbYDwMChhBWq1Vd103TjsdjyBAWvWed1cRcfC7vvVg2yAXU4gWV1g90lB8AySpmom4cGcMxCrBCfXUx0RCWKVMEAPqMdUdk1rHcYbVazedzRJzNZpcvX57NZoSkLCyTycQa2zaNtRY2MOmbu3fzgwIGjCK60tPksnqJkIiMcwAALEFEWOETjICg4Z2klA8RSDIoINnYon+geNKq0p1siCrnTF2jMTYJ06Ts/7Pe7jMQRQZhYQEho04uQprxB62bgggiWaOdGxGAGMIQ16N/OZySKAplYCIiIGbhIJFjLgOwsc4kfIZVx1LXTdOOCpkvZ5m30hMvJzQ9fKmLZadWni6EEHwE6WNgIrHWVlVjrev7XuW7RcQP0ZCBDATRCgVSekNFcKfsvdLZN8bEyOPxVts2iGBtGjgv7WZ1NzotnH0iFtcqn9FbLp/1r9CbUeeigcW9e/fu3bt3drbY3Z01jU6jqLSshTxjsuGLUwUhBL59+87t23eXy2Xf91YTjg8//PDNN996/PHH9e4lDcjhZg1WFbFZ8QUAHKVy1ljz/nufvPHmGzGyTlfrRtaGAmwUeMthUB+AiAoRQ0RjQIRZ1l8QEWsp4ag3ihzFi2iDLUNRMP9bkgcXAcyuEVHZMkS0d44Kcilbp7xI51zTNEp7UFUVs4QQDBpApStFEFCWMeYUD+nDoUmBNiGAGExcFxJjNGQMJb05DXQouR3ENNKYEm8AyPSradRPCeDOnz9fVdXR0ZFmsbqPS90lAQJiBEIyliWCoAgFgRDZAlBkITvbPk91O3jvA1NtAdD7GJiRLUcwoOJ/KAJACEARmAF814VhCEkMwmvZVhUBNPyiYjo3rVs+D5uxhZTUyqCIkEERY7Q1IEDGkoEudLaqti+cD4OggB8iJYhlVGujj6yzIdpkzVRhuqIZbUBrjs7PmYkS7G4GZ/qmKI9RadKgLEAydCJMiFhVhkVAooAPQsbNts5tbZ8PMSyXC79aIXLwjMhECZmUOpCQalFlBfS/Fk+GiNYaNVslh842KyHySjBRDkhpBpePsbaqrayTQgyEHGNkqarKNY2W/EFUugJZxKvCBSEIBI4a6pcIXsuqCBglSuCSxsUYq6oa549zDkQICQgjZ3umRwqBEMk5pXgKIQKlYLmpGy0ZCSlxqAQOXTdYa9vRxDoTvO+HwZLxgX0M2oMvSwHJx6ePqNQmyBC8HjoA1Ep10zTz+Xw+n6siXTtqa+sIUIoe/YacVXHVqcO4Ud3MP6Q0hggFIQqjIQW46QiMMAqIkFCMMataOOc0D9H11Xekcx9dHtmt63o2m21vbyPi/Oxs1Xej0SjRluThmhIMlZJbsdL5E2OMDm3uGqOgBjpCVl8RCIvu7sg2Kigxl5eC91r8j0G3gQ7zSuQQhUU4MktkIkNITdtMJhPdJ9qmsWgCxxCDqiXwxqS6ZJgkbIyzdUPn2aPBdtyycN9FzDVTZ63SUAoZNlY4AggDkg0y+BKjMDNzZseSqC+OQccI1z0jTKqqpm3bpm4EgSKbuiJnTYZFl/S9FFfKMKNOz266ws0fMt7TM4sPXjjWTdU0TqfEmXm16r333aoLmf2FEwEPq06Tzkiq04EN0Cjl3rcxrNFwxqYwIjpXZQFFyuAEUFkSZYTP68Mlt5fceVDeZn0vCoLp+06fNIRw7969N9988+LFi08/8/T29kwpsEII5dFpA8IoIlVlAeDmzU9feOGFl19+6eDggJAsAGhK9+tfv3Dhwvnvfe97bVt/tmRVHEZSbbeGdPbGGHj33Rs//ek/fPDBByJShuJERFuYeZA3ffRY6dIUrEMyhUgmFx2IiEUITZrxXY8UrjOMksIVBMZ/9slxxsYnFeFzMCEiVVUp76x6bsVda53fRxWRYcx069oq0BovQBrCJKOBjSS4hCj6UkII1iS+CMyThQZBAcGIojYdAEIOP0skCABN0+zu7m5tbd29e/fmzZshhMVioea+WPm0qglojgYoingVJWIZVZVEAbRuPJ1W9WoYfAjG2BDZd72XaKxt68ZRUiRDERXrZUyiJJCZP2KM8/m89E03I7NNH1lCjWKRyx+LUwSAqAhVRAIEFiGJzCEOtqrqpgkDx4GxAR984CDMPgwa56lP1Um8fEHMVbT1ru26jhD7YSi3xBlZDXkKo9xqjLG0rnGDExAADBJzFGEGIWMIKQoIEDMyUF3VFpHBoG04hDj0VLg1UpkKGT+ze8uqlIjWGKOksTZr3BSHx8yQ8HS4ueaSZyNxs8SCBKISaErzDQYQjBGQCIjIxhlrjRpbRWGWThDkgtPGTebLGoohIZC08RFCqKtqOp0qPw0AJB1rztzV5cMsmWxG/a4xxlnXuGrctJ5jwm0oQ1cARo4x9sMAWFtnkYxFRAoySFkxwJKWJR5APVlD8Kq8pXmbMWY8HjdNLcJnZ2fDMDBLVTnnrPKTqHQD5LitZG+fWwfamO5Oxw2QhAREpIxighaLkIDAsKK6YtQacnIVkNI1ZkYWINTZH32VWt9WJs3VarVYLkREGbtjjMxCiMrNpHlgeV/lDVprYkRjTJP5lVUF1Meke0kG0YBEjiESJCqRwAwxIR4SypJIWOfRmIVBILKwMEOChFlnnK2sq1J8H4LmGJVzBDSEYNg0o5GhpFip7pmZVS8Rcl4UmZd+FTmyFguYQwjadzOGEMAQ6THQyUbmCGjUO+iuCyEyD3qpYnKy5UmVBrNBU5HyW2HhFOJF7wOABsqliCWZuxk3OAhEpOs6XLP9JR/btm2pg4qwjl+zJFy2RgOGnPehrurFYqG0kMxJVZFUbBJAx3/0snrNVGgSkQzYXywW+ZZIBEsVanOYURhjjD56rcozs/dpar0YYYA8Je79dDrNdiU1XwBgGIaXXnppPp8fHR9du/a4c59hjdt0Uro+em8vv/zyiy++eOPGDQC5eOmijTHOZjNr7Ztvvnl2dnZ6evr888+fO3dOVctws8kEwFFAMDoThrB/sH/jxo1f/epXL/3upWEYFLMJGWJZStZK9VpK0LIumCOsKwpRa0QJea6gOc8xylrOY8M0/2fRQxYBzxULQSmlVkwNIRQBkHVHo7icxWJRVdX+/v7Ozk4IQRldWCSw6KBK2mHF7HLUDNQa44yhyqggAuaKhTq4MLCGFSYoEAEyYXvywQaMIAqIJRIATjEWKKBpPB7v7u4S0enp6f37909OTs7OzlJj21ioAAAK6IxFkJBBokgEgSjA4k1PAAAkogkpIJm+7yPz4IcojNZyjA4NKmqLmQWYEBADc+UMZWiVmmYRNsY6Zzcqq8SZ9kNRGogoAiH4QluS11/bFhDEIyCBMWhIDCCiRc+d56Fpa2dt6AYUAgbfDzHHLgjpghpVZGdAG+lm2iTGmNP5XDtsn4V2l22cZr3074tV9d4jknN2teo08UWJIIEZogAgAZIoVT6RICwWKyISYR8Cx0hAMYoAUNajTzZTgFPVLReok5cUQnSVizFa64xBAGKJMbCCgZjXCCE1QxqwwgaHoG5sxSFBFzTj4+x7y8QHWjSkZdsYvJeIIMTAsG4AgcntWNboI2d7IgKElKdIlC20W62GYVgulxIZdHAeQH91OiOQaMuMJZ2l5BBRJForDlNFk1VGU1hAIhDZyH7ZL7uuq2yFOpQDGxQFACIS1RFxOkdAxJKKyQ6dMWYIHgHrqmaWo6MTfc9VVQUfQt+rndEe+WYkIRufz0VXmIe9ydjNQJYMKnzYGAQQ9oJYAwNj6jFwKaTn3ca5ZiYiXZ+4B5qmVSaxg6PD1arrupV1TjdVjNEQIZBkD4SIhY5T0yFm8X5QANxq2fkhGGO9dlpCx8x14xARBZgjR42qbRAOytYlApxohIxxzBJyYg3p4VMzGQnRGLSGiFh5C5kRcbFYouTAyhgfAuZ5EGutMRZEFD0mIroZfAzzxXzVLU9Ojk5Pj5EImPuu84OvnKtcrSrwzExIUWLcKC0LAIKEKDF+Lo5N30n5Ty7zENFqtULE1WqlIgza1dEClAYWOh+EG7mr1i/1Cl3X9V0nAISonk6/Mxq11lTDMCyWS3XXPgxAqchhjGnb1pLTNtZqtdIYV9Y3hiEq07SyFSZaqTJZWt5CHiRRVMB6h2LipF3Lu5ehm2HoEUzfD+q8stsFY8wweGXZ3t7eho0aknKkMvPBwcErr7xyfHx85YFLo1ELgN4HQ1aj23JYdEJkPp8fHBx89NFHy+UyBqmr1g8en3zy6e3tbTUW3vutra2vfOUrly5dKpDp9MIkE8WwhBBF+Pj4+Pe/f/vmzZvGGIWbJUgDooiokuzp6Skibm9vKwl0CIGFCSmHFHlAFNajd+XMdN0QfNQpCcnIlJKj47rrnE9uCjJKGAJaMtJ/Z2uu31adLa2TWyI6Oztr2/bq1atXrlzZ3d1VkDCR67xfzOfeB63fgjLPCRBKaeBtAGcAAAMwSURBVFsZQ0AwhB4JUmABiKQsV5qwkSFLKXZGAwI6YWqMEoKzcFXXmrDqyLtuqdlseu7c+fn89Pr13/3upd/d39sLITZNrW02a00qwCJYa0H5aki3Hqg4FQk6MoQmcvA6PAoYgvKjgyBo1QMEJOY5bRBGUmlbAmCOwqJ8FZCJeogoRk4by1plVC4QHMW/hJi04GgDA0VEZDAme4EIJs2pIpBhJHHOMHPf+8oYYOmGiMZAasyZYjiYWZN7yW0yonUxExPxCWpLsnhHRNRasRLAcx7y1L9EpBC8tbaqakhceICqMKeQMYAMn1GaUgyD9yE4azV7tgYTlFii2jkQMIZY6c+SmFGC+2x6LN2EIqzrp1U9IlUAllznzMubaeIKkJnIIIqqMStCKap4YE65dIsyS4wBFKA9RBECTBxH+dclGitUKLEGUIaIDGz0bxBRvaYxJpUYkVAkomRjBwiknOiSqdYldwabumrrlkgTC9BKkQCqvHMI7EMfY0wS4yBEVgFoxR+HGJkFM48F6gBviMJsrHPWhehBoKlrZlkuF85apTDxwYfoHRlmFlR6ctC8PJldfTcaErEwCGbyOkMmtXYUeSARyRBBjEEkgxOZiSoQZBSIEoVVX1tBpqDTV6U2aYhjBMCqcsZYIjTGhBiVcFOtTQxRC2iSmhJijEWEGKMfvM+FN0TtGIohqohs1ZAhTsMSURCc1VRKmUojS8JjsQiwaLFTEyZDTqEMHFNRFpTxwpIWWgjRkDHGIhJwUgIa+sGHQEBkkKzRE8EcERMUXUAS2BEUXBIC+yEOStrbrVaWjLGm67oweAVDIBoNbzH1mKEk6HknJnassiFT6kTKk6ZT/JjAESqlqUEDIQlGYUEgpGRCjS05LSEK6BtXwXHR5gqLGKK6royxAmk/V3UVY/R9YI4CEkKI4gFQoRXOOedqZx1k+lR1fACgGAvNt7UOXYZUSxzA6aPxRNQxal5LGUCxyaWyIiKKJYocUcgYo7dd0ipjbNd1Z2cLALh27fGdnd22bfb27i8WZ6qPqnei7A8sYdSO+qH3Q6jrpljg4n+JqO97JQo6d+5cVVV93x8dHf1vSwmfwmz/cWYAAAAASUVORK5CYII=;" vertex="1" parent="QUz8MOJk-RTbm33aGLKT-2">
          <mxGeometry x="33" y="523.2900000000001" width="162" height="13.29" as="geometry" />
        </mxCell>
        <mxCell id="QUz8MOJk-RTbm33aGLKT-8" value="" style="shape=mxgraph.rack.apc.apc_smart_ups_1000-3000_va_2u;html=1;labelPosition=right;align=left;spacingLeft=15;dashed=0;shadow=0;fillColor=#ffffff;" vertex="1" parent="QUz8MOJk-RTbm33aGLKT-2">
          <mxGeometry x="33" y="570" width="162" height="30" as="geometry" />
        </mxCell>
        <mxCell id="QUz8MOJk-RTbm33aGLKT-7" value="" style="shape=mxgraph.rack.apc.apc_smart_ups_1000-3000_va_2u;html=1;labelPosition=right;align=left;spacingLeft=15;dashed=0;shadow=0;fillColor=#ffffff;" vertex="1" parent="QUz8MOJk-RTbm33aGLKT-2">
          <mxGeometry x="33" y="600" width="162" height="40" as="geometry" />
        </mxCell>
      </root>
    </mxGraphModel>
  </diagram>
</mxfile>
